<svg width="1em" height="1em" viewBox="0 0 40 40" fill="none" xmlns="http://www.w3.org/2000/svg">
<circle cx="20" cy="20" r="20" fill="transparent"/>
<path d="M14.8423 21.3558L20.7981 15.4C20.8173 15.3804 20.8402 15.3649 20.8654 15.3543C20.8907 15.3436 20.9178 15.3382 20.9452 15.3382C20.9726 15.3382 20.9997 15.3436 21.025 15.3543C21.0502 15.3649 21.0731 15.3804 21.0923 15.4L21.8289 16.1367C21.9852 16.293 22.1971 16.3808 22.4181 16.3808C22.4933 16.3808 22.5681 16.3707 22.6406 16.3508C22.7823 16.311 22.9109 16.2344 23.0134 16.1287C23.1159 16.023 23.1885 15.8921 23.2239 15.7492L24.4023 11.035C24.4368 10.8958 24.4349 10.7499 24.3965 10.6117C24.3582 10.4734 24.2848 10.3474 24.1835 10.2458C24.0821 10.1442 23.9563 10.0705 23.8181 10.0318C23.6799 9.99315 23.5341 9.9908 23.3948 10.025L18.6806 11.2033C18.5376 11.2392 18.4067 11.3123 18.3012 11.4153C18.1957 11.5183 18.1194 11.6474 18.0801 11.7894C18.0408 11.9315 18.0399 12.0815 18.0775 12.224C18.115 12.3666 18.1897 12.4966 18.2939 12.6008L19.0306 13.3375C19.05 13.3568 19.0654 13.3797 19.0759 13.405C19.0863 13.4302 19.0917 13.4573 19.0917 13.4846C19.0917 13.5119 19.0863 13.539 19.0759 13.5642C19.0654 13.5895 19.05 13.6124 19.0306 13.6317L13.0739 19.5883C12.8396 19.8228 12.7079 20.1408 12.708 20.4724C12.7081 20.8039 12.8399 21.1219 13.0744 21.3563C13.3089 21.5906 13.6269 21.7223 13.9584 21.7222C14.29 21.7221 14.6079 21.5903 14.8423 21.3558Z" fill="currentColor"/>
<path d="M25.1574 18.6444L19.2016 24.6002C19.1626 24.6392 19.1097 24.661 19.0545 24.661C18.9994 24.661 18.9465 24.6392 18.9074 24.6002L18.1708 23.8627C18.0665 23.7583 17.9363 23.6834 17.7936 23.6458C17.6509 23.6082 17.5008 23.6091 17.3585 23.6485C17.2163 23.6879 17.0871 23.7644 16.9841 23.8701C16.8811 23.9759 16.8081 24.107 16.7724 24.2502L15.5941 28.9652C15.5635 29.0881 15.5612 29.2163 15.5875 29.3401C15.6138 29.4639 15.668 29.5801 15.7459 29.6798C15.8238 29.7796 15.9234 29.8603 16.0372 29.9158C16.1509 29.9713 16.2759 30.0002 16.4024 30.0002C16.4708 30.0003 16.5388 29.9916 16.6049 29.9744L21.3191 28.7961C21.4619 28.7601 21.5927 28.687 21.698 28.5841C21.8034 28.4812 21.8796 28.3522 21.9189 28.2103C21.9582 28.0683 21.9592 27.9185 21.9217 27.7761C21.8843 27.6337 21.8098 27.5037 21.7058 27.3994L20.9691 26.6669C20.9497 26.6476 20.9343 26.6246 20.9238 26.5993C20.9133 26.574 20.9079 26.5468 20.9079 26.5194C20.9079 26.492 20.9133 26.4649 20.9238 26.4396C20.9343 26.4143 20.9497 26.3913 20.9691 26.3719L26.9258 20.4161C27.0418 20.3 27.1339 20.1621 27.1967 20.0105C27.2595 19.8588 27.2918 19.6962 27.2917 19.532C27.2917 19.3679 27.2593 19.2053 27.1964 19.0537C27.1336 18.902 27.0415 18.7642 26.9254 18.6482C26.8092 18.5321 26.6714 18.4401 26.5197 18.3773C26.368 18.3145 26.2055 18.2822 26.0413 18.2822C25.8771 18.2823 25.7146 18.3146 25.5629 18.3775C25.4113 18.4404 25.2735 18.5325 25.1574 18.6486V18.6444Z" fill="currentColor"/>
</svg>
