<svg width="1em" height="1em" viewBox="0 0 80 80" fill="none" xmlns="http://www.w3.org/2000/svg">
<circle cx="40" cy="40" r="40" fill="transparent"/>
<path d="M41.395 26.749H32.6372C32.3446 26.749 32.1101 27.001 32.1037 27.3142C31.9268 36.1172 27.6239 44.4723 20.2177 50.3904C19.9825 50.5781 19.929 50.9311 20.1009 51.1854L25.2249 58.7687C25.3992 59.0268 25.7388 59.0851 25.9779 58.8955C30.6088 55.2193 34.3337 50.7846 37.0161 45.8691C39.6985 50.7846 43.4236 55.2193 48.0545 58.8955C48.2934 59.0851 48.633 59.0268 48.8075 58.7687L53.9315 51.1854C54.1032 50.9311 54.0497 50.5781 53.8147 50.3904C46.4083 44.4723 42.1054 36.1172 41.9287 27.3142C41.9223 27.001 41.6876 26.749 41.395 26.749Z" fill="currentColor"/>
<path d="M53.7354 32.2512L52.7784 29.2948C52.5838 28.6946 52.1097 28.227 51.5062 28.0422L48.5354 27.1288C48.1254 27.0027 48.1211 26.4232 48.5299 26.2916L51.4855 25.3347C52.0858 25.1401 52.5544 24.665 52.7393 24.0626L53.6516 21.092C53.7778 20.681 54.3574 20.6766 54.49 21.0855L55.4469 24.0419C55.6416 24.6421 56.1157 25.1097 56.7192 25.2956L59.69 26.2079C60.0999 26.334 60.1043 26.9135 59.6955 27.0462L56.7399 28.0031C56.1396 28.1966 55.6709 28.6717 55.4861 29.2752L54.5737 32.2447C54.4476 32.6557 53.868 32.6601 53.7354 32.2512Z" fill="currentColor"/>
</svg>
