<svg width="1em" height="1em" viewBox="0 0 40 40" fill="none" xmlns="http://www.w3.org/2000/svg">
<circle cx="20" cy="20" r="20" fill="transparent"/>
<g clip-path="url(#clip0_3765_46112)">
<path d="M24.4721 18.1381L25.1388 17.4714C25.2025 17.4099 25.2533 17.3363 25.2882 17.255C25.3231 17.1737 25.3415 17.0862 25.3423 16.9977C25.3431 16.9091 25.3262 16.8213 25.2927 16.7394C25.2592 16.6575 25.2097 16.5831 25.1471 16.5205C25.0845 16.4579 25.01 16.4084 24.9281 16.3748C24.8462 16.3413 24.7584 16.3245 24.6699 16.3252C24.5813 16.326 24.4939 16.3444 24.4125 16.3793C24.3312 16.4143 24.2576 16.465 24.1961 16.5287L23.5295 17.1954C23.4676 17.2574 23.394 17.3065 23.3131 17.3401C23.2322 17.3736 23.1454 17.3909 23.0578 17.3909C22.9702 17.3909 22.8834 17.3736 22.8025 17.3401C22.7216 17.3065 22.6481 17.2574 22.5861 17.1954C22.2052 16.8318 21.6988 16.6289 21.1721 16.6289C20.6455 16.6289 20.1391 16.8318 19.7581 17.1954C19.6331 17.3204 19.4636 17.3906 19.2868 17.3906C19.11 17.3906 18.9405 17.3204 18.8155 17.1954C18.4344 16.8317 17.9279 16.6288 17.4011 16.6288C16.8744 16.6288 16.3679 16.8317 15.9868 17.1954L15.3201 17.8621C15.1951 17.9871 15.1249 18.1568 15.125 18.3336C15.1251 18.5105 15.1954 18.68 15.3205 18.8051C15.4456 18.9301 15.6152 19.0003 15.792 19.0002C15.9689 19.0001 16.1385 18.9298 16.2635 18.8047L16.9301 18.1381C17.0571 18.0169 17.2259 17.9492 17.4015 17.9492C17.577 17.9492 17.7458 18.0169 17.8728 18.1381C18.2479 18.513 18.7565 18.7236 19.2868 18.7236C19.8171 18.7236 20.3257 18.513 20.7008 18.1381C20.8278 18.0169 20.9966 17.9492 21.1721 17.9492C21.3477 17.9492 21.5165 18.0169 21.6435 18.1381C21.8292 18.3238 22.0497 18.4712 22.2924 18.5717C22.535 18.6722 22.7951 18.724 23.0578 18.724C23.3205 18.724 23.5806 18.6722 23.8232 18.5717C24.0659 18.4712 24.2864 18.3238 24.4721 18.1381Z" fill="currentColor"/>
<path d="M19.7581 21.1954C19.6331 21.3204 19.4636 21.3906 19.2868 21.3906C19.11 21.3906 18.9405 21.3204 18.8155 21.1954C18.4344 20.8318 17.9279 20.6289 17.4011 20.6289C16.8744 20.6289 16.3679 20.8318 15.9868 21.1954L15.3201 21.8621C15.1951 21.9872 15.1249 22.1568 15.125 22.3337C15.1251 22.5105 15.1954 22.6801 15.3205 22.8051C15.4456 22.9301 15.6152 23.0003 15.792 23.0002C15.9689 23.0002 16.1385 22.9299 16.2635 22.8048L16.9301 22.1381C17.0571 22.0169 17.2259 21.9493 17.4015 21.9493C17.577 21.9493 17.7458 22.0169 17.8728 22.1381C18.2479 22.5131 18.7565 22.7237 19.2868 22.7237C19.8171 22.7237 20.3257 22.5131 20.7008 22.1381C20.8222 22.0124 20.8894 21.844 20.8879 21.6692C20.8864 21.4944 20.8163 21.3272 20.6927 21.2036C20.5691 21.08 20.4019 21.0099 20.2271 21.0083C20.0523 21.0068 19.8839 21.074 19.7581 21.1954Z" fill="currentColor"/>
<path d="M28 13.3333C28 12.9797 27.8595 12.6406 27.6095 12.3905C27.3594 12.1405 27.0203 12 26.6667 12H13.3333C12.9797 12 12.6406 12.1405 12.3905 12.3905C12.1405 12.6406 12 12.9797 12 13.3333V26.6667C12 27.0203 12.1405 27.3594 12.3905 27.6095C12.6406 27.8595 12.9797 28 13.3333 28H22.6667C22.8435 28 23.013 27.9297 23.138 27.8047L27.8047 23.138C27.9297 23.013 28 22.8435 28 22.6667V13.3333ZM13.3333 13.6667C13.3333 13.5783 13.3685 13.4935 13.431 13.431C13.4935 13.3685 13.5783 13.3333 13.6667 13.3333H26.3333C26.4217 13.3333 26.5065 13.3685 26.569 13.431C26.6315 13.4935 26.6667 13.5783 26.6667 13.6667V22C26.6667 22.0884 26.6315 22.1732 26.569 22.2357C26.5065 22.2982 26.4217 22.3333 26.3333 22.3333H23.6667C23.313 22.3333 22.9739 22.4738 22.7239 22.7239C22.4738 22.9739 22.3333 23.313 22.3333 23.6667V26.3333C22.3333 26.4217 22.2982 26.5065 22.2357 26.569C22.1732 26.6315 22.0884 26.6667 22 26.6667H13.6667C13.5783 26.6667 13.4935 26.6315 13.431 26.569C13.3685 26.5065 13.3333 26.4217 13.3333 26.3333V13.6667Z" fill="currentColor"/>
</g>
<defs>
<clipPath id="clip0_3765_46112">
<rect width="16" height="16" fill="currentColor" transform="translate(12 12)"/>
</clipPath>
</defs>
</svg>
