<svg width="1em" height="1em" viewBox="0 0 40 40" fill="none" xmlns="http://www.w3.org/2000/svg">
<circle cx="20" cy="20" r="20" fill="transparent"/>
<path d="M16.8002 18.4002C17.6839 18.4002 18.4002 17.6839 18.4002 16.8002C18.4002 15.9165 17.6839 15.2002 16.8002 15.2002C15.9165 15.2002 15.2002 15.9165 15.2002 16.8002C15.2002 17.6839 15.9165 18.4002 16.8002 18.4002Z" fill="currentColor"/>
<path d="M22.7338 18.8234C22.664 18.6951 22.5587 18.5877 22.4295 18.513C22.3002 18.4383 22.152 18.3991 22.0011 18.3999C21.8503 18.4032 21.7034 18.4471 21.5772 18.5266C21.4511 18.6061 21.3507 18.718 21.2877 18.8495L20.0415 21.4841C20.0275 21.514 20.0057 21.5399 19.9782 21.5594C19.9508 21.5789 19.9185 21.5912 19.8846 21.5953C19.8507 21.5994 19.8163 21.5951 19.7847 21.5827C19.753 21.5703 19.7252 21.5504 19.704 21.5247L19.0481 20.7391C18.9705 20.6458 18.8714 20.5712 18.7585 20.5211C18.6456 20.4711 18.5221 20.4469 18.3978 20.4506C18.2737 20.4549 18.1523 20.4866 18.0431 20.5433C17.9339 20.6 17.8399 20.6801 17.7683 20.7775L15.2743 24.1938C15.2316 24.2513 15.2063 24.319 15.2012 24.3895C15.196 24.4599 15.2112 24.5303 15.2452 24.593C15.2791 24.6557 15.3303 24.7082 15.3934 24.7447C15.4564 24.7812 15.5287 24.8003 15.6023 24.7999H25.2006C25.2687 24.7999 25.3357 24.7831 25.3952 24.7513C25.4547 24.7195 25.5047 24.6736 25.5405 24.6181C25.5763 24.5625 25.5967 24.4991 25.5998 24.4338C25.6029 24.3686 25.5885 24.3037 25.5581 24.2452L22.7338 18.8234Z" fill="currentColor"/>
<path d="M26.439 12H13.561C13.147 12 12.7499 12.1645 12.4572 12.4572C12.1645 12.7499 12 13.147 12 13.561V26.439C12 26.853 12.1645 27.2501 12.4572 27.5428C12.7499 27.8355 13.147 28 13.561 28H26.439C26.853 28 27.2501 27.8355 27.5428 27.5428C27.8355 27.2501 28 26.853 28 26.439V13.561C28 13.147 27.8355 12.7499 27.5428 12.4572C27.2501 12.1645 26.853 12 26.439 12V12ZM26.3259 26.3251C26.2895 26.3613 26.2465 26.39 26.199 26.4095C26.1516 26.4291 26.1008 26.4391 26.0496 26.439H13.9512C13.8477 26.439 13.7485 26.3979 13.6753 26.3247C13.6021 26.2515 13.561 26.1523 13.561 26.0488V13.9512C13.561 13.8477 13.6021 13.7485 13.6753 13.6753C13.7485 13.6021 13.8477 13.561 13.9512 13.561H26.0488C26.1523 13.561 26.2515 13.6021 26.3247 13.6753C26.3979 13.7485 26.439 13.8477 26.439 13.9512V26.0488C26.4388 26.1514 26.3981 26.2499 26.3259 26.3227V26.3251Z" fill="currentColor"/>
</svg>
