<svg width="1em" height="1em" viewBox="0 0 40 40" fill="none" xmlns="http://www.w3.org/2000/svg">
<circle cx="20" cy="20" r="20" fill="transparent"/>
<path d="M24.5712 14.2183L20.5895 10.2367C20.4301 10.0862 20.2192 10.0024 20 10.0024C19.7807 10.0024 19.5698 10.0862 19.4104 10.2367L15.4295 14.2183C15.313 14.3349 15.2337 14.4833 15.2015 14.645C15.1694 14.8066 15.1859 14.9741 15.249 15.1264C15.312 15.2786 15.4188 15.4088 15.5558 15.5003C15.6928 15.5919 15.8539 15.6408 16.0187 15.6408H18.542C18.5973 15.6408 18.6503 15.6628 18.6893 15.7018C18.7284 15.7409 18.7504 15.7939 18.7504 15.8492V28.7433C18.7504 29.0748 18.8821 29.3928 19.1165 29.6272C19.3509 29.8616 19.6688 29.9933 20.0004 29.9933C20.3319 29.9933 20.6498 29.8616 20.8843 29.6272C21.1187 29.3928 21.2504 29.0748 21.2504 28.7433V15.8492C21.2503 15.8218 21.2556 15.7946 21.266 15.7693C21.2764 15.744 21.2918 15.721 21.3111 15.7016C21.3305 15.6822 21.3535 15.6669 21.3788 15.6565C21.4042 15.646 21.4313 15.6407 21.4587 15.6408H23.982C24.1468 15.6408 24.3079 15.5919 24.4449 15.5003C24.5819 15.4088 24.6887 15.2786 24.7518 15.1264C24.8148 14.9741 24.8313 14.8066 24.7992 14.645C24.767 14.4833 24.6877 14.3349 24.5712 14.2183Z" fill="currentColor"/>
</svg>
