<svg width="1em" height="1em" viewBox="0 0 40 40" fill="none" xmlns="http://www.w3.org/2000/svg">
<circle cx="20" cy="20" r="20" fill="transparent"/>
<path fill-rule="evenodd" clip-rule="evenodd" d="M19.9997 10.2085C20.8051 10.2085 21.458 10.8614 21.458 11.6668V18.5418H28.333C29.1384 18.5418 29.7913 19.1947 29.7913 20.0002C29.7913 20.8056 29.1384 21.4585 28.333 21.4585H21.458V28.3335C21.458 29.1389 20.8051 29.7918 19.9997 29.7918C19.1943 29.7918 18.5413 29.1389 18.5413 28.3335V21.4585H11.6663C10.8609 21.4585 10.208 20.8056 10.208 20.0002C10.208 19.1947 10.8609 18.5418 11.6663 18.5418H18.5413V11.6668C18.5413 10.8614 19.1943 10.2085 19.9997 10.2085Z" fill="currentColor"/>
</svg>
