<svg width="1em" height="1em" viewBox="0 0 16 16" fill="none" xmlns="http://www.w3.org/2000/svg">
<path d="M12.4721 6.13805L13.1388 5.47139C13.2025 5.40989 13.2533 5.33633 13.2882 5.25499C13.3231 5.17365 13.3415 5.08617 13.3423 4.99766C13.3431 4.90914 13.3262 4.82135 13.2927 4.73942C13.2592 4.65749 13.2097 4.58305 13.1471 4.52046C13.0845 4.45786 13.01 4.40836 12.9281 4.37484C12.8462 4.34132 12.7584 4.32445 12.6699 4.32522C12.5813 4.32599 12.4939 4.34438 12.4125 4.37932C12.3312 4.41426 12.2576 4.46505 12.1961 4.52872L11.5295 5.19539C11.4676 5.25737 11.394 5.30654 11.3131 5.34009C11.2322 5.37364 11.1454 5.39091 11.0578 5.39091C10.9702 5.39091 10.8834 5.37364 10.8025 5.34009C10.7216 5.30654 10.6481 5.25737 10.5861 5.19539C10.2052 4.83178 9.69877 4.62891 9.17214 4.62891C8.6455 4.62891 8.1391 4.83178 7.75813 5.19539C7.63312 5.32037 7.46358 5.39058 7.2868 5.39058C7.11003 5.39058 6.94049 5.32037 6.81547 5.19539C6.43439 4.83174 5.92788 4.62885 5.40114 4.62885C4.87439 4.62885 4.36788 4.83174 3.9868 5.19539L3.32014 5.86205C3.19513 5.98715 3.12494 6.15678 3.125 6.33362C3.12506 6.51047 3.19537 6.68005 3.32047 6.80505C3.44556 6.93006 3.61519 7.00025 3.79204 7.00019C3.96888 7.00013 4.13846 6.92981 4.26347 6.80472L4.93014 6.13805C5.05712 6.01685 5.22592 5.94923 5.40147 5.94923C5.57701 5.94923 5.74581 6.01685 5.8728 6.13805C6.24786 6.513 6.75647 6.72363 7.2868 6.72363C7.81713 6.72363 8.32575 6.513 8.7008 6.13805C8.82779 6.01685 8.99659 5.94923 9.17214 5.94923C9.34768 5.94923 9.51648 6.01685 9.64347 6.13805C9.82919 6.32381 10.0497 6.47116 10.2924 6.57169C10.535 6.67222 10.7951 6.72396 11.0578 6.72396C11.3205 6.72396 11.5806 6.67222 11.8232 6.57169C12.0659 6.47116 12.2864 6.32381 12.4721 6.13805Z" fill="currentColor"/>
<path d="M7.75813 9.19545C7.63312 9.32043 7.46358 9.39064 7.2868 9.39064C7.11002 9.39064 6.94049 9.32043 6.81547 9.19545C6.43439 8.8318 5.92788 8.62891 5.40113 8.62891C4.87439 8.62891 4.36788 8.8318 3.9868 9.19545L3.32014 9.86211C3.19513 9.98721 3.12494 10.1568 3.125 10.3337C3.12506 10.5105 3.19537 10.6801 3.32047 10.8051C3.44556 10.9301 3.61519 11.0003 3.79204 11.0002C3.96888 11.0002 4.13846 10.9299 4.26347 10.8048L4.93013 10.1381C5.05712 10.0169 5.22592 9.94929 5.40147 9.94929C5.57701 9.94929 5.74581 10.0169 5.8728 10.1381C6.24786 10.5131 6.75647 10.7237 7.2868 10.7237C7.81713 10.7237 8.32575 10.5131 8.7008 10.1381C8.82224 10.0124 8.88944 9.84398 8.88792 9.66918C8.8864 9.49438 8.81629 9.32717 8.69268 9.20357C8.56907 9.07996 8.40187 9.00985 8.22707 9.00833C8.05227 9.00681 7.88387 9.07401 7.75813 9.19545Z" fill="currentColor"/>
<path d="M16 1.33333C16 0.979711 15.8595 0.640573 15.6095 0.390524C15.3594 0.140476 15.0203 0 14.6667 0L1.33333 0C0.979711 0 0.640573 0.140476 0.390524 0.390524C0.140476 0.640573 0 0.979711 0 1.33333L0 14.6667C0 15.0203 0.140476 15.3594 0.390524 15.6095C0.640573 15.8595 0.979711 16 1.33333 16H10.6667C10.8435 16 11.013 15.9297 11.138 15.8047L15.8047 11.138C15.9297 11.013 16 10.8435 16 10.6667V1.33333ZM1.33333 1.66667C1.33333 1.57826 1.36845 1.49348 1.43096 1.43096C1.49348 1.36845 1.57826 1.33333 1.66667 1.33333H14.3333C14.4217 1.33333 14.5065 1.36845 14.569 1.43096C14.6315 1.49348 14.6667 1.57826 14.6667 1.66667V10C14.6667 10.0884 14.6315 10.1732 14.569 10.2357C14.5065 10.2982 14.4217 10.3333 14.3333 10.3333H11.6667C11.313 10.3333 10.9739 10.4738 10.7239 10.7239C10.4738 10.9739 10.3333 11.313 10.3333 11.6667V14.3333C10.3333 14.4217 10.2982 14.5065 10.2357 14.569C10.1732 14.6315 10.0884 14.6667 10 14.6667H1.66667C1.57826 14.6667 1.49348 14.6315 1.43096 14.569C1.36845 14.5065 1.33333 14.4217 1.33333 14.3333V1.66667Z" fill="currentColor"/>
</svg>
