<svg width="1em" height="1em" viewBox="0 0 40 40" fill="none" xmlns="http://www.w3.org/2000/svg">
<circle cx="20" cy="20" r="20" fill="transparent"/>
<g clip-path="url(#clip0_3761_44540)">
<path d="M27.4814 13.3718C27.2491 13.2441 26.9755 13.2138 26.7208 13.2877C26.4662 13.3615 26.2513 13.5335 26.1234 13.7658L20.4614 24.0532L16.3074 19.5238C16.2194 19.4244 16.1125 19.3435 15.9928 19.2858C15.8732 19.2282 15.7433 19.1949 15.6107 19.188C15.4781 19.1811 15.3454 19.2006 15.2205 19.2455C15.0955 19.2904 14.9807 19.3598 14.8828 19.4495C14.7849 19.5393 14.7059 19.6476 14.6503 19.7682C14.5948 19.8888 14.5638 20.0193 14.5592 20.152C14.5546 20.2847 14.5765 20.417 14.6236 20.5412C14.6706 20.6653 14.742 20.7789 14.8334 20.8752L19.9287 26.4318C20.0374 26.5465 20.1713 26.6341 20.3198 26.6877C20.4684 26.7413 20.6274 26.7594 20.7842 26.7406C20.941 26.7217 21.0912 26.6664 21.2228 26.5791C21.3544 26.4918 21.4637 26.375 21.5421 26.2378L27.8754 14.7332C27.9392 14.618 27.9796 14.4913 27.9943 14.3605C28.0091 14.2296 27.9978 14.0972 27.9612 13.9707C27.9246 13.8442 27.8634 13.7262 27.781 13.6234C27.6987 13.5206 27.5969 13.4352 27.4814 13.3718Z" fill="currentColor"/>
<path d="M13.7371 21.7499C13.5578 21.5544 13.3082 21.4382 13.0432 21.4267C12.7782 21.4153 12.5195 21.5096 12.3241 21.6889C12.1286 21.8681 12.0124 22.1177 12.0009 22.3827C11.9895 22.6477 12.0838 22.9064 12.2631 23.1019L15.3171 26.4352C15.4979 26.6279 15.747 26.7421 16.011 26.7534C16.2751 26.7648 16.533 26.6723 16.7297 26.4959C16.9252 26.3166 17.0414 26.0671 17.0529 25.8022C17.0644 25.5373 16.9702 25.2787 16.7911 25.0832L13.7371 21.7499Z" fill="currentColor"/>
<path d="M18.8664 20.6485C18.9763 20.719 19.0998 20.7657 19.2289 20.7857C19.358 20.8057 19.4898 20.7986 19.6159 20.7647C19.7421 20.7308 19.8598 20.6709 19.9614 20.5889C20.0631 20.5069 20.1465 20.4046 20.2064 20.2885L23.2624 14.7331C23.3304 14.6179 23.3745 14.4901 23.3922 14.3575C23.41 14.2248 23.4009 14.09 23.3655 13.9609C23.3302 13.8318 23.2693 13.7112 23.1864 13.6061C23.1036 13.501 23.0005 13.4136 22.8833 13.349C22.766 13.2845 22.637 13.2442 22.5039 13.2304C22.3708 13.2166 22.2363 13.2297 22.1083 13.2689C21.9803 13.3081 21.8615 13.3725 21.759 13.4585C21.6564 13.5444 21.5721 13.65 21.511 13.7691L18.4517 19.3238C18.3875 19.437 18.3473 19.5622 18.3335 19.6917C18.3197 19.8211 18.3326 19.9519 18.3715 20.0761C18.4104 20.2004 18.4744 20.3153 18.5595 20.4137C18.6446 20.5122 18.7491 20.5921 18.8664 20.6485Z" fill="currentColor"/>
</g>
<defs>
<clipPath id="clip0_3761_44540">
<rect width="16" height="16" fill="currentColor" transform="translate(12 12)"/>
</clipPath>
</defs>
</svg>
