<svg width="16" height="16" viewBox="0 0 16 16" fill="none" xmlns="http://www.w3.org/2000/svg">
    <path
        d="M9.27736 8.09829C9.26443 8.08539 9.25417 8.07006 9.24717 8.05319C9.24017 8.03632 9.23656 8.01823 9.23656 7.99996C9.23656 7.98169 9.24017 7.9636 9.24717 7.94673C9.25417 7.92986 9.26443 7.91453 9.27736 7.90163L14.4231 2.75628C14.5793 2.59981 14.667 2.38768 14.6668 2.16655C14.6667 1.94542 14.5787 1.73341 14.4222 1.57716C14.2658 1.42091 14.0536 1.33322 13.8325 1.33337C13.6114 1.33353 13.3994 1.42152 13.2431 1.57799L8.09801 6.72112C8.08511 6.73406 8.06979 6.74432 8.05292 6.75132C8.03604 6.75832 8.01796 6.76192 7.99969 6.76192C7.98142 6.76192 7.96333 6.75832 7.94646 6.75132C7.92959 6.74432 7.91426 6.73406 7.90136 6.72112L2.75623 1.57799C2.67886 1.50059 2.58701 1.43918 2.48592 1.39728C2.38482 1.35537 2.27646 1.33379 2.16703 1.33377C1.94601 1.33371 1.73403 1.42147 1.57771 1.57772C1.4214 1.73397 1.33355 1.94592 1.3335 2.16694C1.33344 2.38796 1.42119 2.59996 1.57744 2.75628L6.72201 7.90163C6.73495 7.91453 6.74521 7.92986 6.75221 7.94673C6.75921 7.9636 6.76282 7.98169 6.76282 7.99996C6.76282 8.01823 6.75921 8.03632 6.75221 8.05319C6.74521 8.07006 6.73495 8.08539 6.72201 8.09829L1.57744 13.2442C1.50007 13.3216 1.43871 13.4135 1.39685 13.5146C1.355 13.6157 1.33347 13.7241 1.3335 13.8335C1.33355 14.0546 1.4214 14.2665 1.57771 14.4228C1.65511 14.5001 1.74699 14.5615 1.84811 14.6033C1.94922 14.6452 2.05759 14.6667 2.16703 14.6667C2.38804 14.6667 2.59998 14.5788 2.75623 14.4225L7.90136 9.27658C7.91426 9.26364 7.92959 9.25338 7.94646 9.24638C7.96333 9.23938 7.98142 9.23577 7.99969 9.23577C8.01796 9.23577 8.03604 9.23938 8.05292 9.24638C8.06979 9.25338 8.08511 9.26364 8.09801 9.27658L13.2431 14.4225C13.3994 14.5788 13.6113 14.6667 13.8323 14.6667C14.0534 14.6668 14.2653 14.579 14.4217 14.4228C14.578 14.2665 14.6658 14.0546 14.6659 13.8335C14.6659 13.6125 14.5782 13.4005 14.4219 13.2442L9.27736 8.09829Z"
        fill="white" />
</svg>