<svg width="238" height="33" viewBox="0 0 238 33" fill="none" xmlns="http://www.w3.org/2000/svg">
<rect x="0.305664" y="13.4346" width="9.05791" height="6.88401" fill="white"/>
<path d="M9.86328 12.5471C9.86328 11.1123 11.0264 9.94922 12.4612 9.94922H31.6892V23.4419H12.4612C11.0264 23.4419 9.86328 22.2787 9.86328 20.844V12.5471Z" fill="black" stroke="white"/>
<mask id="path-3-inside-1_16382_58533" fill="white">
<path d="M31.3086 11.2607H39.592C40.0198 11.2607 40.3665 11.6075 40.3665 12.0352V21.3557C40.3665 21.7835 40.0198 22.1302 39.592 22.1302H31.3086V11.2607Z"/>
</mask>
<path d="M31.3086 11.2607H39.592C40.0198 11.2607 40.3665 11.6075 40.3665 12.0352V21.3557C40.3665 21.7835 40.0198 22.1302 39.592 22.1302H31.3086V11.2607Z" fill="black" stroke="white" stroke-width="2" mask="url(#path-3-inside-1_16382_58533)"/>
<mask id="path-4-inside-2_16382_58533" fill="white">
<path fill-rule="evenodd" clip-rule="evenodd" d="M156.536 1.89069C156.536 1.46296 156.19 1.11621 155.762 1.11621H55.8624C55.4346 1.11621 55.0879 1.46295 55.0879 1.89069V32.2256C55.0879 32.6533 55.4346 33 55.8624 33H155.762C156.19 33 156.536 32.6533 156.536 32.2256V1.89069ZM144.218 24.3043C148.22 24.3043 151.464 21.06 151.464 17.058C151.464 13.056 148.22 9.81168 144.218 9.81168C140.215 9.81168 136.971 13.056 136.971 17.058C136.971 21.06 140.215 24.3043 144.218 24.3043Z"/>
</mask>
<path fill-rule="evenodd" clip-rule="evenodd" d="M156.536 1.89069C156.536 1.46296 156.19 1.11621 155.762 1.11621H55.8624C55.4346 1.11621 55.0879 1.46295 55.0879 1.89069V32.2256C55.0879 32.6533 55.4346 33 55.8624 33H155.762C156.19 33 156.536 32.6533 156.536 32.2256V1.89069ZM144.218 24.3043C148.22 24.3043 151.464 21.06 151.464 17.058C151.464 13.056 148.22 9.81168 144.218 9.81168C140.215 9.81168 136.971 13.056 136.971 17.058C136.971 21.06 140.215 24.3043 144.218 24.3043Z" fill="black"/>
<path d="M55.8624 2.11621H155.762V0.116211H55.8624V2.11621ZM56.0879 32.2256V1.89069H54.0879V32.2256H56.0879ZM155.762 32H55.8624V34H155.762V32ZM155.536 1.89069V32.2256H157.536V1.89069H155.536ZM150.464 17.058C150.464 20.5078 147.667 23.3043 144.218 23.3043V25.3043C148.772 25.3043 152.464 21.6123 152.464 17.058H150.464ZM144.218 10.8117C147.667 10.8117 150.464 13.6083 150.464 17.058H152.464C152.464 12.5037 148.772 8.81168 144.218 8.81168V10.8117ZM137.971 17.058C137.971 13.6083 140.768 10.8117 144.218 10.8117V8.81168C139.663 8.81168 135.971 12.5037 135.971 17.058H137.971ZM144.218 23.3043C140.768 23.3043 137.971 20.5078 137.971 17.058H135.971C135.971 21.6123 139.663 25.3043 144.218 25.3043V23.3043ZM155.762 34C156.742 34 157.536 33.2056 157.536 32.2256H155.536C155.536 32.101 155.637 32 155.762 32V34ZM54.0879 32.2256C54.0879 33.2056 54.8823 34 55.8624 34V32C55.9869 32 56.0879 32.101 56.0879 32.2256H54.0879ZM155.762 2.11621C155.637 2.11621 155.536 2.01524 155.536 1.89069H157.536C157.536 0.910673 156.742 0.116211 155.762 0.116211V2.11621ZM55.8624 0.116211C54.8824 0.116211 54.0879 0.910666 54.0879 1.89069H56.0879C56.0879 2.01524 55.9869 2.11621 55.8624 2.11621V0.116211Z" fill="white" mask="url(#path-4-inside-2_16382_58533)"/>
<rect x="109.797" y="0.0292969" width="11.9564" height="1.08695" fill="white"/>
<rect x="67.7686" y="0.0292969" width="12.3188" height="1.08695" fill="white"/>
<path fill-rule="evenodd" clip-rule="evenodd" d="M144.58 1.11621C135.775 1.11621 128.638 8.25365 128.638 17.0581C128.638 25.8626 135.775 33 144.58 33H236.92C237.348 33 237.695 32.6533 237.695 32.2256V1.89069C237.695 1.46296 237.348 1.11621 236.92 1.11621H144.58ZM144.217 25.7531C149.22 25.7531 153.275 21.7789 153.275 16.8764C153.275 11.9739 149.22 7.99964 144.217 7.99964C139.215 7.99964 135.159 11.9739 135.159 16.8764C135.159 21.7789 139.215 25.7531 144.217 25.7531Z" fill="white"/>
<rect x="72.3984" y="10.0752" width="44.7895" height="13.9926" fill="#1D1D1D" stroke="white" stroke-width="0.5"/>
<g clip-path="url(#clip0_16382_58533)">
<path d="M99.9478 16.7658C99.9478 19.5468 97.6934 21.8012 94.9125 21.8012C92.1315 21.8012 89.877 19.5468 89.877 16.7658C89.877 13.9849 92.1315 11.7305 94.9125 11.7305C97.6934 11.7305 99.9478 13.9848 99.9478 16.7658Z" stroke="white" stroke-width="0.5"/>
<path fill-rule="evenodd" clip-rule="evenodd" d="M97.0603 15.5334L96.9427 15.17C96.9188 15.0961 96.8604 15.0385 96.7862 15.0158L96.421 14.9035C96.3704 14.8881 96.37 14.8168 96.4202 14.8005L96.7838 14.6828C96.8576 14.6589 96.9151 14.6006 96.9379 14.5264L97.0501 14.1612C97.0655 14.1107 97.1368 14.1102 97.1531 14.1605L97.2708 14.5239C97.2947 14.5977 97.353 14.6552 97.4272 14.6781L97.7925 14.7902C97.843 14.8058 97.8436 14.877 97.7933 14.8933L97.4297 15.0109C97.3559 15.0348 97.2984 15.0933 97.2755 15.1675L97.1634 15.5326C97.1479 15.5832 97.0766 15.5837 97.0603 15.5334Z" fill="white"/>
<path fill-rule="evenodd" clip-rule="evenodd" d="M90.7012 16.6974C90.7573 16.2305 90.975 15.7926 91.3238 15.4198C91.6709 15.0506 92.2131 14.766 92.8147 14.7283C93.1116 14.7085 93.4131 14.7415 93.6902 14.8183C93.9661 14.8949 94.2246 15.0064 94.4576 15.1377C94.574 15.2037 94.6829 15.2758 94.7914 15.3486L95.0805 15.5675L95.5318 15.9236C95.8248 16.1569 96.1044 16.3726 96.3627 16.5508C96.6236 16.7293 96.8458 16.8596 97.058 16.936C97.2683 17.0193 97.5339 17.0407 97.8851 16.9524C98.0594 16.9122 98.2413 16.8388 98.4353 16.7593C98.5448 16.7131 98.6567 16.6618 98.773 16.6085C98.8617 16.5679 98.9529 16.5261 99.0476 16.4844C99.0352 16.6244 99.0144 16.7616 98.9857 16.8966C98.9213 17.1993 98.8171 17.4904 98.6784 17.7745C98.4729 18.1805 98.187 18.5765 97.7703 18.8972C97.3615 19.2205 96.8 19.4458 96.2284 19.4797C95.6566 19.5184 95.1126 19.3924 94.6498 19.2029C94.1852 19.0106 93.7838 18.7579 93.428 18.4791C93.3297 18.402 93.277 18.3583 93.2044 18.2969L93.0018 18.1194C92.9332 18.0657 92.8657 18.0067 92.7983 17.9479C92.7316 17.8897 92.6233 17.7966 92.5561 17.744C92.3006 17.5303 92.0465 17.3178 91.7692 17.1322C91.4545 16.9199 91.0901 16.7107 90.7012 16.6974ZM96.1674 18.5969C96.4457 18.6559 96.7514 18.675 97.0558 18.6368C97.3414 18.6014 97.6202 18.506 97.8602 18.3746C97.7716 18.4665 97.6749 18.5538 97.5688 18.6354C97.2122 18.9174 96.7117 19.1201 96.2089 19.1499C95.6991 19.1844 95.2035 19.0725 94.7756 18.8974C94.3441 18.7188 93.9685 18.483 93.6318 18.2191C93.5383 18.1458 93.4888 18.1048 93.4199 18.0465L93.2054 17.8593C93.1453 17.8123 93.0848 17.7596 93.0166 17.7C92.9532 17.6446 92.8786 17.5794 92.8059 17.5222L92.7646 17.4877C92.5123 17.2766 92.2457 17.0537 91.9534 16.858C91.7971 16.7526 91.6303 16.6511 91.4387 16.5602L91.4355 16.5588C91.3514 16.52 91.2731 16.4866 91.2 16.465C91.4259 16.3732 91.6418 16.3058 91.8462 16.2678C92.1981 16.202 92.4849 16.242 92.709 16.3394C92.9347 16.4325 93.1397 16.5817 93.3605 16.7769C93.4153 16.8256 93.4706 16.8787 93.5254 16.9316L93.7071 17.114C93.861 17.2669 94.0235 17.4175 94.1967 17.5617C94.5417 17.8504 94.932 18.1231 95.3985 18.3401C95.6325 18.447 95.8875 18.5395 96.1674 18.5969Z" fill="white"/>
<path fill-rule="evenodd" clip-rule="evenodd" d="M92.551 19.1047C92.551 19.2428 92.439 19.3549 92.3008 19.3549C92.1627 19.3549 92.0508 19.2428 92.0508 19.1047C92.0508 18.9665 92.1627 18.8545 92.3008 18.8545C92.439 18.8545 92.551 18.9665 92.551 19.1047Z" fill="white"/>
</g>
<defs>
<clipPath id="clip0_16382_58533">
<rect width="10.5709" height="10.5709" fill="white" transform="translate(89.627 11.4805)"/>
</clipPath>
</defs>
</svg>
