<svg width="218" height="33" viewBox="0 0 218 33" fill="none" xmlns="http://www.w3.org/2000/svg">
<rect x="0.305664" y="13.4346" width="9.05791" height="6.88401" fill="white"/>
<path d="M9.86328 12.5471C9.86328 11.1123 11.0264 9.94922 12.4612 9.94922H31.6892V23.4419H12.4612C11.0264 23.4419 9.86328 22.2787 9.86328 20.844V12.5471Z" fill="black" stroke="white"/>
<mask id="path-3-inside-1_17083_106911" fill="white">
<path d="M31.3086 11.2607H39.592C40.0198 11.2607 40.3665 11.6075 40.3665 12.0352V21.3557C40.3665 21.7835 40.0198 22.1302 39.592 22.1302H31.3086V11.2607Z"/>
</mask>
<path d="M31.3086 11.2607H39.592C40.0198 11.2607 40.3665 11.6075 40.3665 12.0352V21.3557C40.3665 21.7835 40.0198 22.1302 39.592 22.1302H31.3086V11.2607Z" fill="black" stroke="white" stroke-width="2" mask="url(#path-3-inside-1_17083_106911)"/>
<mask id="path-4-inside-2_17083_106911" fill="white">
<path fill-rule="evenodd" clip-rule="evenodd" d="M136.536 1.89069C136.536 1.46296 136.19 1.11621 135.762 1.11621H35.8624C35.4346 1.11621 35.0879 1.46295 35.0879 1.89069V32.2256C35.0879 32.6533 35.4346 33 35.8624 33H135.762C136.19 33 136.536 32.6533 136.536 32.2256V1.89069ZM124.218 24.3043C128.22 24.3043 131.464 21.06 131.464 17.058C131.464 13.056 128.22 9.81168 124.218 9.81168C120.215 9.81168 116.971 13.056 116.971 17.058C116.971 21.06 120.215 24.3043 124.218 24.3043Z"/>
</mask>
<path fill-rule="evenodd" clip-rule="evenodd" d="M136.536 1.89069C136.536 1.46296 136.19 1.11621 135.762 1.11621H35.8624C35.4346 1.11621 35.0879 1.46295 35.0879 1.89069V32.2256C35.0879 32.6533 35.4346 33 35.8624 33H135.762C136.19 33 136.536 32.6533 136.536 32.2256V1.89069ZM124.218 24.3043C128.22 24.3043 131.464 21.06 131.464 17.058C131.464 13.056 128.22 9.81168 124.218 9.81168C120.215 9.81168 116.971 13.056 116.971 17.058C116.971 21.06 120.215 24.3043 124.218 24.3043Z" fill="black"/>
<path d="M35.8624 2.11621H135.762V0.116211H35.8624V2.11621ZM36.0879 32.2256V1.89069H34.0879V32.2256H36.0879ZM135.762 32H35.8624V34H135.762V32ZM135.536 1.89069V32.2256H137.536V1.89069H135.536ZM130.464 17.058C130.464 20.5078 127.667 23.3043 124.218 23.3043V25.3043C128.772 25.3043 132.464 21.6123 132.464 17.058H130.464ZM124.218 10.8117C127.667 10.8117 130.464 13.6083 130.464 17.058H132.464C132.464 12.5037 128.772 8.81168 124.218 8.81168V10.8117ZM117.971 17.058C117.971 13.6083 120.768 10.8117 124.218 10.8117V8.81168C119.663 8.81168 115.971 12.5037 115.971 17.058H117.971ZM124.218 23.3043C120.768 23.3043 117.971 20.5078 117.971 17.058H115.971C115.971 21.6123 119.663 25.3043 124.218 25.3043V23.3043ZM135.762 34C136.742 34 137.536 33.2056 137.536 32.2256H135.536C135.536 32.101 135.637 32 135.762 32V34ZM34.0879 32.2256C34.0879 33.2056 34.8823 34 35.8624 34V32C35.9869 32 36.0879 32.101 36.0879 32.2256H34.0879ZM135.762 2.11621C135.637 2.11621 135.536 2.01524 135.536 1.89069H137.536C137.536 0.910673 136.742 0.116211 135.762 0.116211V2.11621ZM35.8624 0.116211C34.8824 0.116211 34.0879 0.910666 34.0879 1.89069H36.0879C36.0879 2.01524 35.9869 2.11621 35.8624 2.11621V0.116211Z" fill="white" mask="url(#path-4-inside-2_17083_106911)"/>
<rect x="89.7969" y="0.0292969" width="11.9564" height="1.08695" fill="white"/>
<rect x="47.7686" y="0.0292969" width="12.3188" height="1.08695" fill="white"/>
<path fill-rule="evenodd" clip-rule="evenodd" d="M124.58 1.11621C115.775 1.11621 108.638 8.25365 108.638 17.0581C108.638 25.8626 115.775 33 124.58 33H216.92C217.348 33 217.695 32.6533 217.695 32.2256V1.89069C217.695 1.46296 217.348 1.11621 216.92 1.11621H124.58ZM124.217 25.7531C129.22 25.7531 133.275 21.7789 133.275 16.8764C133.275 11.9739 129.22 7.99964 124.217 7.99964C119.215 7.99964 115.159 11.9739 115.159 16.8764C115.159 21.7789 119.215 25.7531 124.217 25.7531Z" fill="white"/>
<rect x="52.3984" y="10.0752" width="44.7895" height="13.9926" fill="#1D1D1D" stroke="white" stroke-width="0.5"/>
<g clip-path="url(#clip0_17083_106911)">
<path d="M79.9478 16.7658C79.9478 19.5468 77.6934 21.8012 74.9125 21.8012C72.1315 21.8012 69.877 19.5468 69.877 16.7658C69.877 13.9849 72.1315 11.7305 74.9125 11.7305C77.6934 11.7305 79.9478 13.9848 79.9478 16.7658Z" stroke="white" stroke-width="0.5"/>
<path fill-rule="evenodd" clip-rule="evenodd" d="M77.0603 15.5334L76.9427 15.17C76.9188 15.0961 76.8604 15.0385 76.7862 15.0158L76.421 14.9035C76.3704 14.8881 76.37 14.8168 76.4202 14.8005L76.7838 14.6828C76.8576 14.6589 76.9151 14.6006 76.9379 14.5264L77.0501 14.1612C77.0655 14.1107 77.1368 14.1102 77.1531 14.1605L77.2708 14.5239C77.2947 14.5977 77.353 14.6552 77.4272 14.6781L77.7925 14.7902C77.843 14.8058 77.8436 14.877 77.7933 14.8933L77.4297 15.0109C77.3559 15.0348 77.2984 15.0933 77.2755 15.1675L77.1634 15.5326C77.1479 15.5832 77.0766 15.5837 77.0603 15.5334Z" fill="white"/>
<path fill-rule="evenodd" clip-rule="evenodd" d="M70.7012 16.6974C70.7573 16.2305 70.975 15.7926 71.3238 15.4198C71.6709 15.0506 72.2131 14.766 72.8147 14.7283C73.1116 14.7085 73.4131 14.7415 73.6902 14.8183C73.9661 14.8949 74.2246 15.0064 74.4576 15.1377C74.574 15.2037 74.6829 15.2758 74.7914 15.3486L75.0805 15.5675L75.5318 15.9236C75.8248 16.1569 76.1044 16.3726 76.3627 16.5508C76.6236 16.7293 76.8458 16.8596 77.058 16.936C77.2683 17.0193 77.5339 17.0407 77.8851 16.9524C78.0594 16.9122 78.2413 16.8388 78.4353 16.7593C78.5448 16.7131 78.6567 16.6618 78.773 16.6085C78.8617 16.5679 78.9529 16.5261 79.0476 16.4844C79.0352 16.6244 79.0144 16.7616 78.9857 16.8966C78.9213 17.1993 78.8171 17.4904 78.6784 17.7745C78.4729 18.1805 78.187 18.5765 77.7703 18.8972C77.3615 19.2205 76.8 19.4458 76.2284 19.4797C75.6566 19.5184 75.1126 19.3924 74.6498 19.2029C74.1852 19.0106 73.7838 18.7579 73.428 18.4791C73.3297 18.402 73.277 18.3583 73.2044 18.2969L73.0018 18.1194C72.9332 18.0657 72.8657 18.0067 72.7983 17.9479C72.7316 17.8897 72.6233 17.7966 72.5561 17.744C72.3006 17.5303 72.0465 17.3178 71.7692 17.1322C71.4545 16.9199 71.0901 16.7107 70.7012 16.6974ZM76.1674 18.5969C76.4457 18.6559 76.7514 18.675 77.0558 18.6368C77.3414 18.6014 77.6202 18.506 77.8602 18.3746C77.7716 18.4665 77.6749 18.5538 77.5688 18.6354C77.2122 18.9174 76.7117 19.1201 76.2089 19.1499C75.6991 19.1844 75.2035 19.0725 74.7756 18.8974C74.3441 18.7188 73.9685 18.483 73.6318 18.2191C73.5383 18.1458 73.4888 18.1048 73.4199 18.0465L73.2054 17.8593C73.1453 17.8123 73.0848 17.7596 73.0166 17.7C72.9532 17.6446 72.8786 17.5794 72.8059 17.5222L72.7646 17.4877C72.5123 17.2766 72.2457 17.0537 71.9534 16.858C71.7971 16.7526 71.6303 16.6511 71.4387 16.5602L71.4355 16.5588C71.3514 16.52 71.2731 16.4866 71.2 16.465C71.4259 16.3732 71.6418 16.3058 71.8462 16.2678C72.1981 16.202 72.4849 16.242 72.709 16.3394C72.9347 16.4325 73.1397 16.5817 73.3605 16.7769C73.4153 16.8256 73.4706 16.8787 73.5254 16.9316L73.7071 17.114C73.861 17.2669 74.0235 17.4175 74.1967 17.5617C74.5417 17.8504 74.932 18.1231 75.3985 18.3401C75.6325 18.447 75.8875 18.5395 76.1674 18.5969Z" fill="white"/>
<path fill-rule="evenodd" clip-rule="evenodd" d="M72.551 19.1047C72.551 19.2428 72.439 19.3549 72.3008 19.3549C72.1627 19.3549 72.0508 19.2428 72.0508 19.1047C72.0508 18.9665 72.1627 18.8545 72.3008 18.8545C72.439 18.8545 72.551 18.9665 72.551 19.1047Z" fill="white"/>
</g>
<defs>
<clipPath id="clip0_17083_106911">
<rect width="10.5709" height="10.5709" fill="white" transform="translate(69.627 11.4805)"/>
</clipPath>
</defs>
</svg>
