<svg width="213" height="241" viewBox="0 0 213 241" fill="none" xmlns="http://www.w3.org/2000/svg">
<g clip-path="url(#clip0_21759_8512)">
<path d="M2.12723 216.051C0.89872 215.443 1.24461 213.594 2.61624 213.487L95.8515 208.943C96.0662 208.931 96.2809 208.967 96.4837 209.05L139.72 228.05C140.984 228.587 140.722 230.459 139.362 230.638L2.12723 216.051Z" fill="black" stroke="black" stroke-width="1.00189" stroke-miterlimit="10"/>
<path d="M132.66 1.76613C132.66 1.76613 138.397 230.244 138.349 230.316C138.349 230.316 121.532 227.823 121.484 227.811C113.182 224.376 52.103 186.972 52.103 118.916C52.103 66.6503 52.1507 29.4493 52.103 17.856C52.103 16.4963 52.926 15.2916 54.1784 14.7907L72.7491 7.34808C105.12 -1.28725 132.66 1.76613 132.66 1.76613Z" fill="#FFBF3D" stroke="black" stroke-width="1.24043" stroke-miterlimit="10"/>
<path d="M121.484 227.799L138.707 230.304C138.743 230.256 129.475 190.693 117.238 144.225H55.0371C67.3102 196.239 114.28 224.829 121.484 227.799Z" fill="black" stroke="black" stroke-width="1.24043" stroke-miterlimit="10"/>
<path d="M73.9896 7.00294C86.4655 3.99727 148.32 -11.7109 201.611 26.1939C202.231 26.6352 202.601 27.3389 202.625 28.1022L203.484 135.054C203.519 139.944 202.446 148.699 200.729 153.279C195.695 166.721 181.382 191.148 140.365 230.066C139.923 230.484 139.267 230.591 138.719 230.317C129.666 225.796 73.4052 184.409 71.8188 116.853C71.8188 116.853 71.8188 19.0614 71.8188 9.96089C71.8188 8.73239 72.7969 7.30112 73.9896 7.01486V7.00294Z" fill="#FFBF3D" stroke="black" stroke-width="1.24043" stroke-miterlimit="10"/>
<path d="M86.4055 22.8792C97.2235 20.9231 144.074 5.15529 191.449 33.6137C192.009 33.9477 192.296 34.6275 192.319 35.2954L195.361 138.216C195.492 142.7 194.645 147.173 192.808 151.276C188.038 161.927 175.049 183.42 140.114 215.969C139.744 216.315 139.184 216.399 138.73 216.172C131.025 212.165 85.8569 181.822 84.7953 118.5C83.8292 60.7959 84.7953 25.1215 84.7953 25.1215C84.7715 24.0361 85.3679 23.07 86.4055 22.8792Z" fill="#FFBF3D" stroke="black" stroke-width="1.24043" stroke-miterlimit="10"/>
<path d="M191.902 152.873C194.336 147.983 195.492 142.556 195.326 137.094L192.308 35.2945C192.284 34.6266 191.998 33.9467 191.437 33.6128C144.062 5.1663 93.6577 21.9241 85.9646 23.0214C101.852 20.1946 143.537 10.8317 183.47 34.7817C184.03 35.1156 184.317 35.7955 184.341 36.4634L187.346 138.143C187.346 138.143 189.338 161.616 135.093 213.81C135.093 213.81 137.944 215.706 138.743 216.123C139.22 216.374 139.768 216.302 140.162 215.933C173.081 184.242 186.475 163.751 191.89 152.897L191.902 152.873Z" fill="black" stroke="black" stroke-width="1.24043" stroke-miterlimit="10"/>
<path d="M170.898 169.622L183.732 171.292L175.776 232.598L169.514 239.778L168.632 239.516L162.573 233.743L163.253 228.519L167.045 222.15L165.113 216.675L168.644 212.071L166.02 207.241L169.169 202.613L167.332 196.506L170.898 169.622Z" fill="black" stroke="black" stroke-width="1.46705" stroke-miterlimit="10"/>
<path d="M172.031 169.659L184.877 171.329L176.921 232.647L169.765 239.553L163.718 233.78L164.398 228.568L168.19 222.187L166.246 216.724L169.789 212.108L167.153 207.278L170.302 202.65L168.477 196.543L172.031 169.659Z" fill="black" stroke="black" stroke-width="1.46705" stroke-miterlimit="10"/>
<path d="M180.798 119.79C167.57 117.906 157.444 128.688 156.168 143.513C154.892 158.339 164.827 172.52 176.17 173.499C178.448 173.689 180.655 173.403 182.718 172.699C184.936 171.948 187.012 170.708 188.872 169.062C193.882 164.648 197.341 157.325 198.092 148.69C199.368 133.864 189.839 121.066 180.798 119.79Z" fill="black" stroke="black" stroke-width="1.50283" stroke-miterlimit="10"/>
<path d="M182.408 170.681L195.051 167.342L210.973 227.718L207.86 236.818L206.93 236.913L199.058 233.812L197.71 228.684L198.832 221.265L194.931 216.9L196.482 211.234L192.176 207.727L193.357 202.193L189.326 197.184L182.408 170.681Z" fill="black" stroke="black" stroke-width="1.47898" stroke-miterlimit="10"/>
<path d="M183.481 170.276L196.124 166.948L212.059 227.324L208.004 236.508L200.144 233.419L198.784 228.278L199.905 220.871L196.005 216.494L197.555 210.84L193.262 207.322L194.442 201.8L190.399 196.778L183.481 170.276Z" fill="#FFBF3D" stroke="black" stroke-width="1.47898" stroke-miterlimit="10"/>
<path d="M183.064 118.535C170.147 118.177 163.551 131.715 164.052 147.184C164.553 162.654 173.868 174.903 184.877 174.546C195.874 174.188 203.531 161.772 203.03 146.302C202.529 130.832 191.89 118.774 183.076 118.535H183.064ZM179.199 139.778C179.14 139.778 179.08 139.766 179.02 139.778C177.1 138.835 175.597 136.355 175.371 133.349C175.061 129.353 177.076 125.942 179.879 125.727C179.939 125.727 179.998 125.739 180.058 125.727C181.978 126.67 183.481 129.151 183.708 132.156C184.018 136.152 182.002 139.551 179.199 139.778Z" fill="#FFBF3D"/>
<path opacity="0.39" d="M179.02 139.766C179.02 139.766 179.068 139.766 179.08 139.766C178.973 139.719 178.865 139.671 178.758 139.611C178.842 139.659 178.925 139.719 179.02 139.766Z" fill="black"/>
<path d="M180.046 125.729C181.967 126.671 183.47 129.152 183.696 132.158C184.006 136.153 181.991 139.552 179.188 139.779C179.152 139.779 179.116 139.779 179.08 139.779C179.689 140.065 180.321 140.22 180.989 140.173C183.78 139.958 185.795 136.547 185.497 132.551C185.199 128.651 182.778 125.657 180.046 125.729Z" fill="black"/>
<path d="M183.064 118.536C170.147 118.179 163.551 131.716 164.052 147.186C164.553 162.655 173.868 174.904 184.877 174.547C187.095 174.475 189.171 173.915 191.067 172.936C193.119 171.887 194.955 170.36 196.554 168.44C200.847 163.275 203.316 155.308 203.03 146.291C202.529 130.821 191.89 118.763 183.076 118.524L183.064 118.536Z" stroke="black" stroke-width="1.47898" stroke-miterlimit="10"/>
<path d="M196.756 172.269L195.611 167.832L184.71 172.007L185.747 175.99L196.756 172.269Z" fill="#FFBF3D"/>
<path d="M165.757 148.006C165.435 138.118 168.226 129.602 173.415 124.653C176.742 121.48 180.356 120.096 185.103 120.216C186.284 120.239 187.501 120.514 188.753 121.003C188.753 121.003 186.01 119.297 183.123 119.094C178.388 118.749 174.285 120.526 170.958 123.71C165.769 128.66 162.99 137.164 163.3 147.064C163.706 159.814 170.707 170.334 179.76 173.029C171.924 169.308 166.139 159.575 165.769 148.018L165.757 148.006Z" fill="white"/>
<path d="M178.389 127.886C178.222 127.946 178.102 128.065 177.935 128.137C177.756 129.818 177.243 131.703 175.753 132.562C171.996 134.708 164.505 129.043 159.353 120.217C155.548 113.728 153.818 106.882 154.904 102.791C155.262 101.443 155.87 100.501 156.788 100C160.545 97.8533 168.036 103.519 173.188 112.345C174.464 114.611 175.526 116.937 176.337 119.227L180.237 118.893C179.39 116.018 178.138 113.108 176.54 110.317C170.266 99.3323 160.331 93.2136 154.415 96.589C148.487 99.9644 148.869 111.784 155.202 122.722C158.208 127.958 162.179 132.299 166.259 134.887C168.393 136.271 170.505 137.07 172.425 137.297C174.226 137.476 175.896 137.189 177.327 136.39C179.832 134.971 181.299 131.965 181.525 128.017C180.583 127.528 179.474 127.445 178.389 127.886Z" fill="black"/>
<path d="M156.657 124.236C150.336 113.299 149.954 101.491 155.87 98.1035C160.009 95.7419 166.128 98.0319 171.566 103.387C165.782 96.9584 158.935 94.0005 154.415 96.5768C148.487 99.9522 148.869 111.772 155.202 122.709C157.063 125.942 159.281 128.816 161.667 131.166C159.842 129.138 158.136 126.788 156.657 124.236Z" fill="white"/>
<path d="M76.864 128.566C76.864 128.566 76.864 24.4415 76.864 14.7447C76.864 13.4327 77.9017 11.906 79.1659 11.6078C89.4592 9.12692 131.312 -1.46447 176.027 12.6812C130.393 -6.52162 85.0341 4.97624 74.5978 7.49289C74.073 7.62409 73.6436 7.64794 73.0592 8.3755C72.3913 9.19848 72.439 9.75906 72.439 10.427C72.439 19.4321 72.4628 116.198 72.4628 116.198C72.8326 131.775 75.8025 145.932 80.7642 158.563C78.331 149.189 77.1264 139.182 76.8759 128.566H76.864Z" fill="white"/>
</g>
<defs>
<clipPath id="clip0_21759_8512">
<rect width="211.959" height="240" fill="white" transform="translate(0.875 0.609375)"/>
</clipPath>
</defs>
</svg>
