<svg width="187" height="240" viewBox="0 0 187 240" fill="none" xmlns="http://www.w3.org/2000/svg">
<g clip-path="url(#clip0_21759_8876)">
<path d="M151.75 4.42805C150.464 3.91957 149.298 3.51578 148.101 3.05217C142.807 1.06314 139.278 -0.701565 136.825 1.87072L115.738 72.6235C118.026 73.4909 124.487 75.0462 125.055 74.9864C133.445 74.1489 144.093 65.0562 151.511 45.2855C158.929 25.5148 159.318 7.40412 151.765 4.41309L151.75 4.42805Z" fill="#FF875B" stroke="black" stroke-width="1.15155" stroke-miterlimit="10"/>
<path d="M123.978 44.3125L115.723 72.6375C118.011 73.5049 123.066 75.0752 125.04 75.0004C131.74 74.7462 140.773 68.6295 148.071 53.3454L123.978 44.3125Z" fill="black" stroke="black" stroke-width="1.15155" stroke-miterlimit="10"/>
<path d="M151.69 4.41144C150.404 3.90297 149.238 3.49918 148.041 3.03557C142.747 1.04654 139.218 -0.718167 136.765 1.85412L135.987 4.47126L156.67 12.6069C155.908 8.58393 154.277 5.42839 151.705 4.39649L151.69 4.41144Z" fill="black" stroke="black" stroke-width="1.15155" stroke-miterlimit="10"/>
<path d="M142.002 41.7043C149.414 21.9454 149.516 3.71267 142.231 0.980269C134.946 -1.75213 123.033 12.0505 115.622 31.8094C108.211 51.5682 108.108 69.801 115.393 72.5334C122.678 75.2658 134.591 61.4631 142.002 41.7043Z" fill="#FF875B" stroke="black" stroke-width="1.15155" stroke-miterlimit="10"/>
<path d="M123.933 45.8971L121.69 36.3707L120.434 55.5432L131.202 41.5302L123.918 45.8971H123.933ZM134.417 17.1982L122.557 34.2022L124.816 43.6987L132.114 39.287L134.417 17.1982Z" fill="black"/>
<path d="M118.789 71.9352C118.056 71.9352 117.338 71.8156 116.665 71.5613C112.956 70.1705 110.937 65.1007 110.982 57.2642C111.027 49.6222 113.016 40.1556 116.695 30.7338C123.021 14.5374 131.725 3.78467 138.918 1.33203C131.501 2.43871 121.526 13.6999 115.005 31.1227C111.446 40.5893 109.472 50.011 109.427 57.6531C109.382 65.4746 111.401 70.5593 115.11 71.9502C115.783 72.2044 116.486 72.3241 117.233 72.3241C118.086 72.3241 118.983 72.1446 119.91 71.8006C119.537 71.8604 119.163 71.9352 118.804 71.9352H118.789Z" fill="white"/>
<path d="M59.3867 102.624C63.9929 121.542 74.2073 134.538 81.1315 132.848C88.0557 131.158 89.7158 114.603 85.1096 95.6844C80.5034 76.7661 71.1415 62.813 64.2173 64.5029C57.293 66.1928 54.7806 83.7203 59.3867 102.639V102.624Z" fill="#FF875B" stroke="black" stroke-width="1.06181" stroke-miterlimit="10"/>
<path d="M74.6262 71.0836L58.3251 75.0168C58.7289 72.7735 59.342 70.8742 60.1047 69.2291L70.5733 66.627C71.9193 67.7486 73.2952 69.2441 74.6262 71.0836Z" fill="white"/>
<path d="M60.015 68.7072C61.1366 66.3592 62.662 64.789 64.5912 64.2805C65.8325 63.9515 66.9392 63.7122 68.1057 63.428C73.2054 62.1868 76.6301 60.9455 78.6042 63.5926L78.6939 64.1459L60 68.7072H60.015Z" fill="black" stroke="black" stroke-width="1.06181" stroke-miterlimit="10"/>
<path d="M76.8397 119.119L83.9434 125.415L90.1946 130.979C90.0451 131.023 83.0012 132.833 80.2046 133.012C75.7779 133.297 69.7659 126.103 67.4479 121.452L76.8247 119.119H76.8397Z" fill="black" stroke="black" stroke-width="1.1665" stroke-miterlimit="10"/>
<path d="M91.5208 130.709C99.104 128.86 101.498 111.964 96.8675 92.9699C92.2373 73.9759 82.3364 60.0767 74.7532 61.9253C67.1701 63.7739 64.7763 80.6701 69.4065 99.6641C74.0367 118.658 83.9376 132.557 91.5208 130.709Z" fill="#FF875B" stroke="black" stroke-width="1.09172" stroke-miterlimit="10"/>
<path d="M94.0678 84.3186L66.8046 83.4512L57.0538 84.3186C57.0389 85.3953 57.0538 85.6346 57.0837 86.7712H94.9202C94.5464 85.6346 94.4716 85.3953 94.0678 84.3186Z" fill="black" stroke="black" stroke-width="1.06181" stroke-miterlimit="10"/>
<path d="M172.149 87.5164L22.5078 83.7029C8.53966 83.7029 0.837769 83.2841 0.837769 91.4048L0.867679 230.861C0.837769 237.995 10.0501 239.984 24.0481 238.818L172.598 229.501C177.518 229.037 181.286 224.909 181.286 219.974V97.0877C181.286 91.9731 177.263 87.7557 172.149 87.5314V87.5164Z" fill="#FF875B" stroke="black" stroke-width="1.70489" stroke-miterlimit="10"/>
<path d="M146.874 144.466H181.466C183.589 144.466 185.294 146.186 185.294 148.295V167.707C185.294 169.83 183.574 171.535 181.466 171.535H146.874C139.397 171.535 133.325 165.463 133.325 157.986C133.325 150.508 139.397 144.437 146.874 144.437V144.466Z" fill="#FF875B" stroke="black" stroke-width="1.70489" stroke-miterlimit="10"/>
<path d="M149.028 172.224L180.777 171.566L180.553 184.622C180.553 184.622 176.096 174.273 149.043 172.239L149.028 172.224Z" fill="black"/>
<path d="M7.95578 84.2129C4.84511 84.9606 4.06744 85.0952 3.66366 86.5608L3.46924 236.142C3.66366 236.875 4.9498 236.965 7.95578 238.161V84.2129Z" fill="black"/>
<path d="M7.95642 237.295C10.3492 237.953 13.1159 238.297 15.8378 238.297V84.5732C12.9813 84.648 10.0352 84.648 7.95642 85.0668V237.28V237.295Z" fill="white"/>
</g>
<defs>
<clipPath id="clip0_21759_8876">
<rect width="186.147" height="240" fill="white"/>
</clipPath>
</defs>
</svg>
