<svg width="206" height="316" viewBox="0 0 206 316" fill="none" xmlns="http://www.w3.org/2000/svg">
<g clip-path="url(#clip0_21759_8463)">
<path d="M143.372 144.773C141.982 144.592 140.743 144.471 139.459 144.32C133.778 143.655 129.895 142.764 128.112 145.892L124.576 220.396C127.039 220.684 133.748 220.653 134.292 220.457C142.315 217.601 150.564 206.103 153.042 184.919C155.52 163.736 151.516 145.876 143.372 144.773Z" fill="black" stroke="black" stroke-width="1.17854" stroke-miterlimit="10"/>
<path d="M125.8 190.628L124.576 220.409C127.039 220.696 132.373 221.029 134.292 220.47C140.804 218.596 148.177 210.407 151.637 193.635L125.815 190.613L125.8 190.628Z" fill="black" stroke="black" stroke-width="1.16343" stroke-miterlimit="10"/>
<path d="M142.838 183.689C145.315 162.513 140.993 144.606 133.185 143.693C125.378 142.78 117.041 159.207 114.565 180.383C112.088 201.56 116.41 219.467 124.217 220.38C132.025 221.293 140.362 204.866 142.838 183.689Z" fill="#FFBF3D" stroke="black" stroke-width="1.16343" stroke-miterlimit="10"/>
<path d="M126.148 192.187L121.645 183.379L125.06 202.477L132.222 186.128L126.148 192.187ZM129.472 161.5L121.962 181.052L126.48 189.815L132.569 183.711L129.472 161.5Z" fill="black"/>
<path d="M150.595 122.383C146.047 125.979 140.547 128.17 135.123 130.058C129.638 131.856 124.002 133.201 118.246 133.806C129.094 130.119 140.185 127.248 150.595 122.383Z" fill="white"/>
<path d="M187.991 59.5269C181.811 65.888 175.344 71.9772 168.258 77.2655C179.922 66.7644 188.232 59.3456 201.242 36.2734C115.949 132.43 51.8088 123.848 43 125.102C72.0858 127.505 153.269 144.563 197.691 55.9309C200.713 49.9022 203.871 43.9188 206.122 37.5577C200.607 45.3391 194.473 52.6823 187.976 59.5269H187.991Z" fill="white"/>
<path d="M121.191 110.371C125.18 107.138 147.119 88.2205 159.313 52.9852L174.029 0.555284C174.211 -0.0793144 174.936 -0.396614 175.525 -0.0944238C175.525 -0.0944238 174.573 -0.834789 173.334 -0.487271C172.095 -0.139752 151.924 1.29565 132.282 22.9022L121.282 58.7117C121.282 58.7117 112.458 91.0913 120.965 110.431C120.965 110.431 121.086 110.462 121.207 110.371H121.191Z" fill="#FFBF3D" stroke="black" stroke-width="0.846131" stroke-miterlimit="10"/>
<path d="M175.511 -0.0955502L185.286 4.96613C185.921 5.29854 186.238 6.02379 186.057 6.71883L172.73 56.7312C172.73 56.7312 160.854 96.6656 133.068 113.754C132.645 114.011 132.116 114.087 131.633 113.951L121.343 111.095C121.011 111.005 120.92 110.597 121.192 110.385C125.181 107.152 147.12 88.2345 159.313 52.9992L174.03 0.554158C174.211 -0.0804408 174.936 -0.39774 175.526 -0.0955502H175.511Z" fill="#FFBF3D" stroke="black" stroke-width="0.846131" stroke-miterlimit="10"/>
<path d="M173.078 3.9082L185.196 9.952L171.884 59.2996L159.026 53.7695L173.078 3.9082Z" fill="black"/>
<path d="M155.928 52.7903L168.922 6.63086C168.922 6.63086 150.186 8.444 133.626 27.1798L124.153 58.0333C124.153 58.0333 116.311 84.067 123.065 102.939C123.065 102.939 123.579 102.501 123.669 102.41C127.024 99.5995 145.472 83.1755 155.928 52.7903Z" fill="#FFBF3D" stroke="#0F0F0F" stroke-width="0.846131" stroke-miterlimit="10"/>
<path d="M126.51 58.4998L137.147 23.4609C135.968 24.6093 134.79 25.8482 133.626 27.1628L124.153 58.0163C124.153 58.0163 116.311 84.05 123.065 102.922C123.065 102.922 123.579 102.484 123.669 102.393C123.941 102.166 124.319 101.849 124.772 101.441C119.197 82.7808 126.495 58.4998 126.495 58.4998H126.51Z" fill="black" stroke="#0F0F0F" stroke-width="0.846131" stroke-miterlimit="10"/>
<path d="M124.984 62.4458L133.506 31.3203C148.842 12.8716 166.656 9.92524 168.061 9.72882L168.938 6.64648C168.938 6.64648 150.202 8.45962 133.642 27.1954L124.168 58.049C124.168 58.049 116.327 84.0826 123.08 102.954C123.08 102.954 123.594 102.516 123.685 102.426C119.107 84.3999 124.984 62.4609 124.984 62.4609V62.4458Z" fill="black" stroke="#0F0F0F" stroke-width="0.846131" stroke-miterlimit="10"/>
<path d="M135.016 96.3516C128.444 104.269 122.989 108.923 121.191 110.388C120.934 110.6 121.025 111.023 121.342 111.098L131.632 113.954C132.115 114.09 132.629 114.015 133.067 113.758C138.567 110.373 143.447 106.082 147.723 101.398L135.016 96.3516Z" fill="black" stroke="black" stroke-width="0.846131" stroke-miterlimit="10"/>
<path d="M59.9995 119.303C64.6532 138.416 74.973 151.546 81.9687 149.839C88.9644 148.132 90.6415 131.405 85.9878 112.292C81.3341 93.1783 71.8755 79.0812 64.8798 80.7885C57.8842 82.4959 55.3458 100.204 59.9995 119.318V119.303Z" fill="#FFBF3D" stroke="black" stroke-width="1.07277" stroke-miterlimit="10"/>
<path d="M75.3961 87.4382L58.9268 91.412C59.3347 89.1455 59.9542 87.2266 60.7248 85.5646L71.3014 82.9355C72.6613 84.0688 74.0514 85.5797 75.3961 87.4382Z" fill="white"/>
<path d="M60.6338 85.0359C61.767 82.6637 63.3081 81.0773 65.2573 80.5635C66.5114 80.2311 67.6295 79.9894 68.808 79.7023C73.9603 78.4482 77.4204 77.1941 79.4149 79.8685L79.5055 80.4275L60.6187 85.0359H60.6338Z" fill="black" stroke="black" stroke-width="1.07277" stroke-miterlimit="10"/>
<path d="M77.6328 135.982L84.8098 142.344L91.1256 147.964C90.9745 148.01 83.8579 149.838 81.0324 150.019C76.56 150.306 70.486 143.039 68.144 138.339L77.6177 135.982H77.6328Z" fill="black" stroke="black" stroke-width="1.17854" stroke-miterlimit="10"/>
<path d="M92.4481 147.668C100.11 145.801 102.528 128.73 97.85 109.54C93.172 90.3499 83.1689 76.3073 75.5075 78.175C67.8461 80.0426 65.4275 97.1132 70.1056 116.303C74.7836 135.493 84.7867 149.536 92.4481 147.668Z" fill="#FFBF3D" stroke="black" stroke-width="1.10299" stroke-miterlimit="10"/>
<path fill-rule="evenodd" clip-rule="evenodd" d="M77.3757 107.97L77.1037 105.537C77.0433 105.039 77.1038 104.631 77.2548 104.434L78.0103 103.482C78.1161 103.346 78.0103 102.893 77.8441 102.818L76.726 102.289C76.4994 102.183 76.2576 101.836 76.0763 101.367L75.2 99.0705C75.0791 98.7532 74.8978 98.7985 74.928 99.1309L75.2 101.564C75.2604 102.062 75.2 102.47 75.0489 102.667L74.2934 103.618C74.1876 103.754 74.2934 104.208 74.4596 104.283L75.5777 104.812C75.8043 104.918 76.0461 105.265 76.2274 105.734L77.1037 108.03C77.2246 108.348 77.4059 108.302 77.3757 107.97Z" fill="black"/>
<path fill-rule="evenodd" clip-rule="evenodd" d="M91.9103 102.967C91.2455 101.969 90.49 101.501 89.8403 101.395C89.1906 101.305 88.5711 101.471 88.0574 101.879C86.9997 102.664 86.2291 104.16 85.6701 105.913C85.3679 106.774 85.1715 107.741 84.9599 108.723C84.8693 109.222 84.7937 109.736 84.7031 110.249L84.4916 111.73C84.28 113.407 84.0534 114.948 83.7814 116.248C83.5094 117.547 83.1921 118.544 82.8295 119.285C82.4669 120.025 81.9985 120.524 81.2883 120.766C80.5933 121.007 79.6565 120.886 78.614 120.569C77.5714 120.252 76.4231 119.738 75.1992 119.345C76.2116 121.853 77.3297 123.999 78.5686 125.918C79.8076 127.791 81.1826 129.453 82.6633 130.39C84.1289 131.372 85.7003 131.463 86.894 130.451C88.1027 129.469 88.9035 127.595 89.4172 125.54C89.931 123.47 90.1878 121.173 90.3087 118.847C90.3389 118.197 90.354 117.834 90.3691 117.336L90.3994 115.9C90.4447 115.009 90.4296 113.996 90.4749 113.105C90.5354 111.247 90.5807 109.403 90.7469 107.681C90.8224 106.804 90.9282 105.958 91.0944 105.127C91.1851 104.719 91.2757 104.326 91.4117 103.949C91.5326 103.556 91.6988 103.223 91.9103 102.951V102.967Z" fill="black"/>
<path fill-rule="evenodd" clip-rule="evenodd" d="M91.9111 102.968C90.8232 100.429 89.4936 98.3896 88.043 97.0146C86.6076 95.6397 84.9607 95.1713 83.7217 96.2138C83.1022 96.7275 82.5885 97.5435 82.2108 98.5709C81.833 99.5832 81.5611 100.762 81.3798 102.001C81.2891 102.62 81.2287 103.255 81.1682 103.905L81.0625 105.763L80.9265 108.74C80.7452 112.577 80.6394 117.035 79.068 118.742C77.5268 120.404 76.4541 119.528 75.2151 119.362C75.7439 120.646 76.3181 121.87 76.9376 122.927C77.5571 124 78.237 124.997 78.9622 125.813C79.3249 126.206 79.7026 126.584 80.0955 126.886C80.4732 127.173 80.8811 127.415 81.274 127.581C82.0597 127.883 82.8605 127.853 83.5404 127.43C84.2203 127.007 84.7794 126.251 85.2025 125.33C85.6255 124.408 85.9428 123.35 86.1846 122.247C86.653 120.026 86.8494 117.654 86.9249 115.282C86.9703 114.088 86.9703 112.895 86.9552 111.701L86.9249 110.281C86.9249 109.858 86.9249 109.45 86.9249 109.057C86.9552 107.485 87.0307 106.201 87.2876 105.189C87.5142 104.161 87.9977 103.33 88.8136 102.968C89.6295 102.605 90.6872 102.65 91.9262 102.998L91.9111 102.968Z" fill="#FFBF3D" stroke="black" stroke-width="1.10299" stroke-miterlimit="10"/>
<path fill-rule="evenodd" clip-rule="evenodd" d="M92.7722 126.054C93.2558 127.988 94.2832 129.408 95.0689 129.227C95.8546 129.046 96.0812 127.308 95.5977 125.374C95.1142 123.44 94.0868 122.02 93.3011 122.201C92.5154 122.382 92.2887 124.12 92.7722 126.054Z" fill="black"/>
<path d="M172.149 163.516L22.5079 159.703C8.53978 159.703 0.837891 159.284 0.837891 167.405L0.867801 306.861C0.837891 313.995 10.0503 315.984 24.0483 314.818L172.598 305.5C177.518 305.037 181.287 300.909 181.287 295.974V173.088C181.287 167.973 177.264 163.756 172.149 163.531V163.516Z" fill="#FFBF3D" stroke="black" stroke-width="1.70489" stroke-miterlimit="10"/>
<path d="M146.874 220.467H181.465C183.589 220.467 185.294 222.187 185.294 224.296V243.708C185.294 245.831 183.574 247.536 181.465 247.536H146.874C139.396 247.536 133.325 241.464 133.325 233.987C133.325 226.509 139.396 220.438 146.874 220.438V220.467Z" fill="#FFBF3D" stroke="black" stroke-width="1.70489" stroke-miterlimit="10"/>
<path d="M149.027 248.224L180.777 247.566L180.553 260.622C180.553 260.622 176.096 250.273 149.042 248.239L149.027 248.224Z" fill="black"/>
<path d="M7.95578 160.213C4.84511 160.961 4.06744 161.095 3.66366 162.561L3.46924 312.142C3.66366 312.875 4.9498 312.965 7.95578 314.161V160.213Z" fill="black"/>
<path d="M7.95654 313.294C10.3494 313.952 13.1161 314.296 15.8379 314.296V160.572C12.9815 160.647 10.0353 160.647 7.95654 161.066V313.279V313.294Z" fill="white"/>
</g>
<defs>
<clipPath id="clip0_21759_8463">
<rect width="206" height="316" fill="white"/>
</clipPath>
</defs>
</svg>
