<svg width="292" height="267" viewBox="0 0 292 267" fill="none" xmlns="http://www.w3.org/2000/svg">
<mask id="mask0_21759_8913" style="mask-type:luminance" maskUnits="userSpaceOnUse" x="1" y="1" width="290" height="266">
<path d="M183.317 1H108.693C106.202 1 104.205 3.07739 104.145 5.64892C102.632 78.0954 65.965 146.851 2.85665 195.549C0.849849 197.092 0.39605 199.996 1.85829 202.093L45.5238 264.496C47.0063 266.624 49.9005 267.098 51.9375 265.535C91.3979 235.281 123.144 198.786 145.995 158.337C168.856 198.786 200.592 235.281 240.062 265.535C242.1 267.098 244.994 266.614 246.476 264.496L290.142 202.093C291.604 200.006 291.15 197.102 289.143 195.549C226.025 146.851 189.358 78.0954 187.855 5.64892C187.805 3.06731 185.798 1 183.307 1H183.317Z" fill="white"/>
</mask>
<g mask="url(#mask0_21759_8913)">
<path d="M183.317 0.999023H108.693C106.202 0.999023 104.205 3.07642 104.145 5.64794C102.632 78.0944 65.965 146.85 2.85665 195.548C0.849849 197.091 0.39605 199.995 1.85829 202.093L45.5238 264.495C47.0063 266.623 49.9005 267.097 51.9375 265.534C91.3979 235.28 123.144 198.785 145.995 158.336C168.856 198.785 200.592 235.28 240.062 265.534C242.1 267.097 244.994 266.613 246.476 264.495L290.142 202.093C291.604 200.005 291.15 197.101 289.143 195.548C226.025 146.85 189.358 78.0944 187.855 5.64794C187.805 3.06633 185.798 0.999023 183.307 0.999023H183.317Z" fill="#1F1F1F"/>
<path d="M144.23 132.972L-7.92358 199.69L144.23 403.91L306.045 211.57L144.23 132.972Z" fill="#404040"/>
<path d="M131.1 74.9278L139.299 48.8092L118.071 36.012L113.957 -9.59981L118.918 -19.4019L112.293 -19.6641L115.217 36.728L138.159 49.031L130.394 73.8488L128.972 71.8622L135.305 49.8378L112.535 38.5836L105.153 -16.2152L8.79639 16.6298L71.0778 67.3443L85.4985 36.8793L118.283 58.6516L117.184 77.1363L143.645 108.055L131.1 74.9278Z" fill="#29C5FF"/>
</g>
<path d="M183.317 1H108.693C106.202 1 104.205 3.07739 104.145 5.64892C102.632 78.0954 65.965 146.851 2.85665 195.549C0.849849 197.092 0.39605 199.996 1.85829 202.093L45.5238 264.496C47.0063 266.624 49.9005 267.098 51.9375 265.535C91.3979 235.281 123.144 198.786 145.995 158.337C168.856 198.786 200.592 235.281 240.062 265.535C242.1 267.098 244.994 266.614 246.476 264.496L290.142 202.093C291.604 200.006 291.15 197.102 289.143 195.549C226.025 146.851 189.358 78.0954 187.855 5.64892C187.805 3.06731 185.798 1 183.307 1H183.317Z" stroke="white" stroke-miterlimit="10"/>
<path d="M141.225 114.612L139.823 114.38L123.275 118.585V151.491L125.04 151.813L141.225 114.612Z" fill="black" stroke="black" stroke-width="0.28" stroke-miterlimit="10"/>
<path d="M125.251 118.96L140.973 114.926L140.701 140.792L125.372 151.472L125.251 118.96Z" fill="#595959"/>
<path d="M140.721 115.248L140.459 140.661L125.625 151.007L125.504 119.151L140.721 115.248ZM141.225 114.603L125.01 118.757L125.131 151.945L140.943 140.913L141.215 114.603H141.225Z" fill="black"/>
<path d="M185.738 127.125C185.092 127.115 184.507 127.125 183.902 127.125C181.25 127.125 179.405 126.923 178.749 128.466L181.139 163.036C182.289 163.036 185.385 162.662 185.627 162.541C189.177 160.787 192.353 155.039 192.353 145.136C192.353 135.233 189.54 127.206 185.728 127.135L185.738 127.125Z" fill="#29C5FF" stroke="black" stroke-width="0.53" stroke-miterlimit="10"/>
<path d="M180.111 149.229L181.149 163.035C182.299 163.035 184.78 162.894 185.637 162.541C188.541 161.321 191.496 157.156 192.192 149.229H180.111Z" fill="black" stroke="black" stroke-width="0.53" stroke-miterlimit="10"/>
<path d="M185.718 127.125C185.072 127.115 184.487 127.125 183.882 127.125C181.23 127.125 179.384 126.923 178.729 128.466L178.82 129.747L189.247 129.918C188.249 128.275 187.018 127.155 185.707 127.135L185.718 127.125Z" fill="black" stroke="black" stroke-width="0.53" stroke-miterlimit="10"/>
<path d="M190.639 133.76C190.225 132.358 189.771 131.189 189.187 130.17L178.598 130.009L181.563 133.75H190.649L190.639 133.76Z" fill="white"/>
<path d="M180.988 163.045C184.642 163.045 187.603 155.017 187.603 145.115C187.603 135.212 184.642 127.185 180.988 127.185C177.334 127.185 174.373 135.212 174.373 145.115C174.373 155.017 177.334 163.045 180.988 163.045Z" fill="#29C5FF" stroke="black" stroke-width="0.53" stroke-miterlimit="10"/>
<path d="M180.353 149.935L177.801 146.113L180.413 154.745L182.833 146.809L180.353 149.935ZM180.232 135.595L177.821 145.024L180.383 148.825L182.864 145.679L180.232 135.595Z" fill="black"/>
<path d="M189.267 179.505C180.312 173.152 171.811 166.234 163.784 158.741C172.739 165.094 181.24 172.022 189.267 179.505Z" fill="#FFBF3D"/>
<path d="M101.191 180.26C84.1866 194.082 66.3134 206.831 47.7005 218.395C64.7052 204.563 82.5788 191.834 101.191 180.26Z" fill="#FFBF3D"/>
<path d="M259.233 179.231C259.233 197.081 252.96 210.876 246.426 210.876C239.891 210.876 234.819 196.476 234.819 178.626C234.819 160.777 240.123 146.306 246.658 146.306C253.192 146.306 259.233 161.382 259.233 179.231Z" fill="#29C5FF" stroke="black" stroke-width="0.96" stroke-miterlimit="10"/>
<path d="M238.802 154.445L254.17 154.415C253.323 152.509 252.365 150.936 251.327 149.645L241.434 149.604C240.476 150.895 239.588 152.529 238.792 154.455L238.802 154.445Z" fill="white"/>
<path d="M251.307 149.151C249.794 147.295 248.09 146.246 246.264 146.206C245.085 146.186 244.046 146.206 242.947 146.206C238.136 146.206 234.809 145.843 233.629 148.626L233.669 149.141H251.307V149.151Z" fill="black" stroke="black" stroke-width="0.97" stroke-miterlimit="10"/>
<path d="M247.263 197.728L242.291 204.877L237.925 211.19C238.066 211.2 244.732 211.281 247.273 210.837C251.276 210.131 255.068 202.417 256.127 197.768L247.263 197.728Z" fill="black" stroke="black" stroke-width="1.06" stroke-miterlimit="10"/>
<path d="M236.704 211.209C243.861 211.209 249.663 196.68 249.663 178.757C249.663 160.835 243.861 146.306 236.704 146.306C229.548 146.306 223.746 160.835 223.746 178.757C223.746 196.68 229.548 211.209 236.704 211.209Z" fill="#29C5FF" stroke="black" stroke-width="0.99" stroke-miterlimit="10"/>
<path fill-rule="evenodd" clip-rule="evenodd" d="M231.037 170.935L231.289 168.475C231.339 167.971 231.47 167.587 231.642 167.446L232.489 166.74C232.61 166.639 232.6 166.155 232.489 166.034L231.632 165.177C231.46 165.006 231.319 164.592 231.259 164.088L230.966 161.577C230.926 161.234 230.754 161.214 230.724 161.557L230.472 164.017C230.422 164.522 230.291 164.905 230.119 165.046L229.272 165.752C229.151 165.853 229.161 166.337 229.272 166.448L230.139 167.305C230.311 167.476 230.452 167.89 230.512 168.394L230.805 170.905C230.845 171.248 231.017 171.268 231.047 170.935H231.037Z" fill="black"/>
<path fill-rule="evenodd" clip-rule="evenodd" d="M244.54 170.553C244.187 169.323 243.632 168.607 243.098 168.294C242.553 167.992 241.989 167.972 241.454 168.224C240.375 168.698 239.407 169.958 238.56 171.542C238.126 172.308 237.753 173.206 237.37 174.123C237.189 174.587 237.017 175.081 236.846 175.565L236.372 176.967C235.857 178.56 235.343 180.003 234.849 181.182C234.355 182.352 233.891 183.23 233.437 183.824C232.983 184.419 232.489 184.742 231.844 184.712C231.198 184.692 230.442 184.258 229.625 183.593C228.798 182.927 227.931 182.029 226.963 181.233C227.336 183.966 227.87 186.426 228.546 188.695C229.222 190.944 230.059 193.042 231.118 194.504C232.156 196.006 233.447 196.702 234.647 196.188C235.847 195.694 236.896 194.181 237.743 192.356C238.59 190.5 239.276 188.332 239.861 186.053C240.022 185.418 240.103 185.065 240.224 184.571L240.547 183.139C240.768 182.261 240.97 181.243 241.192 180.366C241.626 178.52 242.059 176.675 242.553 174.98C242.806 174.113 243.078 173.296 243.39 172.51C243.552 172.127 243.723 171.753 243.905 171.411C244.096 171.048 244.298 170.765 244.55 170.553H244.54Z" fill="black"/>
<path fill-rule="evenodd" clip-rule="evenodd" d="M231.793 191.488C231.369 191.428 230.936 191.186 230.522 190.793C230.25 190.52 229.968 190.167 229.695 189.734C229.423 189.29 229.161 188.756 228.979 188.342C228.576 187.424 228.213 186.325 227.87 184.974C227.638 184.107 227.426 183.088 227.235 181.898C227.346 181.979 227.467 182.07 227.578 182.15C228.001 182.473 228.425 182.796 228.959 182.866C229.403 182.927 229.877 182.786 230.401 182.443C232.035 181.364 233.023 177.36 233.911 173.8L234.072 173.145L234.798 170.251L235.272 168.456C235.454 167.861 235.635 167.256 235.837 166.671C236.26 165.45 236.734 164.402 237.229 163.555C237.763 162.647 238.368 162.002 238.973 161.679C239.276 161.518 239.578 161.447 239.891 161.457C240.788 161.497 241.686 162.294 242.412 163.696C243.239 165.309 243.874 167.417 244.267 169.837C243.531 169.333 242.896 169.061 242.321 169.02C242.17 169.01 242.019 169.02 241.877 169.03C241.121 169.141 240.496 169.767 240.012 170.896C239.619 171.763 239.266 172.963 238.862 174.768C238.771 175.162 238.691 175.595 238.6 176.019L238.328 177.451C238.076 178.742 237.834 179.891 237.581 180.96C236.956 183.602 236.301 185.73 235.575 187.485C235.111 188.584 234.647 189.431 234.163 190.087C233.608 190.843 233.003 191.327 232.398 191.468C232.206 191.519 232.005 191.529 231.793 191.488Z" fill="#29C5FF"/>
<path d="M239.881 161.952C240.748 161.992 241.615 162.758 242.321 164.11C243.017 165.461 243.572 167.165 243.945 169.101C243.34 168.738 242.805 168.537 242.311 168.496C242.15 168.486 241.999 168.496 241.857 168.517C241.071 168.627 240.415 169.293 239.901 170.473C239.488 171.381 239.125 172.611 238.711 174.476C238.62 174.88 238.54 175.313 238.449 175.757L238.177 177.179C237.924 178.46 237.682 179.599 237.43 180.658C236.815 183.26 236.17 185.368 235.454 187.082C235 188.161 234.546 188.998 234.072 189.633C233.538 190.369 232.943 190.833 232.358 190.985C232.166 191.035 231.975 191.035 231.783 191.005C231.37 190.944 230.946 190.712 230.563 190.339C230.301 190.077 230.028 189.734 229.766 189.321C229.504 188.887 229.262 188.393 229.07 187.979C228.677 187.082 228.324 186.013 227.981 184.692C227.82 184.077 227.669 183.391 227.527 182.604C227.527 182.604 227.527 182.604 227.538 182.604C227.961 182.927 228.405 183.27 228.959 183.341C229.423 183.401 229.907 183.26 230.442 182.907C232.126 181.798 233.134 177.724 234.042 174.093L234.203 173.438L234.929 170.554L235.393 168.769C235.575 168.164 235.746 167.569 235.948 167.014C236.361 165.814 236.825 164.795 237.309 163.968C237.824 163.091 238.409 162.466 239.004 162.153C239.296 162.002 239.588 161.931 239.891 161.942M239.871 160.953C239.558 160.933 239.235 161.014 238.923 161.185C238.288 161.518 237.662 162.204 237.128 163.111C236.593 164.019 236.109 165.118 235.706 166.298C235.504 166.893 235.313 167.508 235.131 168.123L234.657 169.928L233.931 172.823C233.003 176.524 232.025 180.85 230.351 181.959C229.796 182.322 229.343 182.423 228.949 182.373C228.183 182.282 227.628 181.616 226.953 181.223C227.154 182.635 227.406 184.006 227.729 185.237C228.052 186.487 228.425 187.677 228.879 188.716C229.111 189.22 229.353 189.714 229.625 190.148C229.887 190.571 230.18 190.944 230.482 191.247C230.896 191.64 231.339 191.902 231.793 191.973C232.005 192.003 232.207 192.003 232.418 191.953C233.074 191.791 233.689 191.277 234.234 190.531C234.778 189.795 235.252 188.867 235.676 187.879C236.513 185.862 237.168 183.593 237.713 181.273C237.985 180.114 238.237 178.914 238.469 177.724L238.741 176.292C238.822 175.878 238.913 175.455 238.993 175.061C239.346 173.488 239.689 172.228 240.103 171.3C240.516 170.342 241.101 169.646 241.878 169.535C242.019 169.515 242.16 169.515 242.311 169.525C242.987 169.575 243.733 169.949 244.54 170.564C244.157 167.619 243.441 165.128 242.493 163.273C241.777 161.891 240.849 161.004 239.881 160.953H239.871Z" fill="black"/>
<path fill-rule="evenodd" clip-rule="evenodd" d="M240.446 194.109C240.446 196.217 241.021 198.032 241.706 198.153C242.392 198.274 242.947 196.641 242.947 194.513C242.947 192.385 242.372 190.58 241.686 190.479C241 190.378 240.436 192.012 240.446 194.12V194.109Z" fill="black"/>
<path d="M121.197 63.132C121.369 62.9909 121.812 62.7791 123.355 62.0429C124.596 61.4479 125.493 61.1152 126.552 61.9421L136.455 85.9733C135.678 86.3666 133.45 87.1632 133.248 87.1632C130.253 87.1834 126.139 84.3799 122.76 77.6839C119.382 70.9777 118.918 64.9069 121.197 63.132Z" fill="black" stroke="black" stroke-width="0.41" stroke-miterlimit="10"/>
<path d="M132.451 76.2708L136.455 85.972C135.678 86.3653 133.954 87.1217 133.248 87.162C130.868 87.3234 127.439 85.5182 124.273 80.3853L132.441 76.2607L132.451 76.2708Z" fill="black" stroke="black" stroke-width="0.41" stroke-miterlimit="10"/>
<path d="M136.574 85.9308C139.046 84.685 138.312 78.2442 134.936 71.545C131.559 64.8458 126.818 60.425 124.346 61.6709C121.874 62.9168 122.608 69.3575 125.984 76.0567C129.361 82.7559 134.102 87.1767 136.574 85.9308Z" fill="#29C5FF" stroke="black" stroke-width="0.4" stroke-miterlimit="10"/>
<path d="M132.532 76.8255L129.789 75.5549L134.136 80.0929L132.956 73.3666L132.532 76.8255ZM129.386 74.8087L132.139 76.0894L132.573 72.6405L127.722 67.084L129.386 74.7986V74.8087Z" fill="black"/>
<path d="M102.166 168.232L72.8405 189.701C71.6203 190.77 70.2791 190.286 69.3513 189.843C68.2924 189.338 68 188.411 68 186.626L69.19 94.1313C69.19 90.7732 70.8942 88 72.8304 88L102.055 88.0706C103.991 88.0706 105.504 89.9866 105.524 92.3464L105.625 160.951C105.645 163.31 104.143 166.548 102.166 168.222V168.232Z" fill="black" stroke="black" stroke-width="0.52" stroke-miterlimit="10"/>
<path d="M103.699 168.232L73.0726 189.53C71.096 191.194 69.533 189.984 69.533 186.626L70.7229 94.1313C70.7229 90.7732 72.4272 88 74.3634 88L103.588 88.0706C105.524 88.0706 107.037 89.9866 107.057 92.3464L107.158 160.951C107.178 163.31 105.676 166.548 103.699 168.222V168.232Z" fill="#FF875B" stroke="black" stroke-width="0.52" stroke-miterlimit="10"/>
<path d="M104.859 161.253C104.869 162.867 103.83 165.015 102.539 166.053C101.238 167.092 100.18 166.537 100.17 164.813C100.159 163.088 101.198 160.951 102.489 160.013C103.78 159.075 104.839 159.63 104.859 161.253Z" fill="black" stroke="black" stroke-width="0.52" stroke-miterlimit="10"/>
<path d="M101.531 163.784C101.541 165.468 100.502 167.677 99.2013 168.715C97.9004 169.754 96.8516 169.139 96.8416 167.354C96.8416 165.569 97.8702 163.36 99.1711 162.423C100.472 161.485 101.521 162.1 101.531 163.784Z" fill="#FF875B" stroke="black" stroke-width="0.52" stroke-miterlimit="10"/>
<path d="M103.81 96.2471L98.354 96.721L98.3843 100.714L103.84 99.9783L103.81 96.2471Z" fill="black"/>
<path d="M100.371 96.0263L103.8 95.7338V94.5237C103.78 93.8783 103.366 93.3842 102.862 93.4144L100.351 93.5556L100.371 96.0263Z" fill="black"/>
<path d="M102.469 100.685L102.489 103.005L102.942 102.934C103.457 102.854 103.86 102.259 103.86 101.623V100.504L102.479 100.685H102.469Z" fill="black"/>
<path d="M99.8567 96.067L99.8365 93.5762L99.2617 93.6064C98.7575 93.6367 98.344 94.2115 98.344 94.8972V96.1981L99.8567 96.067Z" fill="black"/>
<path d="M101.954 100.757L98.3943 101.231V102.441C98.4044 103.127 98.8279 103.611 99.3321 103.53L101.974 103.096L101.954 100.757Z" fill="black"/>
<path d="M70.2488 157.54C73.6472 151.761 77.1969 145.277 79.4054 138.672C82.4711 146.992 86.7166 154.202 92.0009 159.829C92.2732 160.111 92.6564 159.96 92.8581 159.476L98.6566 145.58C98.8482 145.116 98.7877 144.521 98.5255 144.228C90.0848 135.011 85.1636 120.893 84.9418 105.454C84.9418 104.909 84.6695 104.476 84.3367 104.496L74.3935 105.071C74.0607 105.091 73.7985 105.555 73.7884 106.119C73.7077 112.987 72.4371 119.864 70.6723 126.339L70.2589 157.53L70.2488 157.54Z" stroke="black" stroke-width="0.51" stroke-miterlimit="10"/>
<path d="M70.2488 157.539C73.6472 151.761 77.1969 145.276 79.4054 138.671C81.7047 144.913 84.6695 150.53 88.2394 155.331C88.6529 152.245 88.8747 149.048 88.8747 145.75C88.8747 128.264 82.7333 113.127 73.8086 105.826C73.7884 105.917 73.7783 106.018 73.7783 106.129C73.6977 112.996 72.427 119.874 70.6622 126.348L70.2488 157.539Z" fill="black"/>
<path d="M70.2488 157.54C73.6472 151.761 77.1969 145.277 79.4054 138.672C82.4711 146.992 86.7166 154.202 92.0009 159.829C92.2732 160.111 92.6564 159.96 92.8581 159.476L98.6566 145.58C98.8482 145.116 98.7877 144.521 98.5255 144.228C90.0848 135.011 85.1636 120.893 84.9418 105.454C84.9418 104.909 84.6695 104.476 84.3367 104.496L74.3935 105.071C74.0607 105.091 73.7985 105.555 73.7884 106.119C73.7077 112.987 72.4371 119.864 70.6723 126.339L70.2589 157.53L70.2488 157.54Z" stroke="black" stroke-width="0.51" stroke-miterlimit="10"/>
<path d="M232.731 210.563C235.948 212.388 252.033 221.837 256.843 223.229C260.524 224.298 267.734 223.068 263.186 220.314C261.573 219.336 247.212 211.41 246.94 211.228L232.731 210.553V210.563Z" fill="black"/>
<path d="M179.626 162.956C181.29 163.894 189.61 168.795 192.101 169.511C194.007 170.065 197.738 169.43 195.378 168.008C194.541 167.504 185.324 162.684 185.183 162.593L179.626 162.966V162.956Z" fill="black"/>
<path d="M170.319 86.1121C171.297 84.6902 176.591 76.5117 177.196 63.9869L176.995 45.6837C176.995 45.4618 177.196 45.2904 177.418 45.3307C177.418 45.3307 177.045 45.1794 176.672 45.4114C176.299 45.6433 169.935 48.0132 165.639 56.837L165.468 69.4325C165.468 69.4325 165.68 80.7169 170.258 86.1524C170.258 86.1524 170.298 86.1524 170.329 86.1121H170.319Z" fill="#FFBF3D" stroke="black" stroke-width="0.28" stroke-miterlimit="10"/>
<path d="M177.408 45.3409L181.038 46.0468C181.27 46.0972 181.442 46.2989 181.452 46.5409L181.875 63.9366C181.875 63.9366 181.815 77.9438 174.463 86.0819C174.352 86.203 174.191 86.2735 174.02 86.2836L170.43 86.3341C170.319 86.3341 170.248 86.213 170.309 86.1223C171.287 84.7004 176.581 76.5219 177.186 63.9971L176.984 45.6938C176.984 45.472 177.186 45.3005 177.408 45.3409Z" fill="#FFBF3D" stroke="black" stroke-width="0.28" stroke-miterlimit="10"/>
<path d="M181.452 46.5409C181.452 46.2989 181.27 46.0972 181.038 46.0468L177.408 45.3409C177.186 45.3005 176.984 45.472 176.984 45.6938V46.8636L181.472 47.6704L181.442 46.5409H181.452Z" fill="white" stroke="black" stroke-width="0.28" stroke-miterlimit="10"/>
<path d="M176.995 46.8643L181.482 47.671L181.845 64.8448L177.176 64.2801L176.995 46.8643Z" fill="black"/>
<path d="M176.087 64.249L175.916 48.124C175.916 48.124 170.036 50.4838 166.466 58.0874L166.325 68.9383C166.325 68.9383 166.255 78.0848 170.218 83.5304C170.218 83.5304 170.339 83.3388 170.369 83.3086C171.186 82.0884 175.583 75.0393 176.087 64.249Z" fill="#FFBF3D" stroke="#0F0F0F" stroke-width="0.28" stroke-miterlimit="10"/>
<path d="M167.132 68.8766L167.253 56.5635C166.981 57.0475 166.719 57.5518 166.466 58.0862L166.325 68.9371C166.325 68.9371 166.255 78.0836 170.218 83.5292C170.218 83.5292 170.339 83.3376 170.369 83.3074C170.44 83.2065 170.53 83.0653 170.631 82.8939C167.072 77.3979 167.132 68.8766 167.132 68.8766Z" fill="black" stroke="#0F0F0F" stroke-width="0.28" stroke-miterlimit="10"/>
<path d="M167.011 70.2896L166.819 59.4387C170.026 52.0368 175.492 49.4047 175.926 49.2031V48.124C175.926 48.124 170.036 50.4838 166.466 58.0874L166.325 68.9383C166.325 68.9383 166.255 78.0848 170.218 83.5304C170.218 83.5304 170.339 83.3388 170.369 83.3086C167.193 77.9235 167.011 70.2896 167.011 70.2896Z" fill="black" stroke="#0F0F0F" stroke-width="0.28" stroke-miterlimit="10"/>
<path d="M173.455 80.2842C172.083 83.4608 170.762 85.4777 170.319 86.1231C170.258 86.2138 170.319 86.3449 170.44 86.3348L174.03 86.2844C174.201 86.2844 174.363 86.2138 174.473 86.0827C175.926 84.4692 177.095 82.6238 178.033 80.7077L173.455 80.2842Z" fill="black" stroke="black" stroke-width="0.28" stroke-miterlimit="10"/>
<path d="M167.205 82.3744C169.61 82.0393 171.267 79.6616 170.905 77.0634C170.543 74.4653 168.3 72.6307 165.895 72.9657C163.49 73.3007 161.833 75.6785 162.195 78.2766C162.557 80.8747 164.8 82.7094 167.205 82.3744Z" fill="black"/>
<path d="M166.255 93.4724L165.125 92.2017L165.105 90.7395L165.932 90.0538L165.206 89.2571L165.216 87.9461L165.902 86.9881L165.236 86.2519L165.408 84.3762L165.065 84.0535L165.125 81.835L168.251 81.9056L168.019 92.1009L166.255 93.4724Z" fill="#FFBF3D" stroke="black" stroke-width="0.31" stroke-miterlimit="10"/>
<path d="M167.001 72.7907C165.519 72.589 163.945 73.4865 163.068 75.1908C161.908 77.4194 162.413 80.354 164.198 81.8162C164.641 82.1894 165.115 82.4314 165.609 82.5524C167.092 82.9154 168.665 82.0986 169.542 80.3036C170.702 77.8732 170.208 74.737 168.423 73.3857C167.979 73.0529 167.505 72.8613 167.011 72.8008L167.001 72.7907Z" fill="black"/>
<path d="M167.082 77.1055C167.884 77.1055 168.534 76.4553 168.534 75.6533C168.534 74.8513 167.884 74.2012 167.082 74.2012C166.28 74.2012 165.629 74.8513 165.629 75.6533C165.629 76.4553 166.28 77.1055 167.082 77.1055Z" fill="black"/>
<path d="M156.543 89.5381L156.493 87.8339L157.148 87.0775L158.106 87.2086L158.137 85.8876L159.357 84.4556L160.174 84.5463L159.912 83.548L162.493 79.8369L164.409 82.1563L158.359 90.0827L156.543 89.5381Z" fill="black"/>
<path d="M165.004 82.3169C164.51 82.1958 164.056 81.9538 163.633 81.611C161.898 80.189 161.404 77.3251 162.534 75.167C163.361 73.5535 164.863 72.6257 166.356 72.8375C166.85 72.9081 167.304 73.0997 167.727 73.4123C168.564 74.0476 169.139 75.0964 169.351 76.3671C169.552 77.6478 169.371 78.9991 168.826 80.1285C167.999 81.8328 166.497 82.6799 165.004 82.3169ZM167.183 74.33C166.759 74.2695 166.336 74.5317 166.094 75.0057C165.942 75.3183 165.882 75.6813 165.942 76.0343C166.003 76.3872 166.164 76.6797 166.406 76.8713C166.527 76.962 166.658 77.0225 166.799 77.0528C167.223 77.1335 167.647 76.8713 167.889 76.3872C168.211 75.7217 168.07 74.8746 167.576 74.5014C167.455 74.4107 167.324 74.3502 167.183 74.33Z" fill="#FFBF3D"/>
<path d="M166.335 72.9692C166.809 73.0398 167.263 73.2213 167.667 73.5239C168.483 74.139 169.038 75.1575 169.24 76.3979C169.441 77.6484 169.26 78.9493 168.725 80.0485C167.919 81.7023 166.467 82.5292 165.014 82.1763C164.54 82.0654 164.087 81.8334 163.683 81.4905C162.866 80.8149 162.312 79.7964 162.11 78.6165C161.908 77.4467 162.09 76.2466 162.624 75.218C163.431 73.6449 164.883 72.7574 166.335 72.9591M166.779 77.1946C167.243 77.2853 167.717 76.9929 167.969 76.4584C168.141 76.1055 168.201 75.692 168.13 75.2987C168.07 74.9054 167.888 74.5827 167.626 74.381C167.495 74.2802 167.354 74.2197 167.193 74.1995C166.729 74.1289 166.255 74.4214 166.003 74.9458C165.831 75.2886 165.771 75.692 165.841 76.0752C165.902 76.4584 166.083 76.7912 166.345 76.9929C166.477 77.0937 166.618 77.1643 166.779 77.1946ZM166.376 72.6969C164.893 72.4952 163.32 73.3928 162.443 75.097C161.283 77.3257 161.787 80.2603 163.572 81.7225C164.016 82.0956 164.49 82.3376 164.984 82.4587C166.467 82.8217 168.04 82.0049 168.917 80.2098C170.077 77.7795 169.583 74.6432 167.798 73.2919C167.354 72.9591 166.88 72.7675 166.386 72.707L166.376 72.6969ZM166.819 76.9223C166.698 76.9021 166.577 76.8517 166.467 76.761C166.023 76.4181 165.902 75.6618 166.184 75.0769C166.406 74.6331 166.789 74.4113 167.162 74.4617C167.283 74.4819 167.404 74.5323 167.515 74.613C167.959 74.9558 168.08 75.7122 167.798 76.3172C167.576 76.761 167.193 76.9828 166.819 76.9223Z" fill="#0F0F0F"/>
<path opacity="0.88" d="M167.515 74.6251C167.071 74.2924 166.476 74.494 166.184 75.0789C166.184 75.0991 166.174 75.1092 166.164 75.1294C166.436 74.6352 166.95 74.4638 167.344 74.7562C167.747 75.0689 167.858 75.7647 167.596 76.2992C167.344 76.8236 166.819 77.0051 166.426 76.7227C166.436 76.7227 166.446 76.7429 166.456 76.753C166.9 77.1059 167.495 76.9042 167.777 76.3092C168.07 75.7143 167.939 74.9478 167.495 74.6151L167.515 74.6251Z" fill="#0F0F0F"/>
<path d="M167.686 74.272C167.102 73.8283 166.305 74.1107 165.922 74.8872C165.539 75.6637 165.7 76.652 166.295 77.1159C166.88 77.5797 167.676 77.3276 168.06 76.531C168.443 75.7343 168.281 74.7258 167.686 74.272ZM166.466 76.7629C166.023 76.42 165.902 75.6637 166.184 75.0788C166.476 74.4939 167.071 74.2821 167.515 74.625C167.959 74.9679 168.08 75.7242 167.797 76.3293C167.505 76.9243 166.91 77.1158 166.466 76.773V76.7629Z" fill="#FFBF3D"/>
<path d="M156.412 89.2969L156.362 87.5927L157.027 86.8363L157.975 86.9674L158.006 85.6464L159.226 84.2144L160.043 84.3051L159.78 83.3068L162.372 79.5957L164.288 81.9151L158.238 89.8415L156.412 89.2969Z" fill="#FFBF3D"/>
<path d="M156.543 89.5399L156.412 89.2979L157.098 89.4995L156.543 89.5399Z" fill="black"/>
<path d="M171.367 69.0892C170.319 68.5346 168.624 69.6539 167.596 71.6002C167.334 72.0944 167.132 72.6087 167.001 73.1129C167.122 73.1431 167.253 73.1734 167.374 73.2238C167.455 73.2541 167.535 73.2944 167.626 73.3347C167.757 72.8709 167.949 72.3969 168.191 71.933C169.038 70.3699 170.308 69.3413 170.974 69.6943C171.135 69.7749 171.246 69.9363 171.317 70.1682C171.529 70.8741 171.267 72.0742 170.641 73.2238C169.794 74.7869 168.524 75.8155 167.858 75.4626C167.596 75.3214 167.495 74.9987 167.455 74.7062C167.424 74.6961 167.404 74.676 167.374 74.6659C167.182 74.5953 166.991 74.6155 166.829 74.7062C166.89 75.392 167.162 75.9063 167.606 76.1382C167.858 76.2693 168.15 76.3096 168.463 76.2693C168.796 76.2189 169.159 76.0676 169.522 75.8155C170.218 75.3415 170.883 74.565 171.377 73.6373C172.416 71.7011 172.406 69.664 171.357 69.1094L171.367 69.0892Z" fill="black"/>
<path d="M133.208 126.955V128.135V129.325V130.515L133.198 131.695V132.885L135.437 131.765V132.905L136.203 132.502V131.382L136.97 130.999L136.98 129.89V128.79L136.99 127.681V126.572V125.473L133.208 126.955Z" fill="#FFBF3D"/>
<path d="M136.243 122.406V121.276L133.218 122.204V123.394V124.584V125.764L130.727 126.692V127.932L136.99 125.471L137 124.362V123.253L137.01 122.154L136.243 122.406Z" fill="black"/>
<path d="M137.746 129.525V128.436L136.98 128.789V129.888L136.213 130.261L136.203 131.38L136.97 130.997L138.502 130.231L138.512 129.162L137.746 129.525Z" fill="#FF875B"/>
<path d="M135.306 128.415L134.539 128.748V127.588L135.306 127.266V128.415Z" fill="black"/>
<path d="M137 124.363L136.233 124.646V123.526L137 123.254V124.363Z" fill="#FFBF3D"/>
<path d="M135.497 132.872V131.732L131.141 133.911V135.141L128.852 136.331V137.612L129.608 137.198V138.459L130.374 138.025V139.276L131.141 138.822V141.282L135.477 138.56V137.42L136.213 136.976V135.857L136.959 135.423V134.314V133.215L136.97 132.106L135.497 132.872Z" fill="black"/>
<path d="M132.664 141.526V140.326L131.897 140.81V142.02V143.23L132.654 142.726L133.42 142.212V141.032L132.664 141.526Z" fill="#F9F9F9"/>
<path d="M134.711 140.195V139.035L133.954 139.519L133.944 140.689V141.859L134.711 141.344L135.467 140.84V139.701L134.711 140.195Z" fill="#F9F9F9"/>
<path d="M133.218 123.395V124.585V125.765L133.984 125.482V124.312V123.143L133.218 123.395Z" fill="black"/>
<path d="M132.664 137.936L131.897 138.38V137.17L132.664 136.736V137.936Z" fill="black"/>
<path d="M133.964 132.501L133.198 132.884V131.694L133.964 131.331V132.501Z" fill="#F9F9F9"/>
<path d="M134.731 133.267L133.964 133.67V132.5L134.731 132.117V133.267Z" fill="#F9F9F9"/>
<path d="M135.487 134.014L134.721 134.427L134.731 133.267L135.497 132.874L135.487 134.014Z" fill="#F9F9F9"/>
<path d="M136.96 134.316L135.487 135.153V134.013L136.96 133.217V134.316Z" fill="#F9F9F9"/>
</svg>
