<svg width="211" height="220" viewBox="0 0 211 220" fill="none" xmlns="http://www.w3.org/2000/svg">
<g clip-path="url(#clip0_21759_8554)">
<path d="M44.9058 -0.000976562C5.92587 41.5476 10.7364 101.933 17.7325 154.274C17.9465 155.953 18.5662 160.819 18.7577 162.475L18.9267 163.85C18.9379 164.267 19.2647 164.65 19.4562 165.067C19.1858 164.706 18.7802 164.424 18.6225 163.917L18.1831 162.611L17.3044 159.986C0.41685 107.701 -4.40494 36.3089 44.9058 -0.000976562Z" fill="#FFBF3D"/>
<path d="M0.0228184 145.285C1.17194 149.825 2.73789 156.269 4.16866 160.629C5.76841 165.631 7.8188 170.498 9.83539 175.478C3.31245 166.949 -0.303892 156.033 0.0228184 145.285Z" fill="#29C5FF"/>
<path d="M208.565 85.6653L131.315 22.8242L45.8296 86.4426L133.715 171.342L208.565 85.6653Z" fill="#8C8C8C" stroke="#8C8C8C" stroke-width="1.67862" stroke-miterlimit="20"/>
<path d="M45.3455 87.2189L209.286 85.4727V204.384L45.1089 219.187L45.3455 87.2189Z" fill="#8C8C8C"/>
<path d="M191.453 183.51L67.8099 187.081L63.5063 38.4727L187.149 40.0499L191.453 183.51Z" fill="white" stroke="#0F0F0F" stroke-width="1.10406" stroke-miterlimit="20"/>
<path d="M208.983 87.7393L148.587 157.272L137.411 205.783L119.025 157.689L45.3123 88.2688L44.9067 219.088L210.031 205.017L208.983 87.7393Z" fill="#F0F0F0" stroke="#0F0F0F" stroke-width="1.67862" stroke-miterlimit="20"/>
<path d="M45.1089 219.188L134.65 145.655L209.286 204.384" fill="#F0F0F0"/>
<path d="M45.1089 219.188L134.65 145.655L209.286 204.384" stroke="#0F0F0F" stroke-width="1.79127" stroke-miterlimit="20"/>
<path d="M96.9569 103.525C98.4564 103.52 99.6686 102.362 99.6643 100.937C99.6601 99.512 98.4411 98.3605 96.9416 98.365C95.4421 98.3694 94.23 99.5281 94.2342 100.953C94.2384 102.378 95.4574 103.529 96.9569 103.525Z" fill="#FF875B" stroke="#FF875B" stroke-width="1.13785" stroke-miterlimit="20"/>
<path d="M112.346 103.481C113.846 103.476 115.058 102.318 115.054 100.893C115.049 99.468 113.83 98.3166 112.331 98.321C110.831 98.3255 109.619 99.4842 109.623 100.909C109.628 102.334 110.847 103.485 112.346 103.481Z" fill="#FF875B" stroke="#FF875B" stroke-width="1.13785" stroke-miterlimit="20"/>
<path d="M129.369 103.43C130.868 103.426 132.08 102.267 132.076 100.842C132.072 99.4173 130.853 98.2658 129.353 98.2703C127.854 98.2747 126.642 99.4334 126.646 100.858C126.65 102.283 127.869 103.434 129.369 103.43Z" fill="#FF875B" stroke="#FF875B" stroke-width="1.13785" stroke-miterlimit="20"/>
<path d="M143.248 103.389C144.748 103.385 145.96 102.226 145.956 100.801C145.952 99.3762 144.733 98.2248 143.233 98.2292C141.734 98.2337 140.521 99.3924 140.526 100.817C140.53 102.242 141.749 103.393 143.248 103.389Z" fill="#FF875B" stroke="#FF875B" stroke-width="1.13785" stroke-miterlimit="20"/>
<path d="M158.716 103.353C160.215 103.348 161.427 102.19 161.423 100.765C161.419 99.3401 160.2 98.1887 158.7 98.1931C157.201 98.1976 155.989 99.3562 155.993 100.781C155.997 102.206 157.216 103.357 158.716 103.353Z" fill="#FF875B" stroke="#FF875B" stroke-width="1.13785" stroke-miterlimit="20"/>
<path d="M89.9582 53.917L85.7898 54.0184C85.6546 54.0184 85.542 54.1423 85.542 54.2888C85.5532 58.3445 83.6042 62.2312 80.1456 65.0477C80.0329 65.1378 80.0104 65.2955 80.1005 65.4194L82.6241 68.8443C82.7142 68.9569 82.8719 68.9795 82.9846 68.8893C85.1477 67.1431 86.8713 65.0589 88.0993 62.772C89.4287 65.0026 91.2538 66.9967 93.5069 68.6302C93.6196 68.7091 93.7886 68.6866 93.8674 68.5626L96.222 65.0139C96.3009 64.89 96.2671 64.7322 96.1544 64.6534C92.5606 62.0172 90.4201 58.2206 90.2286 54.1761C90.2286 54.0297 90.1046 53.917 89.9694 53.917H89.9582Z" fill="#FF875B" stroke="#FF875B" stroke-width="1.13785" stroke-miterlimit="20"/>
<path d="M45.9648 218.467L134.875 145.645L210.233 205.027L134.03 140.158L45.9648 218.467Z" fill="#0F0F0F"/>
<path d="M45.1431 86.9385L124.094 152.202L117.977 157.902L45.1431 86.9385Z" fill="#0F0F0F"/>
<path d="M149.859 156.213L143.313 151.154L209.793 85.4854L209.827 86.443L149.859 156.213Z" fill="#0F0F0F"/>
</g>
<defs>
<clipPath id="clip0_21759_8554">
<rect width="210.875" height="220" fill="white"/>
</clipPath>
</defs>
</svg>
