<svg width="211" height="220" viewBox="0 0 211 220" fill="none" xmlns="http://www.w3.org/2000/svg">
<g clip-path="url(#clip0_21759_8819)">
<path d="M155.686 65.4254C155.686 83.5445 142.938 98.2315 127.226 98.2315C111.514 98.2315 98.7661 83.2102 98.7661 64.6788C98.7661 46.1474 111.514 31.4604 127.226 31.8615C142.938 32.2738 155.686 47.2951 155.686 65.4143V65.4254Z" fill="#DB3C4E"/>
<path d="M139.207 53.4912L119.684 77.9398L117.032 75.0648L136.566 50.6162L139.207 53.4912Z" fill="white"/>
<path d="M137.49 77.2271L116.307 54.1714L118.747 51.1182L139.931 74.1627L137.49 77.2271Z" fill="white"/>
<path d="M155.686 65.4254C155.686 83.5445 142.938 98.2315 127.226 98.2315C111.514 98.2315 98.7661 83.2102 98.7661 64.6788C98.7661 46.1474 111.514 31.4604 127.226 31.8615C142.938 32.2738 155.686 47.2951 155.686 65.4143V65.4254Z" fill="#DB3C4E"/>
<path d="M139.462 53.7587L119.36 77.7392L116.786 74.7974L136.877 50.8057L139.462 53.7587Z" fill="white"/>
<path d="M137.19 77.4381L116.541 53.9032L119.059 50.8945L139.697 74.4405L137.19 77.4381Z" fill="white"/>
<path d="M114.333 94.5879L140.442 94.4765C144.532 91.9915 148.042 88.4034 150.661 84.0352L104.115 84.2246C106.767 88.5705 110.266 92.1364 114.333 94.5768V94.5879Z" fill="#0F0F0F"/>
<path d="M46.2589 88.4704L208.417 86.7432V204.373L46.0249 219.004L46.2589 88.4704Z" fill="#8C8C8C"/>
<path d="M208.127 88.9824L148.387 157.759L137.322 205.743L119.147 158.172L46.2361 89.5062L45.835 218.903L209.152 204.985L208.127 88.9824Z" fill="#F0F0F0" stroke="#0F0F0F" stroke-width="1.66036" stroke-miterlimit="20"/>
<path d="M46.0249 219.003L134.604 146.271L208.417 204.372" fill="#F0F0F0"/>
<path d="M46.0249 219.003L134.604 146.271L208.417 204.372" stroke="#0F0F0F" stroke-width="1.7718" stroke-miterlimit="20"/>
<path d="M46.8716 218.291L134.815 146.271L209.364 204.997L133.979 140.833L46.8716 218.291Z" fill="#0F0F0F"/>
<path d="M46.0698 88.1914L124.163 152.745L118.101 158.384L46.0698 88.1914Z" fill="#0F0F0F"/>
<path d="M149.636 156.723L143.162 151.708L208.93 86.7646L208.964 87.7007L149.636 156.723Z" fill="#0F0F0F"/>
<path d="M206.791 87.667L47.6074 88.4247L135.128 169.404L206.791 87.667Z" fill="#F0F0F0" stroke="#0F0F0F" stroke-width="1.7718" stroke-miterlimit="20"/>
</g>
<defs>
<clipPath id="clip0_21759_8819">
<rect width="165" height="187.944" fill="white" transform="translate(45 31.8613)"/>
</clipPath>
</defs>
</svg>
