<svg width="180" height="240" viewBox="0 0 180 240" fill="none" xmlns="http://www.w3.org/2000/svg">
<g clip-path="url(#clip0_21759_8336)">
<path d="M140.718 88.3696H18.6094L18.5946 85.4795H140.6L140.718 88.3696Z" fill="#009DD6" stroke="black" stroke-width="1.46513" stroke-miterlimit="10"/>
<path d="M98.2211 86.1137C98.2211 85.8925 98.1916 85.686 98.1916 85.4648H86.4246V88.355H97.9999C98.1326 87.6177 98.2211 86.8657 98.2211 86.0989V86.1137Z" fill="black" stroke="black" stroke-width="1.46513" stroke-miterlimit="10"/>
<path d="M79.5968 100.594C87.594 100.594 94.077 94.1112 94.077 86.114C94.077 78.1168 87.594 71.6338 79.5968 71.6338C71.5996 71.6338 65.1166 78.1168 65.1166 86.114C65.1166 94.1112 71.5996 100.594 79.5968 100.594Z" fill="black" stroke="#0F0F0F" stroke-width="1.46513" stroke-miterlimit="10"/>
<path d="M141.366 100.594C149.364 100.594 155.847 94.1112 155.847 86.114C155.847 78.1168 149.364 71.6338 141.366 71.6338C133.369 71.6338 126.886 78.1168 126.886 86.114C126.886 94.1112 133.369 100.594 141.366 100.594Z" fill="#009DD6" stroke="#0F0F0F" stroke-width="1.46513" stroke-miterlimit="10"/>
<path d="M32.927 86.1156C32.927 85.8944 32.8975 85.688 32.8975 85.4668H21.1305V88.3569H32.7058C32.8385 87.6197 32.927 86.8676 32.927 86.1009V86.1156Z" fill="black" stroke="black" stroke-width="1.46513" stroke-miterlimit="10"/>
<path d="M15.2174 100.594C23.2146 100.594 29.6976 94.1112 29.6976 86.114C29.6976 78.1168 23.2146 71.6338 15.2174 71.6338C7.2202 71.6338 0.737183 78.1168 0.737183 86.114C0.737183 94.1112 7.2202 100.594 15.2174 100.594Z" fill="#009DD6" stroke="black" stroke-width="1.46513" stroke-miterlimit="10"/>
<path d="M94.0772 86.1122C94.0772 80.1402 90.4645 75.0235 85.3035 72.7969C85.2446 74.4189 85.2003 76.0409 85.2003 77.6924C85.2003 84.5049 86.0556 91.4354 87.6186 98.1594C91.5114 95.5641 94.0772 91.1405 94.0772 86.1122Z" fill="#009DD6" stroke="#0F0F0F" stroke-width="1.46513" stroke-miterlimit="10"/>
<path d="M127.963 148.901C101.804 148.901 76.8838 111.831 76.8838 77.7239C76.8838 38.412 97.8668 6.53195 127.963 6.53195V1.04657C127.535 1.01708 127.122 0.987592 126.695 0.972846C82.6788 0.132345 63.1114 35.109 63.1261 77.7091C63.1261 92.9561 66.783 108.483 73.9789 121.946C80.9683 135.025 92.2487 148.326 107.127 152.455C113.468 154.224 120.147 154.445 126.695 154.445C127.122 154.445 127.55 154.431 127.963 154.416V148.886V148.901Z" fill="#29C5FF" stroke="black" stroke-width="1.91931" stroke-miterlimit="10"/>
<path d="M81.4106 63.2567C83.0032 49.499 86.896 37.1717 92.868 27.5723H76.4856C70.027 38.0122 66.4438 49.7792 64.8955 63.2567H81.4106Z" fill="white"/>
<path d="M73.9789 121.945C80.9683 135.024 92.2487 148.325 107.127 152.454C113.468 154.223 120.147 154.444 126.695 154.444C127.122 154.444 127.55 154.43 127.963 154.415V148.885C112.023 148.885 96.5545 135.113 86.8961 116.651H71.3837C72.1947 118.45 73.0499 120.205 73.9789 121.945Z" fill="black" stroke="black" stroke-width="1.46513" stroke-miterlimit="10"/>
<path d="M87.4711 131.87C83.7257 129.024 78.9481 129.01 76.81 131.841L6.17835 220.875C3.49464 224.399 6.08987 230.872 11.9586 235.34C17.8274 239.808 24.7579 240.56 27.4416 237.036L90.3612 142.133C92.5141 139.302 91.2164 134.716 87.4711 131.87Z" fill="#29C5FF" stroke="black" stroke-width="1.46513" stroke-miterlimit="10"/>
<path d="M12.3273 235.62C6.34059 231.402 3.83383 224.767 5.64754 221.891C7.87414 218.367 14.8193 219.031 20.8503 223.174C26.896 227.318 29.8894 233.467 27.5301 236.902C25.1708 240.338 18.6679 240.088 12.3273 235.62Z" fill="black"/>
<path d="M18.5353 221.817L85.2593 131.353C81.8973 129.687 78.8302 130.483 77.5915 132.002L16.2939 209.313L7.66772 220.195C12.8729 218.441 18.5353 221.803 18.5353 221.803V221.817Z" fill="white"/>
<path d="M83.1063 129.613L13.9935 220.093C13.9935 220.093 20.0392 221.523 24.5809 226.359L89.447 133.801L83.1063 129.613Z" fill="black"/>
<path d="M127.963 0.972656C99.7542 0.972656 76.8837 35.33 76.8837 77.709C76.8837 120.088 99.7542 154.445 127.963 154.445C156.171 154.445 179.041 120.088 179.041 77.709C179.041 35.33 156.171 0.972656 127.963 0.972656ZM127.963 148.901C101.804 148.901 80.5848 117.036 80.5848 77.7237C80.5848 38.4118 101.789 6.53176 127.963 6.53176C154.136 6.53176 175.34 38.3971 175.34 77.709C175.34 117.021 154.136 148.886 127.963 148.886V148.901Z" fill="#009DD6" stroke="black" stroke-width="1.7728" stroke-miterlimit="10"/>
<path d="M130.455 148.058C150.641 141.408 165.652 112.256 165.652 77.6475C165.652 43.0395 150.848 14.4035 130.941 7.41406C155.271 9.74387 174.588 40.3853 174.588 77.7213C174.588 115.057 155.006 146.112 130.44 148.073L130.455 148.058Z" fill="black"/>
<path d="M136.825 9.3172C157.911 15.6136 173.851 43.8957 173.851 77.7222C173.851 111.549 157.631 140.303 136.294 146.275C153.871 136.425 166.39 109.293 166.39 77.6485C166.39 59.2607 162.172 41.7429 154.505 28.2948C149.58 19.6539 143.519 13.1953 136.825 9.3172ZM127.962 6.53027C126.857 6.53027 125.765 6.604 124.689 6.72197C147.161 9.25822 164.915 40.0176 164.915 77.6337C164.915 115.25 146.837 146.599 124.07 148.634C125.352 148.796 126.65 148.899 127.962 148.899C154.121 148.899 175.34 117.034 175.34 77.7222C175.34 38.4103 154.121 6.53027 127.962 6.53027Z" fill="black"/>
<path d="M125.898 19.3613C110.548 19.3613 97.6013 33.4434 92.0127 53.4532C98.2059 34.5936 112.539 22.4579 127.756 22.4579C138.196 22.4579 147.618 28.9607 154.343 39.4154C147.56 27.1618 137.341 19.3613 125.898 19.3613Z" fill="white"/>
</g>
<defs>
<clipPath id="clip0_21759_8336">
<rect width="179.926" height="240" fill="white"/>
</clipPath>
</defs>
</svg>
