<svg width="230" height="243" viewBox="0 0 230 243" fill="none" xmlns="http://www.w3.org/2000/svg">
<g clip-path="url(#clip0_21759_8415)">
<path d="M108.282 242.01L37.6003 221.295C36.3976 220.699 36.7362 218.889 38.0791 218.784L129.36 214.335C129.57 214.324 129.78 214.359 129.978 214.44L225.486 226.655C226.724 227.18 226.467 229.013 225.136 229.189L110.921 242.314C110.664 242.349 108.516 242.127 108.282 242.01Z" fill="black" stroke="black" stroke-width="0.980882" stroke-miterlimit="10"/>
<path d="M163.691 7.01855H162.838C135.42 7.01855 113.199 29.2402 113.199 56.6582V105.259C113.199 108.353 115.499 111.132 118.582 111.167L127.316 111.249C130.446 111.272 133.178 108.47 133.178 105.34C133.178 105.34 133.155 69.0944 133.178 67.4362V56.6582C133.178 40.2868 146.455 27.0099 162.827 27.0099H163.679C180.051 27.0099 193.327 40.2868 193.327 56.6582L193.351 111.763L213.295 111.739L213.319 56.6582C213.319 24.943 191.097 7.01855 163.679 7.01855H163.691Z" fill="#8C8C8C" stroke="black" stroke-width="1.10933" stroke-miterlimit="10"/>
<path d="M118.559 111.75C118.57 107.499 118.629 77.4774 118.57 71.4053C118.454 59.4245 118.792 45.0616 121.712 38.3355C123.101 35.136 123.849 32.7071 125.483 30.8154C118.57 36.7474 117.006 47.2569 116.305 55.209C115.791 61.0943 115.943 62.6007 115.826 68.5093C115.698 74.8734 115.569 95.2501 115.441 101.614C115.441 101.999 115.441 111.365 115.429 111.75H118.57H118.559Z" fill="white"/>
<path d="M213.33 59.3901L213.306 56.6576C213.201 42.2013 208.717 30.5942 201.081 22.2683C195.277 15.9393 187.523 11.934 178.929 9.52854C175.099 8.45425 171.28 7.9171 167.135 7.67188C179.244 8.76953 190.91 13.9075 199.212 22.642C207.947 31.8203 212.968 44.3615 213.318 59.3901H213.33Z" fill="white"/>
<path d="M163.691 9.69239C163.691 9.69239 122.202 7.67224 121.501 61.7142V111.085H132.723C133.085 103.495 132.618 52.1739 133.89 44.7239C134.93 38.6635 138.386 31.3419 142.73 27.0096C152.667 17.0957 167.848 16.8972 178.112 20.9492C197.998 28.8079 202.622 40.6836 202.576 78.3308C202.564 89.3774 202.365 100.436 202.365 111.482C202.365 111.552 204.876 111.611 204.876 111.681L213.319 111.751L213.342 63.9212C214.44 30.0574 191.12 9.70407 163.702 9.70407L163.691 9.69239Z" fill="black"/>
<path d="M229.199 110.723C229.199 106.893 226.116 103.775 222.286 103.717L109.018 102.07C110.022 103.168 110.746 104.826 110.746 107.337C110.746 115.417 110.618 238.518 110.618 238.518C110.618 238.518 110.688 240.76 109.181 242.29C109.742 242.407 110.326 242.453 110.91 242.43C124.397 241.764 185.445 238.366 223.91 229.643C227.097 228.919 229.363 226.07 229.351 222.801L229.188 110.723H229.199Z" fill="#FF875B" stroke="black" stroke-width="0.805725" stroke-miterlimit="10"/>
<path d="M107.138 101.72L98.3332 102.923C94.8767 103.401 92.2961 106.741 92.2727 110.233L91.7473 230.472C91.7473 232.586 92.5296 234.98 94.1644 236.323L105.982 241.227C109.181 242.278 110.618 238.506 110.618 238.506C110.618 238.506 110.746 115.406 110.746 107.325C110.746 104.826 110.022 102.771 109.018 101.661C109.018 101.661 107.593 101.591 107.126 101.708L107.138 101.72Z" fill="black"/>
<path d="M113.782 110.127C113.782 107.523 114.833 105.573 119.352 105.573L227.144 106.344C225.883 104.767 224.166 104.09 221.703 104.125L109.87 102.467C110.419 103.296 110.758 104.826 110.758 107.336C110.758 115.417 111.143 179.571 111.143 179.571C111.143 179.571 113.782 117.612 113.782 110.139V110.127Z" fill="white"/>
<path d="M181.195 151.99H172.425C172.133 151.99 171.9 152.259 171.888 152.597C171.666 162.079 167.346 171.071 159.989 177.446C159.755 177.645 159.697 178.03 159.872 178.299L164.94 186.461C165.115 186.741 165.442 186.8 165.687 186.601C170.277 182.643 173.99 177.867 176.687 172.577C179.315 177.867 182.958 182.643 187.5 186.601C187.734 186.8 188.073 186.741 188.248 186.461L193.421 178.299C193.596 178.03 193.549 177.645 193.316 177.446C186.041 171.071 181.837 162.079 181.744 152.597C181.744 152.259 181.51 151.99 181.218 151.99H181.195Z" fill="black"/>
<path d="M96.5701 63.8157C96.5701 63.8157 88.5479 33.9105 85.7337 18.1463L83.9004 32.2173C83.9004 32.2173 75.8432 17.3522 71.219 -0.0117188C73.2508 17.4223 82.7561 60.441 75.8081 65.4155C65.8358 72.5619 44.2331 62.4378 44.2331 62.4378C44.2331 62.4378 59.5185 71.219 55.1746 72.375C50.8307 73.5311 2.86086 55.3848 2.86086 55.3848C2.86086 55.3848 47.9231 80.3038 43.8127 91.1986C39.7023 102.093 0.0116272 105.258 0.0116272 105.258C0.0116272 105.258 78.3071 118.231 69.4441 116.585C68.6734 116.445 54.906 117.589 54.906 117.589L94.1413 121.431C88.7114 120.38 82.5342 119.948 77.7466 116.923C75.5629 115.546 74.0566 113.654 74.9207 111.003C76.3687 106.566 82.0788 106.215 85.8388 107.453C85.8388 107.453 84.2391 103.425 85.5586 101.743C86.9015 100.015 89.6106 100.295 89.6106 100.295C89.6106 100.295 83.4333 89.9609 92.6349 92.2262C92.6349 92.2262 77.5947 51.5897 86.1541 49.5579C91.3738 48.3201 96.5701 63.839 96.5701 63.839V63.8157Z" fill="#F9F9F9"/>
</g>
<defs>
<clipPath id="clip0_21759_8415">
<rect width="229.76" height="242.838" fill="white"/>
</clipPath>
</defs>
</svg>
