<svg width="191" height="240" viewBox="0 0 191 240" fill="none" xmlns="http://www.w3.org/2000/svg">
<g clip-path="url(#clip0_21759_8378)">
<path d="M70.724 239.184L1.2059 218.81C0.0229556 218.224 0.356018 216.444 1.67678 216.341L91.4543 211.965C91.661 211.954 91.8677 211.988 92.063 212.068L185.998 224.082C187.215 224.598 186.963 226.402 185.653 226.574L73.3196 239.483C73.0669 239.517 70.9537 239.299 70.724 239.184Z" fill="black" stroke="black" stroke-width="0.84" stroke-miterlimit="10"/>
<path d="M125.22 0.551758H124.381C97.4149 0.551758 75.5592 22.4075 75.5592 49.3741V83.3923C75.5592 86.4359 77.8217 89.1693 80.8537 89.2037L89.4444 89.2841C92.5224 89.3071 95.2098 86.5507 95.2098 83.4727L95.2213 77.0068C95.2213 76.9264 95.2213 75.9846 95.2213 75.9616C95.2213 75.9616 94.36 74.8131 86.1483 75.4103C85.2065 75.4793 84.4025 74.7213 84.4025 73.7795V62.9837C84.4025 62.0649 85.0916 62.0879 86.0104 62.0764C86.1253 62.0764 90.2369 62.0764 93.5905 62.0764C94.8423 62.0764 95.1869 61.594 95.2098 59.9746V49.3741C95.2098 33.2722 108.268 20.2139 124.37 20.2139H125.208C141.31 20.2139 154.369 33.2722 154.369 49.3741L154.392 103.571L174.008 103.548L174.031 49.3741C174.031 18.1811 152.175 0.551758 125.208 0.551758H125.22Z" fill="#8C8C8C" stroke="black" stroke-width="0.95" stroke-miterlimit="10"/>
<path d="M80.8537 84.3906C80.7963 82.3578 80.9341 72.1821 80.8537 63.8785C80.7389 52.095 81.0719 37.9686 83.9431 31.3533C85.3098 28.2064 86.0449 25.8176 87.6528 23.957C80.8537 29.7914 79.3147 40.1278 78.6256 47.949C78.1203 53.7374 78.2696 55.2189 78.1548 61.0303C78.0284 67.2896 77.9021 73.5488 77.7758 79.8081C77.7528 80.7614 77.7413 81.7261 77.7413 82.6793C77.7413 87.2963 80.0038 87.6064 81.738 87.6293C84.2762 87.6638 88.2959 87.6753 88.6749 87.6523C87.2393 87.3767 80.9571 87.7212 80.8652 84.3906H80.8537Z" fill="white"/>
<path d="M88.1351 88.7091C88.1351 88.7091 90.9949 89.0881 90.8341 82.1972C90.7767 79.5901 90.7882 74.9502 90.7882 74.9502L95.2443 75.9494L95.0835 84.6664L94.4863 86.8945L90.7537 89.4327L88.1351 88.6976V88.7091Z" fill="black"/>
<path d="M174.042 52.061L174.019 49.3735C173.916 35.1552 169.506 23.7392 161.995 15.5505C156.287 9.32565 148.661 5.38633 140.208 3.02044C136.441 1.96382 132.685 1.43552 128.608 1.19434C140.518 2.27392 151.991 7.32727 160.157 15.918C168.748 24.9451 173.686 37.2799 174.031 52.061H174.042Z" fill="white"/>
<path d="M125.22 3.16977C125.22 3.16977 84.414 1.18289 83.7249 54.335V76.6502C83.7249 76.6502 90.0761 75.9726 92.7521 77.6838V75.3179C91.3969 75.1916 89.3296 75.1686 86.1712 75.3983C85.2295 75.4672 84.4255 74.7092 84.4255 73.7675V62.9717C84.4255 62.0529 85.1261 62.1218 86.0334 62.0529L93.8776 62.1792L94.7045 61.984C95.1869 54.2087 94.5897 45.3538 95.9104 37.613C96.9326 31.6523 100.332 24.4513 104.604 20.1904C114.378 10.4397 129.309 10.2445 139.404 14.2297C158.963 21.9591 163.511 33.6392 163.465 70.6665C163.453 81.5313 163.258 92.4075 163.258 103.272C163.258 103.341 165.727 103.399 165.727 103.467L174.031 103.536L174.054 56.4942C175.133 23.188 152.198 3.16977 125.231 3.16977H125.22Z" fill="black"/>
<path d="M95.7841 77.0867C95.7841 76.6962 95.876 75.8693 95.7152 75.6741C95.4395 75.3065 94.1992 74.5945 89.0884 74.7323C89.7315 74.7093 93.5675 75.1113 94.7275 76.5584C95.6233 77.6724 95.7152 82.2664 95.7152 83.3575H95.7496C95.7496 81.3591 95.7841 79.0851 95.7841 77.0752V77.0867Z" fill="white"/>
<path d="M189.65 110.06C189.65 106.293 186.618 103.227 182.851 103.169L71.4476 101.55C72.4353 102.629 73.1473 104.26 73.1473 106.729C73.1473 114.677 73.021 235.751 73.021 235.751C73.021 235.751 73.0899 237.956 71.6084 239.461C72.1596 239.575 72.7339 239.621 73.3081 239.598C86.5732 238.944 146.616 235.602 184.448 227.022C187.583 226.31 189.811 223.508 189.799 220.292L189.639 110.06H189.65Z" fill="#FF875B" stroke="black" stroke-width="0.69" stroke-miterlimit="10"/>
<path d="M69.5985 101.217L60.9389 102.4C57.5394 102.87 55.0012 106.155 54.9782 109.589L54.4614 227.849C54.4614 229.928 55.2309 232.282 56.8388 233.603L68.4615 238.427C71.6084 239.46 73.021 235.751 73.021 235.751C73.021 235.751 73.1473 114.677 73.1473 106.729C73.1473 104.272 72.4353 102.25 71.4476 101.159C71.4476 101.159 70.0464 101.09 69.587 101.205L69.5985 101.217Z" fill="black"/>
<path d="M76.1334 109.475C76.1334 106.913 77.1671 104.995 81.6117 104.995L187.629 105.753C186.388 104.203 184.7 103.537 182.277 103.571L72.286 101.94C72.8258 102.756 73.1588 104.26 73.1588 106.73C73.1588 114.677 73.5378 177.775 73.5378 177.775C73.5378 177.775 76.1334 116.836 76.1334 109.486V109.475Z" fill="white"/>
<path d="M142.436 150.647H133.811C133.523 150.647 133.294 150.912 133.282 151.245C133.064 160.57 128.815 169.414 121.579 175.685C121.349 175.88 121.292 176.259 121.464 176.523L126.449 184.551C126.621 184.827 126.943 184.884 127.184 184.689C131.697 180.795 135.35 176.098 138.003 170.895C140.587 176.098 144.17 180.795 148.638 184.689C148.867 184.884 149.2 184.827 149.373 184.551L154.46 176.523C154.633 176.259 154.587 175.88 154.357 175.685C147.202 169.414 143.067 160.57 142.976 151.245C142.976 150.912 142.746 150.647 142.459 150.647H142.436Z" fill="black"/>
</g>
<defs>
<clipPath id="clip0_21759_8378">
<rect width="190.213" height="240" fill="white"/>
</clipPath>
</defs>
</svg>
