<svg viewBox="0 0 512 512" fill="none" xmlns="http://www.w3.org/2000/svg">
<path d="M293.399 530.237L86.7634 420.297L500.034 420.297L293.399 530.237Z" fill="black"/>
<path d="M292.602 61.7966L499.237 171.737H85.9666L292.602 61.7966Z" fill="black"/>
<rect x="85.8667" y="171.737" width="414.267" height="248.56" fill="black"/>
<path fill-rule="evenodd" clip-rule="evenodd" d="M291.5 61.7966L285.738 71.7698L90.0458 410.512L84.2734 420.503L95.8128 420.52L489.346 421.077L500.93 421.093L495.096 411.085L297.3 71.7474L291.5 61.7966ZM291.538 81.7206L101.585 410.528L483.512 411.069L291.538 81.7206Z" fill="white"/>
<line x1="290.778" y1="69.7461" x2="292.374" y2="531.016" stroke="white" stroke-width="10"/>
<path fill-rule="evenodd" clip-rule="evenodd" d="M501 292.657L291.923 75.1394L86 273.071V259.201L284.994 67.9298L292.203 61L299.133 68.2096L501 278.227V292.657ZM501 322.478L292.833 522.566L86 307.382V321.813L285.624 529.496L292.554 536.706L299.763 529.776L501 336.349V322.478Z" fill="white"/>
</svg>
