<svg width="40" height="40" viewBox="0 0 40 40" fill="none" xmlns="http://www.w3.org/2000/svg">
<circle cx="20" cy="20" r="20" fill="currentColor"/>
<g clip-path="url(#clip0_1406_20324)">
<path d="M29 11.5H11C10.2044 11.5 9.44129 11.8161 8.87868 12.3787C8.31607 12.9413 8 13.7044 8 14.5V25.5C8 26.2956 8.31607 27.0587 8.87868 27.6213C9.44129 28.1839 10.2044 28.5 11 28.5H29C29.7956 28.5 30.5587 28.1839 31.1213 27.6213C31.6839 27.0587 32 26.2956 32 25.5V14.5C32 13.7044 31.6839 12.9413 31.1213 12.3787C30.5587 11.8161 29.7956 11.5 29 11.5ZM11 13.5H29C29.2652 13.5 29.5196 13.6054 29.7071 13.7929C29.8946 13.9804 30 14.2348 30 14.5V15.5C30 15.6326 29.9473 15.7598 29.8536 15.8536C29.7598 15.9473 29.6326 16 29.5 16H10.5C10.3674 16 10.2402 15.9473 10.1464 15.8536C10.0527 15.7598 10 15.6326 10 15.5V14.5C10 14.2348 10.1054 13.9804 10.2929 13.7929C10.4804 13.6054 10.7348 13.5 11 13.5ZM29 26.5H11C10.7348 26.5 10.4804 26.3946 10.2929 26.2071C10.1054 26.0196 10 25.7652 10 25.5V19.5C10 19.3674 10.0527 19.2402 10.1464 19.1464C10.2402 19.0527 10.3674 19 10.5 19H29.5C29.6326 19 29.7598 19.0527 29.8536 19.1464C29.9473 19.2402 30 19.3674 30 19.5V25.5C30 25.7652 29.8946 26.0196 29.7071 26.2071C29.5196 26.3946 29.2652 26.5 29 26.5Z" fill="black"/>
<path d="M16 22.5H13C12.7348 22.5 12.4804 22.6054 12.2929 22.7929C12.1054 22.9804 12 23.2348 12 23.5C12 23.7652 12.1054 24.0196 12.2929 24.2071C12.4804 24.3946 12.7348 24.5 13 24.5H16C16.2652 24.5 16.5196 24.3946 16.7071 24.2071C16.8946 24.0196 17 23.7652 17 23.5C17 23.2348 16.8946 22.9804 16.7071 22.7929C16.5196 22.6054 16.2652 22.5 16 22.5Z" fill="#333332"/>
</g>
<defs>
<clipPath id="clip0_1406_20324">
<rect width="24" height="24" fill="currentColor" transform="translate(8 8)"/>
</clipPath>
</defs>
</svg>
