<svg width="40" height="40" viewBox="0 0 40 40" fill="none" xmlns="http://www.w3.org/2000/svg">
<path d="M27.2589 15.8728C27.3404 17.8603 27.6238 21.2246 27.7601 22.8764C27.77 22.9967 27.7542 23.1177 27.7138 23.2315C27.6734 23.3453 27.6092 23.4491 27.5256 23.5362C27.442 23.6233 27.3408 23.6916 27.2288 23.7366C27.1167 23.7815 26.9964 23.8022 26.8758 23.7971C25.6534 23.74 23.3789 23.6536 20.6579 23.6414C18.0051 23.6293 15.8109 23.7023 14.6213 23.7533C14.5011 23.758 14.3813 23.7372 14.2697 23.6922C14.1582 23.6472 14.0574 23.579 13.9741 23.4923C13.8908 23.4055 13.8268 23.3021 13.7864 23.1888C13.7459 23.0755 13.73 22.9549 13.7395 22.835C13.8745 21.1978 14.1397 17.859 14.226 15.8728C14.2842 14.1866 14.9968 12.5894 16.2127 11.4198C17.4287 10.2502 19.0523 9.60018 20.7394 9.60751V9.60751C22.4275 9.5989 24.0526 10.2483 25.2697 11.4181C26.4869 12.5878 27.2004 14.1857 27.2589 15.8728V15.8728ZM20.7309 12.7103C19.9731 12.7101 19.2322 12.9346 18.602 13.3555C17.9717 13.7763 17.4805 14.3746 17.1903 15.0747C16.9001 15.7748 16.8241 16.5452 16.9718 17.2885C17.1195 18.0318 17.4843 18.7146 18.0201 19.2506C18.5558 19.7865 19.2385 20.1515 19.9818 20.2995C20.725 20.4474 21.4955 20.3716 22.1957 20.0816C22.8958 19.7917 23.4943 19.3006 23.9153 18.6705C24.3364 18.0404 24.5611 17.2996 24.5611 16.5418C24.5611 15.5262 24.158 14.5523 23.4402 13.8338C22.7225 13.1154 21.7489 12.7113 20.7334 12.7103H20.7309Z" fill="url(#paint0_linear_155_7821)"/>
<path d="M20.7993 14.3447C21.0217 14.5999 21.1444 14.927 21.1447 15.2655C21.1408 15.4592 21.0987 15.6502 21.0209 15.8276C20.943 16.0051 20.831 16.1654 20.6911 16.2995C20.5513 16.4336 20.3864 16.5388 20.2058 16.6091C20.0253 16.6794 19.8326 16.7135 19.6389 16.7093C19.4153 16.7107 19.1942 16.6627 18.9912 16.5687C18.7883 16.4747 18.6087 16.337 18.4652 16.1656C18.4384 16.301 18.4246 16.4386 18.4238 16.5767C18.4238 17.81 19.465 18.8098 20.7494 18.8098C22.0339 18.8098 23.0738 17.81 23.0738 16.5767C23.0738 15.3433 22.0606 14.3642 20.7993 14.3447Z" fill="white"/>
<path d="M24.2339 12.0283C24.2043 12.0301 24.1747 12.026 24.1467 12.0162C24.1187 12.0065 24.0929 11.9912 24.0708 11.9714C24.0487 11.9516 24.0308 11.9276 24.0181 11.9009C24.0054 11.8741 23.9981 11.845 23.9967 11.8154C23.9773 11.3167 24.0673 10.295 25.359 9.17964C26.2494 8.41214 27.4888 8.13482 29.0481 8.35376C29.0779 8.35787 29.1065 8.36795 29.1322 8.38341C29.158 8.39886 29.1803 8.41936 29.1979 8.44368C29.2155 8.468 29.2281 8.49563 29.2347 8.52491C29.2414 8.55419 29.242 8.58451 29.2367 8.61405V8.61405C29.2263 8.6692 29.1954 8.71838 29.1503 8.75176C29.1052 8.78514 29.0492 8.80025 28.9934 8.79407C27.5739 8.59337 26.4598 8.83421 25.6765 9.50805C24.5526 10.4811 24.4529 11.3532 24.4602 11.8008C24.4615 11.8583 24.4404 11.9141 24.4014 11.9563C24.3623 11.9985 24.3084 12.0239 24.2509 12.027L24.2339 12.0283Z" fill="white"/>
<path d="M28.7323 9.02531C29.089 9.02531 29.3782 8.74704 29.3782 8.40377C29.3782 8.0605 29.089 7.78223 28.7323 7.78223C28.3756 7.78223 28.0864 8.0605 28.0864 8.40377C28.0864 8.74704 28.3756 9.02531 28.7323 9.02531Z" fill="white"/>
<path d="M17.4822 12.0697C17.5117 12.0717 17.5414 12.0677 17.5694 12.0581C17.5973 12.0485 17.6231 12.0334 17.6452 12.0137C17.6673 11.994 17.6852 11.9701 17.698 11.9433C17.7107 11.9166 17.718 11.8876 17.7194 11.858C17.7401 11.3472 17.6549 10.1832 16.3571 9.0605C15.468 8.293 14.2273 8.01568 12.668 8.23462C12.6383 8.23889 12.6098 8.24908 12.5841 8.26458C12.5585 8.28008 12.5362 8.30058 12.5186 8.32486C12.501 8.34913 12.4885 8.3767 12.4818 8.40591C12.4751 8.43512 12.4743 8.46539 12.4795 8.49491C12.4898 8.55005 12.5207 8.59924 12.5658 8.63262C12.6109 8.666 12.6669 8.68111 12.7227 8.67493C14.1422 8.47423 15.2575 8.71506 16.0396 9.38891C17.1672 10.362 17.2645 11.3764 17.2499 11.8362C17.2482 11.894 17.2691 11.9502 17.3081 11.9929C17.3472 12.0356 17.4013 12.0614 17.4591 12.0648L17.4822 12.0697Z" fill="white"/>
<path d="M13.078 9.02531C13.4347 9.02531 13.7239 8.74704 13.7239 8.40377C13.7239 8.0605 13.4347 7.78223 13.078 7.78223C12.7213 7.78223 12.4321 8.0605 12.4321 8.40377C12.4321 8.74704 12.7213 9.02531 13.078 9.02531Z" fill="white"/>
<path d="M41.5095 31.6815C41.5095 29.666 36.4617 26.4647 36.4617 26.4647L36.4033 26.4477C37.2353 23.0809 37.6634 21.5824 37.7182 19.393C37.8398 14.3927 36.5785 10.1599 33.4087 6.44887C30.4616 2.99816 25.7702 0.996094 20.759 0.996094C15.4327 0.996094 11.3276 3.02614 8.28073 6.38927C5.23384 9.7524 3.70492 13.4002 3.7925 19.337C3.81804 20.9985 4.1951 23.7876 5.00882 26.2883L4.95165 26.3053C4.95165 26.3053 0 29.4459 0 31.6219C0 32.2653 2.67591 33.0815 8.19558 33.3406L5.11707 37.9529C4.99544 38.3457 5.07085 38.8858 5.40047 39.1169C5.72543 39.3308 6.0972 39.463 6.48422 39.5025C7.06927 39.5195 7.25172 39.3504 7.46701 38.9624L10.5577 33.5814C13.8418 33.7115 15.9314 33.7809 19.6886 33.7882V39.9464C19.7105 40.3174 19.8674 40.9949 20.8636 40.9949C21.7685 40.9949 21.9242 40.36 21.9242 39.9464V33.7918C25.6766 33.7845 27.7176 33.8344 30.9956 33.7055L34.2346 38.9028C34.2936 39.0706 34.4059 39.2144 34.5544 39.3121C34.703 39.4099 34.8795 39.4563 35.0569 39.4441C35.373 39.4487 35.684 39.3644 35.9545 39.2008C36.3194 39.0378 36.3194 38.4382 36.1722 37.8945L33.1217 33.4598C38.4492 33.017 41.5095 32.1984 41.5095 31.6815ZM9.54327 31.0904C9.04765 31.0827 8.57536 30.8785 8.23026 30.5227C7.88516 30.1668 7.6955 29.6885 7.70297 29.1929C7.70297 28.1444 8.52642 27.4134 9.54327 27.4134C10.5601 27.4134 11.3836 28.1432 11.3836 29.1929C11.3907 29.6884 11.201 30.1666 10.8559 30.5223C10.5109 30.8781 10.0388 31.0824 9.54327 31.0904V31.0904ZM20.7553 31.195C20.3775 31.2066 20.0048 31.1052 19.6849 30.9037C19.3651 30.7022 19.1127 30.4098 18.96 30.064C18.8073 29.7181 18.7614 29.3346 18.828 28.9625C18.8946 28.5904 19.0708 28.2467 19.334 27.9753C19.5972 27.7039 19.9354 27.5173 20.3053 27.4393C20.6752 27.3614 21.0599 27.3956 21.4103 27.5376C21.7606 27.6796 22.0606 27.923 22.2717 28.2365C22.4829 28.55 22.5957 28.9195 22.5956 29.2975C22.6031 29.7931 22.4134 30.2714 22.0683 30.6273C21.7232 30.9831 21.251 31.1873 20.7553 31.195V31.195ZM31.9662 31.3008C31.5883 31.3124 31.2156 31.211 30.8958 31.0095C30.5759 30.808 30.3235 30.5156 30.1708 30.1698C30.0182 29.824 29.9722 29.4404 30.0389 29.0683C30.1055 28.6962 30.2817 28.3525 30.5449 28.0811C30.808 27.8098 31.1462 27.6231 31.5161 27.5452C31.886 27.4672 32.2708 27.5014 32.6211 27.6434C32.9714 27.7854 33.2714 28.0288 33.4826 28.3423C33.6938 28.6559 33.8065 29.0253 33.8065 29.4033C33.8136 29.8989 33.6239 30.377 33.2788 30.7327C32.9338 31.0885 32.4617 31.2928 31.9662 31.3008ZM34.7893 25.7544C31.2315 24.8482 25.9636 24.8932 20.7541 24.8932C15.5446 24.8932 10.6586 24.7339 6.69951 25.7544C6.10716 23.374 5.64252 20.9985 5.58292 19.1582C5.3056 10.605 11.0831 2.4946 20.7541 2.4946C30.4251 2.4946 36.396 10.6111 36.0263 19.1582C35.9107 21.8487 35.1602 24.3118 34.7893 25.7544Z" fill="white"/>
<path d="M53.3308 13.5133C54.9906 13.5133 56.4166 13.8563 57.6086 14.5423C58.789 15.2173 59.7334 16.2389 60.3137 17.4687C60.9259 18.7337 61.2316 20.2192 61.2308 21.9253C61.2448 23.0904 61.0753 24.2504 60.7284 25.3627C60.417 26.3515 59.9034 27.2648 59.2202 28.0447C58.5426 28.8065 57.6973 29.4007 56.7511 29.7804C55.778 30.1809 54.6598 30.3812 53.3964 30.3812C52.2443 30.4004 51.0999 30.1904 50.0297 29.7633C49.0804 29.3811 48.2318 28.7856 47.5496 28.0228C46.8643 27.2342 46.3521 26.3106 46.0462 25.3116C45.6992 24.2063 45.5276 23.0534 45.5378 21.8949C45.5246 20.7238 45.7038 19.5585 46.0681 18.4454C46.3877 17.4581 46.9106 16.5486 47.6031 15.7756C48.2801 15.0372 49.1155 14.4616 50.0467 14.0922C51.0937 13.6888 52.2089 13.4922 53.3308 13.5133V13.5133ZM57.9418 21.9059C57.9418 20.7115 57.7525 19.6768 57.3738 18.8018C56.9951 17.9269 56.4543 17.2648 55.7512 16.8156C55.0269 16.361 54.1858 16.1273 53.3308 16.1429C52.7118 16.1367 52.0987 16.2636 51.533 16.5151C50.9829 16.7637 50.497 17.1348 50.1124 17.6001C49.681 18.1399 49.3614 18.7601 49.1722 19.4246C48.9349 20.227 48.8197 21.0606 48.8304 21.8974C48.8194 22.7483 48.9354 23.5961 49.1746 24.4127C49.3683 25.0938 49.6994 25.728 50.1476 26.2761C50.5389 26.7492 51.032 27.1275 51.5902 27.383C52.2422 27.6645 52.9516 27.7871 53.6602 27.7408C54.3689 27.6945 55.0563 27.4805 55.6661 27.1166C56.3618 26.6933 56.9153 26.0406 57.3264 25.1583C57.7375 24.2761 57.9423 23.1891 57.9406 21.8974L57.9418 21.9059Z" fill="white"/>
<path d="M66.7588 25.9923V28.5283C66.7588 29.1454 66.6169 29.6072 66.3331 29.9137C66.1966 30.0642 66.0292 30.1834 65.8424 30.2632C65.6555 30.343 65.4536 30.3814 65.2506 30.3759C65.0504 30.3812 64.8516 30.342 64.6684 30.2612C64.4853 30.1805 64.3223 30.0601 64.1911 29.9089C63.9138 29.5975 63.7756 29.1373 63.7764 28.5283V20.0725C63.7764 18.7077 64.2605 18.0254 65.2287 18.0254C65.7249 18.0254 66.0821 18.1847 66.3002 18.5034C66.5184 18.8221 66.64 19.2932 66.6651 19.9168C66.9482 19.3876 67.3183 18.9098 67.7598 18.5034C68.1357 18.1847 68.6356 18.0254 69.2632 18.0254C69.902 18.0272 70.53 18.1904 71.0889 18.4998C71.6792 18.8192 71.9744 19.2421 71.9744 19.7684C71.9796 19.9394 71.9488 20.1095 71.8838 20.2678C71.8188 20.426 71.7212 20.5688 71.5973 20.6867C71.4923 20.7983 71.3662 20.888 71.2263 20.9506C71.0865 21.0132 70.9356 21.0475 70.7824 21.0516C70.5116 21.0127 70.246 20.9438 69.9906 20.846C69.6338 20.7198 69.2595 20.6505 68.8813 20.6405C68.4938 20.6238 68.1135 20.7483 67.8109 20.9908C67.5037 21.2709 67.2805 21.631 67.1663 22.0307C66.9985 22.5639 66.892 23.1143 66.8488 23.6716C66.7888 24.3065 66.7588 25.0801 66.7588 25.9923Z" fill="white"/>
<path d="M76.3531 15.2437V19.8839C76.8496 19.3416 77.4288 18.8814 78.0694 18.5204C78.6516 18.2058 79.3729 18.0481 80.2332 18.0473C81.156 18.0156 82.0664 18.2666 82.8426 18.7665C83.6189 19.2665 84.2239 19.9916 84.5767 20.8448C84.991 21.7546 85.1982 22.8323 85.1982 24.0778C85.2067 24.9338 85.0908 25.7864 84.854 26.609C84.6475 27.331 84.3085 28.0083 83.8542 28.6062C83.4311 29.1582 82.8868 29.6056 82.2632 29.9137C81.6221 30.2259 80.917 30.3842 80.204 30.3759C79.7667 30.3786 79.331 30.3225 78.9086 30.2093C78.5444 30.1149 78.1963 29.9665 77.876 29.769C77.6145 29.6065 77.3701 29.4183 77.1462 29.2071C76.9459 29.0149 76.6815 28.7258 76.3531 28.3398V28.6402C76.3531 29.2079 76.2185 29.6401 75.9493 29.9368C75.8198 30.0798 75.6609 30.1931 75.4835 30.2689C75.3061 30.3446 75.1144 30.3812 74.9215 30.3759C74.7306 30.383 74.5405 30.3469 74.3655 30.2702C74.1905 30.1936 74.035 30.0784 73.9108 29.9332C73.6602 29.6405 73.5345 29.2083 73.5337 28.6366V15.3787C73.5337 14.7632 73.6553 14.2978 73.8986 13.9823C74.0182 13.827 74.1735 13.7028 74.3514 13.6204C74.5293 13.538 74.7245 13.4999 74.9203 13.5092C75.3801 13.5092 75.7336 13.6592 75.9809 13.9592C76.2283 14.2593 76.3523 14.6874 76.3531 15.2437ZM76.4954 24.2676C76.4954 25.4766 76.7667 26.4055 77.3092 27.0542C77.5667 27.3696 77.8935 27.6214 78.2641 27.7902C78.6347 27.9589 79.0392 28.04 79.4462 28.0272C80.1963 28.0272 80.843 27.6952 81.3863 27.0311C81.9296 26.3669 82.2008 25.4158 82.2 24.1776C82.216 23.4732 82.101 22.7721 81.8606 22.1098C81.6717 21.5828 81.3388 21.1192 80.8997 20.7719C80.4819 20.4559 79.97 20.2893 79.4462 20.2987C78.9025 20.2912 78.3704 20.4569 77.927 20.7719C77.4563 21.1208 77.093 21.5949 76.8786 22.1402C76.6087 22.8162 76.4784 23.5399 76.4954 24.2676V24.2676Z" fill="white"/>
<path d="M89.0908 16.6119C88.6994 16.6203 88.3192 16.4814 88.0253 16.2227C87.7302 15.964 87.5826 15.5967 87.5826 15.1207C87.5768 14.9214 87.6144 14.7233 87.6928 14.5399C87.7711 14.3566 87.8883 14.1925 88.0363 14.0589C88.32 13.7877 88.6984 13.638 89.0908 13.6417C89.4681 13.6381 89.8337 13.7727 90.1186 14.0199C90.417 14.2713 90.5662 14.6362 90.5662 15.1146C90.5662 15.5833 90.4207 15.9482 90.1296 16.2093C89.848 16.4721 89.476 16.6163 89.0908 16.6119V16.6119ZM90.5662 19.75V28.5282C90.5662 29.138 90.4239 29.5982 90.1393 29.9088C90.0039 30.0606 89.837 30.181 89.6502 30.2617C89.4634 30.3423 89.2613 30.3813 89.058 30.3758C88.8558 30.3819 88.6549 30.342 88.4703 30.2592C88.2858 30.1764 88.1224 30.0529 87.9925 29.8978C87.7192 29.5783 87.5826 29.1218 87.5826 28.5282V19.8376C87.5826 19.2368 87.7192 18.7843 87.9925 18.4802C88.1259 18.3308 88.2904 18.2125 88.4745 18.1336C88.6586 18.0548 88.8578 18.0174 89.058 18.0241C89.2604 18.0183 89.4616 18.056 89.6482 18.1347C89.8347 18.2134 90.0022 18.3312 90.1393 18.4802C90.4272 18.7851 90.5711 19.2084 90.5711 19.75H90.5662Z" fill="white"/>
<path d="M93.8159 18.2921H94.1444V16.4677C94.1444 15.9811 94.1569 15.5972 94.1821 15.3158C94.1997 15.0639 94.2723 14.8189 94.3949 14.5982C94.515 14.3879 94.6887 14.2132 94.8985 14.0922C95.1193 13.9617 95.3718 13.8944 95.6283 13.8976C96.0144 13.9008 96.3836 14.057 96.6549 14.3318C96.8565 14.5197 96.9926 14.7674 97.0429 15.0385C97.106 15.4301 97.1333 15.8266 97.1244 16.2232V18.2909H98.2191C98.6415 18.2909 98.9659 18.3931 99.1921 18.5974C99.3011 18.6963 99.3874 18.8177 99.4449 18.9531C99.5025 19.0886 99.5299 19.2349 99.5254 19.382C99.5254 19.7874 99.3669 20.0712 99.0498 20.2334C98.7327 20.3956 98.2795 20.4767 97.69 20.4767H97.1317V26.0632C97.1265 26.4288 97.1432 26.7943 97.1815 27.1579C97.2033 27.3873 97.2945 27.6045 97.443 27.7807C97.5849 27.9429 97.8164 28.0239 98.1376 28.0239C98.3769 28.0158 98.6148 27.984 98.8479 27.9291C99.0774 27.8747 99.3116 27.8429 99.5473 27.8342C99.6701 27.8358 99.7913 27.8629 99.9031 27.9138C100.015 27.9646 100.115 28.0382 100.197 28.1298C100.292 28.2254 100.367 28.3394 100.417 28.4648C100.467 28.5903 100.491 28.7246 100.488 28.8596C100.488 29.3461 100.225 29.7207 99.7005 29.9834C99.1759 30.2462 98.4218 30.3759 97.4382 30.3727C96.5048 30.3727 95.7982 30.2133 95.3181 29.8947C94.847 29.5885 94.5093 29.1152 94.373 28.5701C94.223 28.0073 94.1484 27.2544 94.1492 26.3114V20.484H93.7551C93.3258 20.484 92.9974 20.3806 92.7723 20.1726C92.662 20.0734 92.5745 19.9515 92.5159 19.8152C92.4573 19.6789 92.429 19.5315 92.433 19.3832C92.4292 19.2341 92.4592 19.0861 92.5207 18.9502C92.5822 18.8144 92.6736 18.6942 92.7882 18.5987C93.0217 18.3943 93.3643 18.2921 93.8159 18.2921Z" fill="white"/>
<path d="M109.902 24.9463H104.064C104.058 25.5779 104.198 26.2022 104.473 26.7707C104.706 27.2605 105.074 27.6736 105.534 27.9615C105.974 28.2281 106.479 28.3667 106.994 28.3617C107.322 28.3649 107.65 28.3219 107.967 28.234C108.269 28.144 108.556 28.0091 108.818 27.8338C109.087 27.658 109.343 27.4624 109.583 27.2488C109.817 27.042 110.119 26.7582 110.491 26.3973C110.678 26.2531 110.911 26.1818 111.146 26.1966C111.418 26.1848 111.683 26.2766 111.889 26.4533C111.987 26.5459 112.063 26.6587 112.112 26.7837C112.161 26.9087 112.182 27.0429 112.174 27.177C112.153 27.5196 112.043 27.851 111.857 28.1391C111.607 28.5484 111.283 28.907 110.901 29.1961C110.416 29.5645 109.873 29.8482 109.294 30.0354C108.576 30.2695 107.825 30.3825 107.07 30.3698C105.155 30.3698 103.665 29.8136 102.6 28.7011C101.536 27.5885 101.004 26.0791 101.006 24.1727C100.998 23.3239 101.131 22.4798 101.399 21.6744C101.64 20.9432 102.031 20.2705 102.547 19.699C103.066 19.1427 103.705 18.7128 104.416 18.4426C105.197 18.1416 106.027 17.9925 106.864 18.0035C108.03 18.0035 109.03 18.2537 109.863 18.754C110.658 19.2143 111.307 19.8886 111.737 20.7001C112.14 21.4443 112.354 22.2758 112.36 23.1218C112.36 23.8856 112.145 24.3807 111.715 24.6069C111.286 24.8331 110.681 24.9463 109.902 24.9463ZM104.064 23.2215H109.476C109.403 22.1828 109.128 21.4055 108.65 20.8898C108.173 20.3741 107.544 20.1167 106.765 20.1175C106.422 20.1082 106.081 20.1735 105.766 20.309C105.451 20.4445 105.17 20.6468 104.94 20.902C104.46 21.4242 104.168 22.1974 104.066 23.2215H104.064Z" fill="white"/>
<path d="M117.835 25.9923V28.5283C117.835 29.1454 117.693 29.6072 117.409 29.9137C117.273 30.0641 117.106 30.1833 116.919 30.2631C116.733 30.3429 116.531 30.3814 116.328 30.3759C116.128 30.3813 115.929 30.3422 115.745 30.2614C115.562 30.1806 115.399 30.0602 115.267 29.9089C114.99 29.5975 114.852 29.1373 114.853 28.5283V20.0725C114.853 18.7077 115.339 18.0254 116.312 18.0254C116.808 18.0254 117.164 18.1847 117.382 18.5034C117.601 18.8221 117.722 19.2932 117.747 19.9168C118.03 19.3873 118.4 18.9094 118.842 18.5034C119.218 18.1847 119.719 18.0254 120.345 18.0254C120.984 18.0286 121.612 18.193 122.17 18.5034C122.759 18.8229 123.055 19.2458 123.055 19.772C123.061 19.943 123.03 20.1132 122.965 20.2714C122.9 20.4297 122.802 20.5724 122.678 20.6904C122.573 20.8018 122.448 20.8914 122.308 20.954C122.168 21.0166 122.018 21.051 121.865 21.0553C121.593 21.0164 121.327 20.9475 121.072 20.8497C120.715 20.7235 120.341 20.6541 119.962 20.6441C119.575 20.6275 119.195 20.752 118.892 20.9944C118.585 21.2749 118.362 21.6349 118.247 22.0344C118.076 22.5659 117.965 23.1151 117.918 23.6716C117.863 24.3065 117.835 25.0801 117.835 25.9923Z" fill="white"/>
<defs>
<linearGradient id="paint0_linear_155_7821" x1="14.957" y1="12.6301" x2="26.4829" y2="24.5476" gradientUnits="userSpaceOnUse">
<stop stop-color="#EF2F2D"/>
<stop offset="1" stop-color="#89272D"/>
</linearGradient>
</defs>
</svg>
