<svg width="40" height="40" viewBox="0 0 40 40" fill="none" xmlns="http://www.w3.org/2000/svg">
<circle cx="20" cy="20" r="20" fill="#F5F3F0"/>
<circle cx="20" cy="20" r="13" fill="#F5F3F0"/>
<path d="M24.6749 21.6633L21.5658 24.7838C21.3024 25.0482 21.3026 25.478 21.5663 25.742L23.9422 28.1213C24.3471 28.521 25.0091 28.521 25.4141 28.1213L32.6963 20.9337C33.1012 20.5341 33.1012 19.8806 32.6963 19.481L25.4141 12.2997C25.0091 11.9001 24.3471 11.9001 23.9422 12.2997L21.5663 14.6791C21.3026 14.9431 21.3024 15.3729 21.5658 15.6372L24.6749 18.7578C25.4848 19.5571 25.4848 20.864 24.6749 21.6633Z" fill="#0A6E5C"/>
<path d="M15.3251 21.6633L18.4342 24.7838C18.6976 25.0482 18.6974 25.478 18.4337 25.742L16.0578 28.1213C15.6528 28.521 14.9909 28.521 14.5859 28.1213L7.30369 20.9337C6.89877 20.5341 6.89877 19.8806 7.30369 19.481L14.5859 12.2997C14.9909 11.9001 15.6528 11.9001 16.0578 12.2997L18.4337 14.6791C18.6974 14.9431 18.6976 15.3729 18.4342 15.6372L15.3251 18.7578C14.5152 19.5571 14.5152 20.864 15.3251 21.6633Z" fill="#21BF73"/>
<path d="M16.1408 20.8043C15.8128 20.4764 15.8128 19.9447 16.1408 19.6168L19.4064 16.3512C19.7343 16.0233 20.2659 16.0233 20.5938 16.3512L23.8594 19.6168C24.1873 19.9447 24.1873 20.4764 23.8594 20.8043L20.5938 24.0699C20.2659 24.3978 19.7343 24.3978 19.4064 24.0699L16.1408 20.8043Z" fill="#21BF73"/>
</svg>
