<svg width="169" height="100" viewBox="0 0 169 100" fill="none" xmlns="http://www.w3.org/2000/svg">
<rect width="168.667" height="100" fill="#FFBF3D"/>
<g clip-path="url(#clip0_21759_8582)">
<path d="M83.6313 10.408C83.6313 10.408 85.6612 91.2532 85.6444 91.2786C85.6444 91.2786 79.6937 90.3965 79.6768 90.3923C76.7394 89.1768 55.127 75.9418 55.127 51.8604C55.127 33.3668 55.1438 20.2035 55.127 16.1013C55.127 15.6202 55.4182 15.1939 55.8613 15.0167L62.4324 12.3832C73.8864 9.32764 83.6313 10.408 83.6313 10.408Z" fill="#FFBF3D" stroke="black" stroke-width="0.438917" stroke-miterlimit="10"/>
<path d="M79.6767 90.3875L85.7709 91.2738C85.7835 91.2569 82.5043 77.2579 78.1742 60.8154H56.165C60.5078 79.2204 77.1276 89.3366 79.6767 90.3875Z" fill="black" stroke="black" stroke-width="0.438917" stroke-miterlimit="10"/>
<path d="M62.8711 12.26C67.2856 11.1965 89.1724 5.63829 108.029 19.0506C108.248 19.2067 108.379 19.4557 108.388 19.7258L108.692 57.5698C108.704 59.3001 108.324 62.3979 107.717 64.0185C105.936 68.7749 100.871 77.4182 86.3574 91.1892C86.2013 91.3369 85.9692 91.3749 85.775 91.2778C82.5718 89.6783 62.6643 75.0336 62.103 51.1295C62.103 51.1295 62.103 16.5268 62.103 13.3067C62.103 12.872 62.4491 12.3655 62.8711 12.2642V12.26Z" fill="#FFBF3D" stroke="black" stroke-width="0.438917" stroke-miterlimit="10"/>
<path d="M67.2646 17.8777C71.0925 17.1856 87.6701 11.6063 104.433 21.676C104.632 21.7942 104.733 22.0348 104.741 22.2711L105.818 58.6886C105.864 60.2755 105.564 61.8581 104.914 63.3099C103.226 67.0787 98.6304 74.6838 86.2689 86.2011C86.1381 86.3235 85.9397 86.353 85.7794 86.2729C83.053 84.8548 67.0705 74.1182 66.6949 51.7123C66.3531 31.2942 66.6949 18.6712 66.6949 18.6712C66.6865 18.2871 66.8975 17.9453 67.2646 17.8777Z" fill="#FFBF3D" stroke="black" stroke-width="0.438917" stroke-miterlimit="10"/>
<path d="M104.594 63.8743C105.455 62.1439 105.864 60.2236 105.805 58.2907L104.738 22.27C104.729 22.0336 104.628 21.7931 104.43 21.6749C87.6663 11.6093 69.831 17.5389 67.1089 17.9272C72.7304 16.927 87.4806 13.614 101.61 22.0885C101.809 22.2067 101.91 22.4472 101.918 22.6836L102.982 58.6621C102.982 58.6621 103.687 66.9678 84.4925 85.4361C84.4925 85.4361 85.5012 86.1071 85.784 86.2548C85.9528 86.3434 86.1469 86.3181 86.2862 86.1873C97.9344 74.9738 102.674 67.7232 104.59 63.8827L104.594 63.8743Z" fill="black" stroke="black" stroke-width="0.438917" stroke-miterlimit="10"/>
<path d="M63.8878 55.2752C63.8878 55.2752 63.8878 18.4315 63.8878 15.0004C63.8878 14.5361 64.255 13.9959 64.7023 13.8904C68.3445 13.0126 83.1537 9.2649 98.9759 14.2702C82.8288 7.47547 66.7787 11.5439 63.0859 12.4344C62.9002 12.4808 62.7483 12.4893 62.5415 12.7467C62.3052 13.0379 62.322 13.2363 62.322 13.4726C62.322 16.659 62.3305 50.8987 62.3305 50.8987C62.4613 56.4105 63.5122 61.4201 65.2679 65.8894C64.4069 62.5722 63.9806 59.0314 63.892 55.2752H63.8878Z" fill="white"/>
</g>
<defs>
<clipPath id="clip0_21759_8582">
<rect width="75" height="84.9221" fill="white" transform="translate(37 10)"/>
</clipPath>
</defs>
</svg>
