<svg width="64" height="104" viewBox="0 0 64 104" fill="none" xmlns="http://www.w3.org/2000/svg">
<g clip-path="url(#clip0_21759_8663)">
<path d="M64 0H0V104H64V0Z" fill="#FF875B"/>
<path d="M27.3398 93.0798L12.4498 30.9498C11.7198 27.9098 12.9998 24.7298 15.6498 23.0498L36.1298 10.0398C37.3098 9.28981 38.7298 9.35981 39.7998 10.0198C37.5898 7.63981 34.6498 7.59981 33.3598 8.62981L11.9298 22.2398C8.86977 24.1798 7.38977 27.8498 8.22977 31.3698L22.4598 90.7698C23.1798 93.7898 29.3298 96.7198 31.9198 94.9998V94.9798C30.1498 96.0498 27.8298 95.0998 27.3398 93.0598V93.0798Z" fill="#8C8C8C" stroke="#0F0F0F" stroke-width="0.5" stroke-miterlimit="10"/>
<path d="M30.8798 88.4502L33.2298 93.9302L31.9198 95.0102C29.3298 96.7302 23.1898 93.8002 22.4598 90.7802L21.0698 84.9902L30.8798 88.4502Z" fill="#0F0F0F" stroke="#0F0F0F" stroke-width="0.6" stroke-miterlimit="10"/>
<path d="M56.1 72.8801L41.35 12.1501C40.79 9.85005 38.13 8.78005 36.13 10.0401L15.65 23.0501C13.01 24.7301 11.72 27.9001 12.45 30.9501L27.33 93.0801C27.83 95.1601 30.24 96.1101 32.03 94.9301L52.89 81.0801C55.58 79.2901 56.86 76.0201 56.1 72.8801Z" fill="#8C8C8C" stroke="#0F0F0F" stroke-width="0.5" stroke-miterlimit="10"/>
<path d="M54.6798 72.03L40.9598 13.9C40.4398 11.7 37.9898 10.66 36.1598 11.87L33.6098 13.55L32.6798 16.87C32.5098 17.48 32.1298 18 31.5998 18.35L23.2098 23.97C22.4598 24.47 21.5098 24.56 20.6898 24.2L18.7298 23.36L17.3598 24.27C14.9298 25.87 13.7598 28.9 14.4398 31.82L28.2898 91.3C28.7598 93.29 30.9798 94.21 32.6198 93.08L51.7698 79.89C54.2398 78.19 55.4098 75.05 54.6998 72.05L54.6798 72.03Z" fill="#FF875B" stroke="#0F0F0F" stroke-width="0.6" stroke-miterlimit="10"/>
<path d="M24.05 20.7598C24.11 20.9398 24.32 20.9798 24.52 20.8398L30.6 16.7498C30.8 16.6198 30.91 16.3598 30.85 16.1798C30.79 15.9998 30.58 15.9598 30.38 16.0998L24.3 20.1898C24.1 20.3198 23.99 20.5798 24.05 20.7598Z" fill="#0F0F0F"/>
<path d="M22.6798 22.3798C22.9898 22.3598 23.2198 22.0398 23.1898 21.6798C23.1598 21.3098 22.8898 21.0298 22.5898 21.0498C22.2798 21.0698 22.0498 21.3898 22.0798 21.7498C22.1098 22.1198 22.3798 22.3998 22.6798 22.3798Z" fill="#0F0F0F"/>
<path d="M23.4798 70.6898L26.7598 21.5898L23.1998 23.9698C22.5398 24.4098 21.7198 24.5298 20.9698 24.3098L18.7798 50.5598L23.4698 70.6998L23.4798 70.6898Z" fill="#FFCBB8"/>
<path d="M17.3101 44.16L17.8301 46.38L19.8201 23.82L19.1801 23.54L17.3101 44.15V44.16Z" fill="#FFCBB8"/>
<path d="M54.6798 72.03L40.9598 13.9C40.4398 11.7 37.9898 10.66 36.1598 11.87L33.6098 13.55L32.6798 16.87C32.5098 17.48 32.1298 18 31.5998 18.35L23.2098 23.97C22.4598 24.47 21.5098 24.56 20.6898 24.2L18.7298 23.36L17.3598 24.27C14.9298 25.87 13.7598 28.9 14.4398 31.82L28.2898 91.3C28.7598 93.29 30.9798 94.21 32.6198 93.08L51.7698 79.89C54.2398 78.19 55.4098 75.05 54.6998 72.05L54.6798 72.03Z" stroke="#0F0F0F" stroke-width="0.5" stroke-miterlimit="10"/>
<path d="M20.3302 81.3705L24.9602 82.6305L13.9802 37.3005L9.4502 36.4805L20.3302 81.3805V81.3705Z" fill="#0F0F0F" stroke="#0F0F0F" stroke-width="0.6" stroke-miterlimit="10"/>
<path d="M12.1701 31.0704C11.5601 28.4904 12.2101 25.7704 14.3301 23.7004L11.2601 23.1104C8.99013 24.9904 8.04013 27.8104 8.38013 30.5404L12.1701 31.0704Z" fill="#F8F8F8"/>
<path d="M34.4602 45.7698L32.2702 46.9598C32.2002 46.9998 32.1602 47.1098 32.1902 47.1998C33.0002 49.8798 32.7102 52.9898 31.3402 55.7898C31.3002 55.8798 31.3202 55.9898 31.3902 56.0498L33.5302 57.6398C33.6002 57.6898 33.7002 57.6698 33.7502 57.5798C34.6002 55.8398 35.1202 53.9898 35.3002 52.1398C36.5102 53.2598 37.9602 54.0898 39.5702 54.5698C39.6502 54.5898 39.7302 54.5298 39.7502 54.4298L40.2002 51.4398C40.2102 51.3398 40.1602 51.2398 40.0802 51.2198C37.5602 50.4398 35.5902 48.5098 34.6602 45.8698C34.6302 45.7798 34.5402 45.7298 34.4702 45.7698H34.4602Z" fill="white"/>
</g>
<defs>
<clipPath id="clip0_21759_8663">
<rect width="64" height="104" fill="white"/>
</clipPath>
</defs>
</svg>
