<svg width="170" height="100" viewBox="0 0 170 100" fill="none" xmlns="http://www.w3.org/2000/svg">
<g clip-path="url(#clip0_21759_8596)">
<rect width="168.667" height="100" transform="translate(0.666504)" fill="#595959"/>
<rect x="91" y="8" width="70" height="16" rx="8" fill="#0F0F0F"/>
<path d="M100.07 20.08C98.56 20.08 97.56 19.14 97.56 17.73V15.26C97.56 13.85 98.56 12.92 100.07 12.92C101.57 12.92 102.57 13.82 102.57 15.17C102.57 15.24 102.52 15.29 102.45 15.29L101.53 15.34C101.45 15.34 101.41 15.32 101.41 15.29V15.23C101.41 14.44 100.88 13.92 100.07 13.92C99.26 13.92 98.72 14.44 98.72 15.23V17.78C98.72 18.56 99.26 19.08 100.07 19.08C100.88 19.08 101.41 18.56 101.41 17.78C101.41 17.71 101.45 17.67 101.53 17.67L102.45 17.71C102.52 17.71 102.57 17.73 102.57 17.76V17.81C102.57 19.18 101.57 20.08 100.07 20.08ZM105.864 20.08C104.814 20.08 104.014 19.51 103.714 18.57C103.614 18.25 103.544 17.83 103.544 17.43C103.544 17.02 103.604 16.6 103.704 16.29C104.014 15.36 104.804 14.81 105.874 14.81C106.894 14.81 107.664 15.36 107.974 16.28C108.094 16.6 108.154 17.02 108.154 17.42C108.154 17.83 108.094 18.23 107.984 18.56C107.684 19.51 106.894 20.08 105.864 20.08ZM105.864 19.08C106.354 19.08 106.724 18.78 106.884 18.28C106.954 18.05 106.984 17.74 106.984 17.44C106.984 17.11 106.954 16.81 106.884 16.6C106.734 16.1 106.364 15.81 105.844 15.81C105.344 15.81 104.974 16.1 104.814 16.6C104.754 16.81 104.714 17.11 104.714 17.44C104.714 17.75 104.754 18.07 104.814 18.28C104.964 18.78 105.344 19.08 105.864 19.08ZM114.721 14.81C115.741 14.81 116.361 15.46 116.361 16.57V19.88C116.361 19.95 116.311 20 116.241 20H115.331C115.261 20 115.211 19.95 115.211 19.88V16.81C115.211 16.2 114.851 15.81 114.311 15.81C113.771 15.81 113.381 16.19 113.381 16.8V19.88C113.381 19.95 113.331 20 113.261 20H112.351C112.281 20 112.231 19.95 112.231 19.88V16.81C112.231 16.2 111.871 15.81 111.321 15.81C110.821 15.81 110.471 16.12 110.411 16.63V19.88C110.411 19.95 110.361 20 110.291 20H109.371C109.301 20 109.251 19.95 109.251 19.88V15.01C109.251 14.94 109.301 14.89 109.371 14.89H110.291C110.361 14.89 110.411 14.94 110.411 15.01V15.34C110.411 15.38 110.441 15.4 110.471 15.36C110.771 14.98 111.231 14.81 111.741 14.81C112.401 14.81 112.901 15.09 113.171 15.59C113.191 15.62 113.211 15.62 113.241 15.59C113.551 15.04 114.111 14.81 114.721 14.81ZM118.202 14.19C117.792 14.19 117.492 13.89 117.492 13.48C117.492 13.06 117.792 12.77 118.202 12.77C118.612 12.77 118.912 13.06 118.912 13.48C118.912 13.89 118.612 14.19 118.202 14.19ZM117.722 20C117.652 20 117.602 19.95 117.602 19.88V15C117.602 14.93 117.652 14.88 117.722 14.88H118.642C118.712 14.88 118.762 14.93 118.762 15V19.88C118.762 19.95 118.712 20 118.642 20H117.722ZM122.541 14.81C123.621 14.81 124.321 15.49 124.321 16.6V19.88C124.321 19.95 124.271 20 124.201 20H123.281C123.211 20 123.161 19.95 123.161 19.88V16.84C123.161 16.23 122.791 15.81 122.211 15.81C121.641 15.81 121.251 16.22 121.251 16.83V19.88C121.251 19.95 121.201 20 121.131 20H120.211C120.141 20 120.091 19.95 120.091 19.88V15.01C120.091 14.94 120.141 14.89 120.211 14.89H121.131C121.201 14.89 121.251 14.94 121.251 15.01V15.33C121.251 15.37 121.281 15.39 121.301 15.35C121.581 14.98 122.011 14.81 122.541 14.81ZM128.66 15.01C128.66 14.94 128.71 14.89 128.78 14.89H129.7C129.77 14.89 129.82 14.94 129.82 15.01V19.66C129.82 21.72 128.21 22.11 126.62 21.95C126.54 21.94 126.51 21.89 126.51 21.82L126.54 21C126.54 20.92 126.59 20.89 126.68 20.89C127.99 21.01 128.66 20.74 128.66 19.63V19.55C128.66 19.51 128.63 19.5 128.6 19.53C128.35 19.8 127.98 19.97 127.44 19.97C126.66 19.97 125.8 19.6 125.5 18.63C125.4 18.27 125.37 17.85 125.37 17.42C125.37 16.95 125.4 16.51 125.53 16.15C125.79 15.36 126.47 14.81 127.37 14.81C127.93 14.81 128.32 14.98 128.6 15.27C128.63 15.31 128.66 15.29 128.66 15.25V15.01ZM128.59 18.3C128.64 18.11 128.66 17.95 128.66 17.41C128.66 16.88 128.64 16.74 128.58 16.54C128.48 16.12 128.15 15.81 127.63 15.81C127.12 15.81 126.8 16.13 126.66 16.54C126.58 16.73 126.54 17 126.54 17.42C126.54 17.86 126.58 18.14 126.64 18.29C126.77 18.7 127.12 19.02 127.64 19.02C128.18 19.02 128.49 18.7 128.59 18.3ZM135.39 20.08C133.81 20.08 132.82 19.29 132.82 18.07V17.82C132.82 17.75 132.87 17.7 132.94 17.7H133.83C133.9 17.7 133.95 17.75 133.95 17.82V18.01C133.95 18.6 134.51 19.08 135.48 19.08C136.34 19.08 136.71 18.66 136.71 18.15C136.71 17.57 136.19 17.34 135.11 16.92C134.02 16.52 132.93 16.09 132.93 14.82C132.93 13.63 133.87 12.92 135.28 12.92C136.8 12.92 137.82 13.75 137.82 14.98V15.15C137.82 15.22 137.77 15.27 137.7 15.27H136.8C136.73 15.27 136.68 15.22 136.68 15.15V15.04C136.68 14.44 136.17 13.92 135.23 13.92C134.49 13.92 134.07 14.24 134.07 14.8C134.07 15.41 134.55 15.61 135.7 16.03C136.72 16.42 137.87 16.84 137.87 18.12C137.87 19.32 136.93 20.08 135.39 20.08ZM141.099 20.08C140.049 20.08 139.249 19.51 138.949 18.57C138.849 18.25 138.779 17.83 138.779 17.43C138.779 17.02 138.839 16.6 138.939 16.29C139.249 15.36 140.039 14.81 141.109 14.81C142.129 14.81 142.899 15.36 143.209 16.28C143.329 16.6 143.389 17.02 143.389 17.42C143.389 17.83 143.329 18.23 143.219 18.56C142.919 19.51 142.129 20.08 141.099 20.08ZM141.099 19.08C141.589 19.08 141.959 18.78 142.119 18.28C142.189 18.05 142.219 17.74 142.219 17.44C142.219 17.11 142.189 16.81 142.119 16.6C141.969 16.1 141.599 15.81 141.079 15.81C140.579 15.81 140.209 16.1 140.049 16.6C139.989 16.81 139.949 17.11 139.949 17.44C139.949 17.75 139.989 18.07 140.049 18.28C140.199 18.78 140.579 19.08 141.099 19.08ZM146.655 20.08C145.605 20.08 144.805 19.51 144.505 18.57C144.405 18.25 144.335 17.83 144.335 17.43C144.335 17.02 144.395 16.6 144.495 16.29C144.805 15.36 145.595 14.81 146.665 14.81C147.685 14.81 148.455 15.36 148.765 16.28C148.885 16.6 148.945 17.02 148.945 17.42C148.945 17.83 148.885 18.23 148.775 18.56C148.475 19.51 147.685 20.08 146.655 20.08ZM146.655 19.08C147.145 19.08 147.515 18.78 147.675 18.28C147.745 18.05 147.775 17.74 147.775 17.44C147.775 17.11 147.745 16.81 147.675 16.6C147.525 16.1 147.155 15.81 146.635 15.81C146.135 15.81 145.765 16.1 145.605 16.6C145.545 16.81 145.505 17.11 145.505 17.44C145.505 17.75 145.545 18.07 145.605 18.28C145.755 18.78 146.135 19.08 146.655 19.08ZM152.492 14.81C153.572 14.81 154.272 15.49 154.272 16.6V19.88C154.272 19.95 154.222 20 154.152 20H153.232C153.162 20 153.112 19.95 153.112 19.88V16.84C153.112 16.23 152.742 15.81 152.162 15.81C151.592 15.81 151.202 16.22 151.202 16.83V19.88C151.202 19.95 151.152 20 151.082 20H150.162C150.092 20 150.042 19.95 150.042 19.88V15.01C150.042 14.94 150.092 14.89 150.162 14.89H151.082C151.152 14.89 151.202 14.94 151.202 15.01V15.33C151.202 15.37 151.232 15.39 151.252 15.35C151.532 14.98 151.962 14.81 152.492 14.81Z" fill="white"/>
<g clip-path="url(#clip1_21759_8596)">
<path d="M80.4004 31.1807C59.4132 31.1807 42.4043 41.8007 42.4043 54.9004C42.4043 68.0002 59.4171 78.6202 80.4004 78.6202C101.384 78.6202 118.396 68.0002 118.396 54.9004C118.396 41.8007 101.388 31.1807 80.4004 31.1807ZM80.3314 61.7876C69.0483 61.7876 59.9038 57.8477 59.9038 52.988C59.9038 48.1283 69.0483 44.1884 80.3314 44.1884C91.6145 44.1884 100.759 48.1283 100.759 52.988C100.759 57.8477 91.6145 61.7876 80.3314 61.7876Z" fill="#FF875B" stroke="#0F0F0F" stroke-width="0.7" stroke-miterlimit="10"/>
<path d="M64.3802 45.155C64.2307 42.8287 60.6549 38.3024 55.5308 38.1069C51.4721 37.9498 48.0918 40.7399 46.9229 43.4917C48.2374 42.7328 50.0042 42.2883 51.7059 42.3534C56.9182 42.5565 60.5553 47.2706 60.7048 49.6928C60.7354 50.1795 60.6435 50.5283 60.5783 50.9729C63.6137 48.6618 64.5565 47.8723 64.3802 45.155Z" fill="#F9F9F9" stroke="#F9F9F9" stroke-width="0.310438" stroke-miterlimit="10"/>
<path d="M94.8755 32.9704C92.4955 32.3572 89.989 31.882 87.3944 31.5831C87.2832 31.5716 87.1759 31.6099 87.0993 31.6942C85.6314 33.346 84.4816 35.7797 84.0025 38.6043C83.6576 40.6317 83.7381 42.5557 84.1022 44.2535C84.1099 44.288 84.1405 44.3148 84.1788 44.3187C86.9843 44.5486 89.4984 44.974 91.7712 45.6409C91.3841 43.9201 91.3764 41.9961 91.729 39.9227C92.2157 37.0713 93.3885 34.6261 94.8755 32.9743V32.9704Z" fill="#F9F9F9" stroke="#F9F9F9" stroke-width="0.310438" stroke-miterlimit="10"/>
<path d="M91.6609 43.4561C91.6609 43.4561 91.7375 45.5755 92.6727 45.8667L91.9253 45.633C91.9253 45.633 91.6341 44.3682 91.6571 43.4561H91.6609Z" fill="#0F0F0F"/>
<path d="M95.0522 33.0085C95.0522 33.0085 95.1442 32.882 95.1634 32.8858C95.2324 32.8973 95.2707 33.0698 95.2707 33.0698L95.0522 33.0123V33.0085Z" fill="#0F0F0F"/>
<path d="M81.2201 73.8727C60.2329 73.8727 43.224 63.2527 43.224 50.1529C43.224 50.0954 43.224 50.038 43.224 49.9805C42.6874 51.5672 42.4038 53.2113 42.4038 54.8977C42.4038 67.9974 59.4166 78.6174 80.3999 78.6174C101.383 78.6174 118.243 68.0932 118.396 55.074C114.767 65.8128 99.5014 73.8727 81.2201 73.8727Z" fill="#0F0F0F"/>
<path d="M117.852 58.3917C117.756 58.7366 117.649 59.0815 117.53 59.4226C113.812 70.0848 98.6046 78.0719 80.4037 78.0719C59.5431 78.0719 42.6108 67.5783 42.4115 54.5859C42.4115 54.6894 42.4038 54.7929 42.4038 54.8964C42.4038 67.9961 59.4166 78.6161 80.3999 78.6161C96.3779 78.6161 110.079 72.4495 115.694 63.7304C116.786 62.0365 117.545 60.2505 117.986 58.3917H117.852Z" fill="#0F0F0F" stroke="#0F0F0F" stroke-width="0.8" stroke-miterlimit="10"/>
<path d="M109.612 59.4316C105.89 65.8971 94.5805 70.0631 82.4121 69.9213C89.2532 71.0826 96.47 69.3273 101.199 67.3612C105.04 65.763 108.838 61.7848 109.612 59.4277V59.4316Z" fill="#FF9D7A"/>
<path d="M110.225 49.5625C106.585 48.8228 103.047 50.0262 100.897 52.4101C100.797 52.5212 100.744 52.6668 100.751 52.8125C100.751 52.87 100.755 52.9275 100.755 52.9849C100.755 54.1079 100.265 55.181 99.3755 56.1698C101.575 54.6406 104.553 53.9891 107.612 54.61C112.341 55.5719 115.886 59.3968 116.078 63.4479C116.078 63.467 116.105 63.4747 116.112 63.4555C117.155 61.7385 117.891 59.9296 118.274 58.0516C118.293 57.9596 118.297 57.8676 118.289 57.7757C117.879 53.9546 114.568 50.444 110.222 49.5625H110.225Z" fill="#F9F9F9" stroke="#F9F9F9" stroke-width="0.310438" stroke-miterlimit="10"/>
<path d="M69.5423 69.2612C70.5924 65.8272 72.5202 63.0294 74.7354 61.3469C74.7622 61.2741 73.3978 61.527 69.0057 60.1128C65.771 59.0742 65.8975 59.0589 65.6024 58.9286C65.4874 58.8787 65.3916 58.8327 65.3418 58.8634C62.8736 60.4079 60.6967 63.3207 59.5737 66.9884C58.7382 69.7249 58.6348 72.3579 59.1253 74.6498C59.1368 74.7034 59.2748 74.8222 59.3629 74.8682C59.4089 74.8912 60.8232 75.4431 63.1495 76.2326C65.0888 76.8918 67.4918 77.4054 69.2165 77.7388C69.1628 77.7196 69.1398 77.712 69.1283 77.6507C68.5381 75.2093 68.6263 72.2544 69.5423 69.2612Z" fill="#F9F9F9" stroke="#F9F9F9" stroke-width="0.310438" stroke-miterlimit="10"/>
<path d="M58.8761 69.3389C58.5849 71.1823 58.6155 72.999 58.9758 74.6853C59.0065 74.8233 59.2211 74.9727 59.2939 75.0072C59.3514 75.0379 60.7924 75.5975 63.0996 76.3793C64.6212 76.8967 66.6678 77.4064 69.1858 77.8893L69.2662 77.5981C69.2662 77.5981 69.2739 77.6096 69.2777 77.6134C68.906 76.0765 68.8178 74.3672 69.0056 72.6195C65.3455 71.8454 61.9384 70.7301 58.8723 69.3389H58.8761Z" fill="#666666"/>
<path d="M118.447 57.761C118.381 57.1593 118.247 56.5691 118.052 55.998C117.385 57.6422 116.442 59.2136 115.258 60.7006C115.645 61.5821 115.879 62.5096 115.925 63.4562C115.929 63.5329 115.982 63.598 116.055 63.6172C116.07 63.6172 116.086 63.621 116.097 63.621C116.158 63.621 116.212 63.5904 116.247 63.5367C117.316 61.7814 118.048 59.9456 118.427 58.083C118.45 57.9757 118.454 57.8645 118.443 57.7572L118.447 57.761Z" fill="#666666"/>
<path d="M80.3309 43.167C69.0478 43.167 59.9033 47.1069 59.9033 51.9666C59.9033 52.3537 59.9685 52.7369 60.0796 53.1125C60.0796 53.0704 60.072 53.032 60.072 52.9899C60.072 48.2298 69.159 44.3589 80.3271 44.3589C91.4952 44.3589 100.582 48.2298 100.582 52.9899C100.582 53.032 100.575 53.0704 100.575 53.1125C100.69 52.7369 100.751 52.3575 100.751 51.9666C100.751 47.1069 91.6063 43.167 80.3233 43.167H80.3309Z" fill="#0F0F0F"/>
<path d="M83.9498 44.2846C83.9728 44.388 84.061 44.4647 84.1644 44.4724C87.0504 44.71 89.5224 45.1392 91.7261 45.7869L91.979 45.8597L91.9216 45.603C91.8526 45.2964 91.8027 44.9821 91.7568 44.664C89.3997 43.9779 86.6939 43.4989 83.7773 43.2881C83.8233 43.6215 83.877 43.955 83.9498 44.2807V44.2846Z" fill="#666666"/>
<path d="M60.5472 49.7605C60.5625 50.0978 60.5165 50.366 60.4629 50.6765C60.4475 50.7646 60.4322 50.8528 60.4169 50.9486L60.3594 51.3319L60.666 51.0981C63.276 49.1128 64.3337 48.2121 64.5177 46.3955C62.6704 47.369 61.2945 48.5111 60.5433 49.7643L60.5472 49.7605Z" fill="#666666"/>
<path d="M80.4613 28.828C67.1316 29.3608 53.1887 32.5226 42.768 41.2072C30.6111 51.6012 32.7765 65.111 45.5121 73.7611C63.6095 86.1135 93.8255 86.5465 112.931 76.1794C115.901 74.5813 118.684 72.5692 121.121 70.2351C102.629 90.4328 53.7138 90.4289 36.8045 68.1694C29.6223 58.4461 32.7612 47.2014 41.7639 40.0191C52.5334 31.3959 66.9553 28.5176 80.4613 28.828Z" fill="#404040"/>
<path d="M40.0966 31.1807C33.9492 35.5076 28.0854 40.6969 24.9312 47.6416C23.7316 50.3358 22.9651 53.2026 22.7313 56.192C22.5243 53.5322 22.9306 50.8149 23.8159 48.2663C26.4834 40.5935 32.9872 34.7603 40.0966 31.1807Z" fill="#404040"/>
<path d="M80.3994 91.1676C95.4193 90.7537 111.321 87.3197 123.799 78.6275C137.696 68.9426 142.897 53.7503 131.127 39.9262C128.295 36.5957 124.846 33.8401 121.182 31.4639C123.075 32.5715 124.911 33.7787 126.647 35.124C141.583 46.6562 142.621 63.7839 128.28 76.3509C115.241 87.4615 97.1976 91.4397 80.3994 91.1638V91.1676Z" fill="#404040"/>
<path d="M88.7544 56.5333C84.1706 59.0628 76.4787 59.0321 72.144 55.9775C77.0612 58.1506 83.6686 58.1468 88.7544 56.5333Z" fill="#404040"/>
<path d="M86.1103 54.6869C83.3585 56.5381 78.4298 56.5419 75.7202 54.6064C76.1188 54.8249 76.5289 55.0012 76.9543 55.1353C79.8939 55.99 83.301 55.99 86.1103 54.6869Z" fill="#404040"/>
<path d="M75.3188 51.6775C77.8521 49.3281 84.0455 49.3281 86.598 51.6507C86.1956 51.3594 85.7549 51.1294 85.2911 50.9608C82.3745 49.9337 77.9364 49.8954 75.3149 51.6775H75.3188Z" fill="#404040"/>
<path d="M80.5912 41.2844C92.43 41.2844 102.061 45.3507 102.379 50.4174C102.383 50.3254 102.387 50.2372 102.387 50.1453C102.387 44.6685 92.6293 40.2266 80.5912 40.2266C68.5531 40.2266 58.7954 44.6685 58.7954 50.1453C58.7954 50.2372 58.7954 50.3254 58.8031 50.4174C59.1212 45.3507 68.7524 41.2844 80.5912 41.2844Z" fill="#F9F9F9"/>
<path d="M118.591 58.5139L118.48 58.4871C118.357 58.4602 118.085 58.6365 117.878 58.8742C117.671 59.1118 117.606 59.3302 117.733 59.3571L117.851 59.3877C119.204 59.7327 119.499 60.2731 119.292 60.6716C119.066 61.1086 118.192 61.35 116.817 61.0242C116.652 60.9859 116.479 61.0396 116.372 61.1699L116.088 61.5148C115.885 61.7639 116.016 62.1433 116.326 62.2162C118.955 62.8332 120.293 62.2085 120.68 61.143C121.101 59.9894 120.458 58.9661 118.587 58.5139H118.591Z" fill="#666666"/>
<path d="M118.591 58.5139L118.48 58.4871C118.357 58.4602 118.085 58.6365 117.878 58.8742C117.671 59.1118 117.606 59.3302 117.733 59.3571L117.851 59.3877C119.204 59.7327 119.499 60.2731 119.292 60.6716C119.066 61.1086 118.192 61.35 116.817 61.0242C116.652 60.9859 116.479 61.0396 116.372 61.1699L116.088 61.5148C115.885 61.7639 116.016 62.1433 116.326 62.2162C118.955 62.8332 120.293 62.2085 120.68 61.143C121.101 59.9894 120.458 58.9661 118.587 58.5139H118.591Z" stroke="#666666" stroke-width="0.13414" stroke-miterlimit="10"/>
<path d="M119.301 61.3168C119.301 61.3168 119.377 59.4465 122.325 60.3242C125.272 61.2018 138.031 67.4221 151.418 67.4489C163.904 67.4758 169.101 67.4758 169.101 67.4758" stroke="#666666" stroke-width="1.91628" stroke-miterlimit="10"/>
</g>
</g>
<defs>
<clipPath id="clip0_21759_8596">
<rect width="168.667" height="100" fill="white" transform="translate(0.666504)"/>
</clipPath>
<clipPath id="clip1_21759_8596">
<rect width="146.577" height="65.3491" fill="white" transform="translate(22.6665 28)"/>
</clipPath>
</defs>
</svg>
