<svg width="169" height="100" viewBox="0 0 169 100" fill="none" xmlns="http://www.w3.org/2000/svg">
<rect width="168.667" height="100" transform="translate(0.333496)" fill="#2CD3A9"/>
<path d="M74.6297 51.4623L81.624 51.8112L79.9336 85.238L76.8595 89.3719L76.3716 89.2684L72.856 86.4093L73.0042 83.5663L74.7823 79.9667L73.5023 77.094L75.2143 74.4592L73.5924 71.9648L75.0951 69.3329L73.8492 66.1197L74.6297 51.4623Z" fill="black" stroke="black" stroke-width="0.794926" stroke-miterlimit="10"/>
<path d="M75.2421 51.4345L82.2432 51.7829L80.546 85.2102L76.984 89.2406L73.4751 86.381L73.6166 83.5385L75.3947 79.9389L74.1147 77.0662L75.8334 74.4309L74.2048 71.937L75.7076 69.3051L74.4616 66.0919L75.2421 51.4345Z" fill="black" stroke="black" stroke-width="0.794926" stroke-miterlimit="10"/>
<path d="M77.8548 24.1523C70.636 23.6994 65.6264 29.9451 65.5701 37.9977C65.5077 46.0575 71.4745 53.2784 77.6344 53.328C78.8719 53.3389 80.0485 53.091 81.1332 52.6205C82.3032 52.1164 83.3657 51.3639 84.3035 50.3982C86.8159 47.8018 88.3792 43.7055 88.4091 39.0135C88.4715 30.9537 82.7849 24.4608 77.8481 24.1529L77.8548 24.1523Z" fill="black" stroke="black" stroke-width="0.815136" stroke-miterlimit="10"/>
<path d="M80.8798 51.5469L87.5617 49.2107L98.719 81.114L97.4192 86.1559L96.9192 86.2425L92.55 84.9034L91.6005 82.1939L91.8903 78.1437L89.6029 75.9517L90.1954 72.8304L87.7296 71.1187L88.1332 68.0866L85.7378 65.5517L80.8798 51.5469Z" fill="black" stroke="black" stroke-width="0.801663" stroke-miterlimit="10"/>
<path d="M81.4467 51.2852L88.1286 48.949L99.2859 80.8523L97.4861 85.9808L93.1102 84.6422L92.1674 81.9322L92.4504 77.8825L90.163 75.6905L90.7623 72.5687L88.2898 70.8575L88.6934 67.8254L86.3047 65.29L81.4467 51.2852Z" fill="#2CD3A9" stroke="black" stroke-width="0.801663" stroke-miterlimit="10"/>
<path d="M79.024 23.3794C72.038 23.7393 69.0524 31.3193 69.9773 39.6462C70.9021 47.973 76.4518 54.186 82.3739 53.5313C88.296 52.8766 91.8989 45.8427 90.9746 37.5226C90.0503 29.2025 83.7967 23.1461 79.0245 23.3861L79.024 23.3794ZM77.8432 35.0072C77.8432 35.0072 77.7822 35.0052 77.7491 35.0146C76.6686 34.5927 75.7571 33.3128 75.5017 31.6976C75.1644 29.555 76.1077 27.6293 77.6098 27.3963C77.6434 27.3937 77.6708 27.3983 77.7038 27.389C78.7844 27.8108 79.6959 29.0907 79.9513 30.7059C80.2886 32.8485 79.3453 34.7742 77.8432 35.0072Z" fill="#2CD3A9"/>
<path opacity="0.39" d="M77.749 35.0098C77.749 35.0098 77.7691 35.0082 77.7825 35.0072C77.72 34.9851 77.6642 34.9624 77.6011 34.9336C77.6502 34.9568 77.6998 34.9867 77.749 35.0098Z" fill="black"/>
<path d="M77.7041 27.39C78.7847 27.8119 79.6962 29.0917 79.9516 30.707C80.2889 32.8496 79.3456 34.7753 77.8435 35.0082C77.8233 35.0098 77.8032 35.0114 77.783 35.013C78.1175 35.1421 78.4736 35.202 78.8275 35.1471C80.3296 34.9142 81.2729 32.9885 80.9355 30.8458C80.6086 28.7497 79.1723 27.2408 77.7047 27.3967L77.7041 27.39Z" fill="black"/>
<path d="M79.024 23.3784C72.038 23.7383 69.0524 31.3184 69.9773 39.6452C70.9021 47.972 76.4518 54.1851 82.3739 53.5303C83.5662 53.3961 84.664 53.0057 85.6504 52.4011C86.7074 51.7504 87.6432 50.8457 88.4215 49.7438C90.5194 46.7746 91.518 42.3713 90.9746 37.5216C90.0498 29.1948 83.7967 23.1452 79.0245 23.3851L79.024 23.3784Z" stroke="black" stroke-width="0.801663" stroke-miterlimit="10"/>
<path d="M88.6909 51.792L87.8918 49.4491L82.1788 52.1619L82.9119 54.2667L88.6909 51.792Z" fill="#2CD3A9"/>
<path d="M70.9393 40.0159C70.345 34.6905 71.495 29.978 74.0792 27.0921C75.7445 25.2381 77.6335 24.3395 80.2037 24.1983C80.8428 24.1616 81.5126 24.2576 82.2048 24.4667C82.2048 24.4667 80.6482 23.6633 79.0879 23.6711C76.5148 23.6909 74.3803 24.8182 72.7155 26.679C70.1313 29.5649 68.9813 34.2773 69.5756 39.6028C70.3378 46.4625 74.5588 51.8475 79.5553 52.9144C75.1731 51.2383 71.6312 46.2392 70.9455 40.0087L70.9393 40.0159Z" fill="white"/>
<path d="M76.9028 28.6274C76.8114 28.6684 76.7563 28.7403 76.6649 28.7813C76.6427 29.702 76.4398 30.7316 75.677 31.2578C73.7401 32.5791 69.4564 29.8344 66.3017 25.2914C63.9716 21.9539 62.7544 18.333 63.165 16.0775C63.3028 15.3369 63.5917 14.8006 64.0609 14.4934C65.9978 13.1721 70.2815 15.9168 73.4362 20.4599C74.224 21.6278 74.8936 22.8388 75.4273 24.0402L77.5223 23.6998C76.9437 22.1844 76.1419 20.6661 75.164 19.2293C71.313 13.5652 65.6945 10.689 62.6407 12.7603C59.5875 14.8383 60.2967 21.1954 64.1719 26.8238C66.0194 29.5235 68.3455 31.6922 70.6587 32.9227C71.8657 33.5779 73.0412 33.918 74.0855 33.9643C75.0667 33.9817 75.9545 33.7565 76.693 33.266C77.9828 32.3943 78.648 30.7134 78.601 28.5683C78.07 28.3465 77.4686 28.3464 76.9033 28.6341L76.9028 28.6274Z" fill="black"/>
<path d="M65.0221 27.581C61.1469 21.9525 60.4372 15.5888 63.4909 13.5175C65.627 12.0656 69.0217 13.0422 72.1836 15.6993C68.7882 12.4794 64.9688 11.1713 62.6402 12.7532C59.587 14.8312 60.2962 21.1883 64.1714 26.8167C65.3088 28.4774 66.6267 29.9416 68.0154 31.1028C66.9421 30.0857 65.9228 28.8954 65.0216 27.5743L65.0221 27.581Z" fill="white"/>
</svg>
