<svg width="22" height="22" viewBox="0 0 22 22" fill="none" xmlns="http://www.w3.org/2000/svg">
    <g clip-path="url(#clip0_136:533)">
        <path
            d="M0.714355 11C0.714355 11.341 0.849814 11.668 1.09093 11.9091C1.33205 12.1503 1.65908 12.2857 2.00007 12.2857H9.50007C9.5569 12.2857 9.61141 12.3083 9.65159 12.3485C9.69178 12.3887 9.71435 12.4432 9.71435 12.5V20C9.71435 20.341 9.84981 20.668 10.0909 20.9091C10.332 21.1503 10.6591 21.2857 11.0001 21.2857C11.3411 21.2857 11.6681 21.1503 11.9092 20.9091C12.1503 20.668 12.2858 20.341 12.2858 20V12.5C12.2858 12.4432 12.3084 12.3887 12.3485 12.3485C12.3887 12.3083 12.4432 12.2857 12.5001 12.2857H20.0001C20.3411 12.2857 20.6681 12.1503 20.9092 11.9091C21.1503 11.668 21.2858 11.341 21.2858 11C21.2858 10.659 21.1503 10.332 20.9092 10.0909C20.6681 9.84975 20.3411 9.71429 20.0001 9.71429H12.5001C12.4432 9.71429 12.3887 9.69172 12.3485 9.65153C12.3084 9.61134 12.2858 9.55684 12.2858 9.50001V2.00001C12.2858 1.65902 12.1503 1.33199 11.9092 1.09087C11.6681 0.849753 11.3411 0.714294 11.0001 0.714294C10.6591 0.714294 10.332 0.849753 10.0909 1.09087C9.84981 1.33199 9.71435 1.65902 9.71435 2.00001V9.50001C9.71435 9.55684 9.69178 9.61134 9.65159 9.65153C9.61141 9.69172 9.5569 9.71429 9.50007 9.71429H2.00007C1.65908 9.71429 1.33205 9.84975 1.09093 10.0909C0.849814 10.332 0.714355 10.659 0.714355 11H0.714355Z"
            fill="white" />
    </g>
    <defs>
        <clipPath id="clip0_136:533">
            <rect width="20.5714" height="20.5714" fill="white" transform="translate(0.714355 0.714294)" />
        </clipPath>
    </defs>
</svg>