<svg width="16" height="16" viewBox="0 0 16 16" fill="none" xmlns="http://www.w3.org/2000/svg">
    <g clip-path="url(#clip0_170:544)">
        <path
            d="M2 7.98142C1.99973 7.76336 2.04588 7.54775 2.13537 7.34898C2.22485 7.15021 2.35562 6.97286 2.51894 6.82875L9.93838 0.288083C10.1842 0.0813557 10.5011 -0.0207774 10.8211 0.00352235C11.1411 0.0278221 11.439 0.176626 11.6509 0.418116C11.8629 0.659606 11.9722 0.974613 11.9554 1.29578C11.9386 1.61695 11.7971 1.91879 11.5611 2.13675L5.07303 7.85608C5.05522 7.87173 5.04095 7.891 5.03118 7.91261C5.0214 7.93423 5.01634 7.95769 5.01634 7.98142C5.01634 8.00515 5.0214 8.0286 5.03118 8.05022C5.04095 8.07183 5.05522 8.09111 5.07303 8.10675L11.5611 13.8261C11.6865 13.9316 11.7897 14.0611 11.8644 14.2071C11.9392 14.3531 11.9841 14.5127 11.9965 14.6763C12.0089 14.8399 11.9885 15.0044 11.9365 15.16C11.8845 15.3157 11.802 15.4593 11.6939 15.5826C11.5857 15.7058 11.4541 15.8061 11.3067 15.8776C11.1592 15.9491 10.9991 15.9904 10.8355 15.999C10.6719 16.0076 10.5083 15.9833 10.3543 15.9276C10.2002 15.872 10.0588 15.786 9.93838 15.6748L2.5216 9.13608C2.35788 8.99172 2.22669 8.8141 2.13676 8.61501C2.04683 8.41593 2.00021 8.19995 2 7.98142Z"
            fill="white" />
    </g>
    <defs>
        <clipPath id="clip0_170:544">
            <rect width="16" height="16" fill="white" />
        </clipPath>
    </defs>
</svg>