<svg width="21" height="21" viewBox="0 0 21 21" fill="none" xmlns="http://www.w3.org/2000/svg">
<path d="M17.4696 0.285706H8.32934V12.6203H20.6639V3.47996C20.6639 1.71012 19.2395 0.285706 17.4696 0.285706ZM5.48051 0.285706H3.90861C2.13877 0.285706 0.714355 1.71012 0.714355 3.47996V5.05186H5.48051V0.285706ZM0.714355 7.90069H5.48051V12.6668H0.714355V7.90069ZM15.9482 20.2352H17.5201C19.2899 20.2352 20.7144 18.8108 20.7144 17.041V15.5196H15.9482V20.2352ZM8.32934 15.5196H13.0955V20.2857H8.32934V15.5196ZM0.714355 15.5196V17.0914C0.714355 18.8613 2.13877 20.2857 3.90861 20.2857H5.48051V15.5196H0.714355Z" fill="white"/>
</svg>
