<svg width="8" height="9" viewBox="0 0 8 9" fill="none" xmlns="http://www.w3.org/2000/svg">
    <g clip-path="url(#clip0_137_2306)">
        <path
            d="M3.57143 2.30956C3.57143 2.18327 3.52126 2.06215 3.43196 1.97285C3.34265 1.88354 3.22153 1.83337 3.09524 1.83337H1.42857C1.04969 1.83337 0.686328 1.98388 0.418419 2.25179C0.15051 2.5197 0 2.88306 0 3.26195V7.07147C0 7.45035 0.15051 7.81371 0.418419 8.08162C0.686328 8.34953 1.04969 8.50004 1.42857 8.50004H5.2381C5.61698 8.50004 5.98034 8.34953 6.24825 8.08162C6.51616 7.81371 6.66667 7.45035 6.66667 7.07147V5.88099C6.66667 5.7547 6.6165 5.63358 6.52719 5.54428C6.43789 5.45497 6.31677 5.4048 6.19048 5.4048C6.06418 5.4048 5.94306 5.45497 5.85376 5.54428C5.76446 5.63358 5.71429 5.7547 5.71429 5.88099V7.07147C5.71429 7.19776 5.66412 7.31888 5.57481 7.40819C5.48551 7.49749 5.36439 7.54766 5.2381 7.54766H1.42857C1.30228 7.54766 1.18116 7.49749 1.09185 7.40819C1.00255 7.31888 0.952381 7.19776 0.952381 7.07147V3.26195C0.952381 3.13565 1.00255 3.01453 1.09185 2.92523C1.18116 2.83592 1.30228 2.78575 1.42857 2.78575H3.09524C3.15777 2.78575 3.21969 2.77344 3.27747 2.74951C3.33524 2.72558 3.38774 2.6905 3.43196 2.64628C3.47617 2.60206 3.51125 2.54957 3.53518 2.49179C3.55911 2.43402 3.57143 2.3721 3.57143 2.30956Z"
            fill="white" />
        <path
            d="M2.74961 6.5C2.94825 6.50009 3.13881 6.42122 3.27945 6.28071L6.51246 3.0474C6.52402 3.03576 6.53777 3.02652 6.55291 3.02021C6.56805 3.01391 6.58428 3.01067 6.60068 3.01067C6.61707 3.01067 6.63331 3.01391 6.64845 3.02021C6.66359 3.02652 6.67734 3.03576 6.6889 3.0474L7.57313 3.93107C7.59634 3.9544 7.62392 3.9729 7.65428 3.98553C7.68465 3.99816 7.7172 4.00467 7.75008 4.00467C7.78282 4.00451 7.81523 3.99805 7.84555 3.98565C7.89125 3.96673 7.93032 3.93465 7.95782 3.89347C7.98531 3.8523 7.99999 3.80388 8 3.75434V0.750334C8 0.683941 7.97367 0.620268 7.9268 0.573321C7.87993 0.526374 7.81636 0.5 7.75008 0.5H4.751C4.7016 0.50001 4.65332 0.51468 4.61225 0.542157C4.57117 0.569633 4.53915 0.608684 4.52022 0.654379C4.50128 0.700074 4.49629 0.750363 4.50587 0.798896C4.51546 0.84743 4.53918 0.892032 4.57405 0.92707L5.45428 1.80824C5.47747 1.83192 5.49056 1.8637 5.49077 1.89686C5.49073 1.91335 5.48745 1.92966 5.4811 1.94487C5.47475 1.96007 5.46547 1.97388 5.45378 1.98548L2.21977 5.21779C2.11488 5.32279 2.04342 5.45659 2.01445 5.60227C1.98548 5.74795 2.00028 5.89896 2.057 6.03621C2.11371 6.17346 2.20979 6.29078 2.33307 6.37333C2.45636 6.45589 2.60131 6.49997 2.74961 6.5Z"
            fill="white" />
    </g>
    <defs>
        <clipPath id="clip0_137_2306">
            <rect width="8" height="8" fill="white" transform="translate(0 0.5)" />
        </clipPath>
    </defs>
</svg>