<svg fill="none" viewBox="0 0 512 512" xmlns="http://www.w3.org/2000/svg">
    <path d="m151.2 353.6c-21.6 0-40.667-4.667-57.2-14-16.533-9.6-29.6-22.667-39.2-39.2-9.3333-16.8-14-36-14-57.6 0-21.867 4.6667-41.067 14-57.6 9.6-16.8 22.667-29.867 39.2-39.2 16.533-9.6 35.6-14.4 57.2-14.4 21.333 0 40.267 4.8 56.8 14.4 16.533 9.333 29.467 22.4 38.8 39.2 9.6 16.533 14.4 35.733 14.4 57.6 0 21.6-4.667 40.8-14 57.6-9.333 16.533-22.267 29.6-38.8 39.2-16.533 9.333-35.6 14-57.2 14zm0-36c13.867 0 26.133-3.2 36.8-9.6s18.933-15.2 24.8-26.4c6.133-11.2 9.2-24.133 9.2-38.8s-3.067-27.6-9.2-38.8c-5.867-11.467-14.133-20.4-24.8-26.8s-22.933-9.6-36.8-9.6-26.133 3.2-36.8 9.6-19.067 15.333-25.2 26.8c-6.1333 11.2-9.2 24.133-9.2 38.8s3.0667 27.6 9.2 38.8 14.533 20 25.2 26.4 22.933 9.6 36.8 9.6zm201.92 36c-19.467 0-36.933-4.8-52.4-14.4-15.467-9.867-27.733-23.067-36.8-39.6-8.8-16.8-13.2-35.733-13.2-56.8s4.8-40 14.4-56.8c9.867-16.8 23.067-30 39.6-39.6 16.8-9.867 35.6-14.8 56.4-14.8s39.467 4.933 56 14.8c16.533 9.6 29.6 22.8 39.2 39.6 9.867 16.8 14.8 35.733 14.8 56.8h-15.6c0 21.067-4.533 40-13.6 56.8-8.8 16.533-20.933 29.733-36.4 39.6-15.467 9.6-32.933 14.4-52.4 14.4zm8-36c13.6 0 25.733-3.2 36.4-9.6 10.667-6.667 19.067-15.6 25.2-26.8 6.133-11.467 9.2-24.267 9.2-38.4 0-14.4-3.067-27.2-9.2-38.4-6.133-11.467-14.533-20.4-25.2-26.8-10.667-6.667-22.8-10-36.4-10-13.333 0-25.467 3.333-36.4 10-10.667 6.4-19.2 15.333-25.6 26.8-6.133 11.2-9.2 24-9.2 38.4 0 14.133 3.067 26.933 9.2 38.4 6.4 11.2 14.933 20.133 25.6 26.8 10.933 6.4 23.067 9.6 36.4 9.6zm89.6 34.8c-5.867 0-10.8-1.867-14.8-5.6-3.733-4-5.6-8.933-5.6-14.8v-61.2l7.6-42.4 33.2 14.4v89.2c0 5.867-2 10.8-6 14.8-3.733 3.733-8.533 5.6-14.4 5.6z" fill="url(#a)"/>
    <defs>
        <linearGradient id="a" x1="45.378" x2="464.13" y1="240" y2="243.47" gradientUnits="userSpaceOnUse">
            <stop stop-color="#F472B6" offset="0"/>
            <stop stop-color="#F87185" offset=".51562"/>
            <stop stop-color="#FBBF24" offset="1"/>
        </linearGradient>
    </defs>
</svg>

