<svg width="12" height="12" viewBox="0 0 12 12" fill="none" xmlns="http://www.w3.org/2000/svg">
    <path fill-rule="evenodd" clip-rule="evenodd"
        d="M4.5 1.5H1.5V4.5H4.5V1.5ZM1.5 0.5C0.947715 0.5 0.5 0.947715 0.5 1.5V5.5H5.5V0.5H1.5Z" fill="white" />
    <path d="M2.25 2.25H3.75V3.75H2.25V2.25Z" fill="white" />
    <path d="M2.25 8.25H3.75V9.75H2.25V8.25Z" fill="white" />
    <path d="M8.25 8.25H9.75V9.75H8.25V8.25Z" fill="white" />
    <path d="M8.25 2.25H9.75V3.75H8.25V2.25Z" fill="white" />
    <path fill-rule="evenodd" clip-rule="evenodd"
        d="M4.5 7.5H1.5L1.5 10.5H4.5V7.5ZM0.5 6.5V10.5C0.5 11.0523 0.947715 11.5 1.5 11.5H5.5V6.5H0.5Z" fill="white" />
    <path fill-rule="evenodd" clip-rule="evenodd"
        d="M10.5 1.5H7.5V4.5H10.5V1.5ZM6.5 0.5V5.5H11.5V1.5C11.5 0.947715 11.0523 0.5 10.5 0.5H6.5Z" fill="white" />
    <path fill-rule="evenodd" clip-rule="evenodd"
        d="M9.5 7.5H7.5V8.5H6.5V6.5H9.5V7.5ZM6.5 11.5V9.5H7.5V11.5H6.5ZM8.5 11.5H10.5C11.0523 11.5 11.5 11.0523 11.5 10.5V9.5H10.5V10.5H8.5V11.5ZM10.5 8.5H11.5V6.5H10.5V8.5Z"
        fill="white" />
</svg>