<svg width="20" height="20" viewBox="0 0 20 20" fill="none" xmlns="http://www.w3.org/2000/svg">
<g clip-path="url(#clip0_27398_1804)">
<path d="M18.2833 16.9566L14.5731 13.2449C15.6856 11.7953 16.2049 9.97679 16.0259 8.15832C15.8468 6.33984 14.9827 4.65756 13.609 3.45273C12.2352 2.2479 10.4545 1.61075 8.62822 1.67052C6.80192 1.73029 5.06674 2.48251 3.77467 3.77458C2.48259 5.06666 1.73037 6.80184 1.6706 8.62813C1.61083 10.4544 2.24799 12.2351 3.45281 13.6089C4.65764 14.9827 6.33992 15.8467 8.1584 16.0258C9.97688 16.2048 11.7954 15.6855 13.245 14.5731L16.9583 18.2871C17.0455 18.3743 17.149 18.4435 17.263 18.4907C17.3769 18.5379 17.499 18.5622 17.6224 18.5622C17.7457 18.5622 17.8678 18.5379 17.9817 18.4907C18.0957 18.4435 18.1992 18.3743 18.2864 18.2871C18.3736 18.1999 18.4428 18.0964 18.49 17.9824C18.5372 17.8685 18.5615 17.7464 18.5615 17.6231C18.5615 17.4997 18.5372 17.3776 18.49 17.2637C18.4428 17.1497 18.3736 17.0462 18.2864 16.959L18.2833 16.9566ZM3.55751 8.86993C3.55751 7.81921 3.86908 6.7921 4.45283 5.91846C5.03657 5.04482 5.86627 4.36391 6.837 3.96182C7.80774 3.55973 8.8759 3.45452 9.90643 3.6595C10.937 3.86449 11.8835 4.37046 12.6265 5.11342C13.3695 5.85639 13.8754 6.80299 14.0804 7.83351C14.2854 8.86403 14.1802 9.9322 13.7781 10.9029C13.376 11.8737 12.6951 12.7034 11.8215 13.2871C10.9478 13.8709 9.92072 14.1824 8.87001 14.1824C7.46149 14.181 6.11108 13.6208 5.1151 12.6248C4.11913 11.6289 3.55896 10.2784 3.55751 8.86993Z" fill="white"/>
</g>
<defs>
<clipPath id="clip0_27398_1804">
<rect width="20" height="20" fill="white"/>
</clipPath>
</defs>
</svg>
