<svg width="22" height="21" viewBox="0 0 22 21" fill="none" xmlns="http://www.w3.org/2000/svg">
    <g clip-path="url(#clip0_136:1259)">
        <path
            d="M20.0001 8.35715H18.4041C18.2454 7.80875 18.026 7.27977 17.7501 6.78001L18.8789 5.65201C18.9984 5.53261 19.0932 5.39084 19.1578 5.23479C19.2225 5.07875 19.2558 4.91149 19.2558 4.74258C19.2558 4.57367 19.2225 4.40641 19.1578 4.25037C19.0932 4.09432 18.9984 3.95255 18.8789 3.83315L17.6661 2.62201C17.425 2.38097 17.098 2.24557 16.7571 2.24557C16.4161 2.24557 16.0892 2.38097 15.8481 2.62201L14.7184 3.75087C14.2193 3.47469 13.6909 3.25532 13.1429 3.09687V1.50001C13.1429 1.15902 13.0075 0.83199 12.7663 0.590871C12.5252 0.349753 12.1982 0.214294 11.8572 0.214294L10.1429 0.214294C9.80193 0.214294 9.47491 0.349753 9.23379 0.590871C8.99267 0.83199 8.85721 1.15902 8.85721 1.50001V3.09687C8.30914 3.25569 7.78046 3.47504 7.28093 3.75087L6.15121 2.62201C5.91011 2.38097 5.58314 2.24557 5.24221 2.24557C4.90129 2.24557 4.57432 2.38097 4.33321 2.62201L3.12036 3.83401C3.00088 3.95341 2.9061 4.09518 2.84144 4.25123C2.77677 4.40727 2.74349 4.57453 2.74349 4.74344C2.74349 4.91235 2.77677 5.07961 2.84144 5.23565C2.9061 5.39169 3.00088 5.53347 3.12036 5.65287L4.25007 6.78172C3.97372 7.2807 3.75434 7.80916 3.59607 8.35715H2.00007C1.65908 8.35715 1.33205 8.49261 1.09093 8.73373C0.849814 8.97485 0.714355 9.30187 0.714355 9.64287L0.714355 11.3572C0.714355 11.6981 0.849814 12.0252 1.09093 12.2663C1.33205 12.5074 1.65908 12.6429 2.00007 12.6429H3.59607C3.75428 13.1912 3.97366 13.7199 4.25007 14.2192L3.1195 15.3497C2.87846 15.5908 2.74306 15.9178 2.74306 16.2587C2.74306 16.5996 2.87846 16.9266 3.1195 17.1677L4.3315 18.3797C4.57734 18.612 4.90273 18.7414 5.24093 18.7414C5.57913 18.7414 5.90451 18.612 6.15036 18.3797L7.28007 17.2509C7.77986 17.527 8.30883 17.7466 8.85721 17.9057V19.5C8.85721 19.841 8.99267 20.168 9.23379 20.4091C9.47491 20.6503 9.80193 20.7857 10.1429 20.7857H11.8572C12.1982 20.7857 12.5252 20.6503 12.7663 20.4091C13.0075 20.168 13.1429 19.841 13.1429 19.5V17.9057C13.691 17.7469 14.2197 17.5276 14.7192 17.2517L15.8489 18.3806C16.09 18.6216 16.417 18.757 16.7579 18.757C17.0989 18.757 17.4258 18.6216 17.6669 18.3806L18.8789 17.1686C19.12 16.9275 19.2554 16.6005 19.2554 16.2596C19.2554 15.9187 19.12 15.5917 18.8789 15.3506L17.7501 14.2217C18.0263 13.7221 18.2457 13.1931 18.4041 12.6446H20.0001C20.1691 12.6446 20.3364 12.6113 20.4925 12.5465C20.6486 12.4818 20.7904 12.387 20.9098 12.2674C21.0292 12.1478 21.1239 12.0059 21.1884 11.8497C21.2529 11.6935 21.286 11.5261 21.2858 11.3572V9.64287C21.2858 9.30187 21.1503 8.97485 20.9092 8.73373C20.6681 8.49261 20.3411 8.35715 20.0001 8.35715ZM11.0001 14.7857C10.1524 14.7857 9.32384 14.5344 8.61905 14.0635C7.91427 13.5925 7.36496 12.9232 7.04059 12.1401C6.71621 11.357 6.63134 10.4953 6.7967 9.66391C6.96207 8.83256 7.37024 8.06892 7.96961 7.46955C8.56898 6.87018 9.33262 6.46201 10.164 6.29664C10.9953 6.13128 11.857 6.21615 12.6401 6.54053C13.4233 6.8649 14.0926 7.41421 14.5635 8.11899C15.0344 8.82378 15.2858 9.65238 15.2858 10.5C15.2844 11.6362 14.8325 12.7255 14.029 13.529C13.2256 14.3324 12.1363 14.7844 11.0001 14.7857Z"
            fill="white" />
    </g>
    <defs>
        <clipPath id="clip0_136:1259">
            <rect width="20.5714" height="20.5714" fill="white" transform="translate(0.714355 0.214294)" />
        </clipPath>
    </defs>
</svg>