<svg width="20" height="20" viewBox="0 0 20 20" fill="none" xmlns="http://www.w3.org/2000/svg">
<g clip-path="url(#clip0_354_3008)">
<path d="M18.75 7.91667H17.1983C17.0441 7.3835 16.8308 6.86921 16.5625 6.38333L17.66 5.28667C17.7762 5.17058 17.8683 5.03275 17.9312 4.88104C17.994 4.72933 18.0264 4.56672 18.0264 4.4025C18.0264 4.23828 17.994 4.07567 17.9312 3.92396C17.8683 3.77225 17.7762 3.63442 17.66 3.51833L16.4808 2.34083C16.2464 2.10649 15.9285 1.97485 15.5971 1.97485C15.2656 1.97485 14.9477 2.10649 14.7133 2.34083L13.615 3.43833C13.1298 3.16983 12.616 2.95656 12.0833 2.8025V1.25C12.0833 0.918479 11.9516 0.600537 11.7172 0.366117C11.4828 0.131696 11.1649 0 10.8333 0L9.16667 0C8.83515 0 8.5172 0.131696 8.28278 0.366117C8.04836 0.600537 7.91667 0.918479 7.91667 1.25V2.8025C7.38382 2.95691 6.86982 3.17017 6.38417 3.43833L5.28583 2.34083C5.05142 2.10649 4.73354 1.97485 4.40208 1.97485C4.07063 1.97485 3.75274 2.10649 3.51833 2.34083L2.33917 3.51917C2.22301 3.63525 2.13086 3.77308 2.06799 3.92479C2.00513 4.0765 1.97277 4.23911 1.97277 4.40333C1.97277 4.56755 2.00513 4.73016 2.06799 4.88187C2.13086 5.03358 2.22301 5.17142 2.33917 5.2875L3.4375 6.385C3.16882 6.87011 2.95554 7.38389 2.80167 7.91667H1.25C0.918479 7.91667 0.600537 8.04836 0.366116 8.28278C0.131696 8.5172 0 8.83515 0 9.16667L0 10.8333C0 11.1649 0.131696 11.4828 0.366116 11.7172C0.600537 11.9516 0.918479 12.0833 1.25 12.0833H2.80167C2.95548 12.6164 3.16876 13.1305 3.4375 13.6158L2.33833 14.715C2.10399 14.9494 1.97235 15.2673 1.97235 15.5987C1.97235 15.9302 2.10399 16.2481 2.33833 16.4825L3.51667 17.6608C3.75568 17.8866 4.07203 18.0124 4.40083 18.0124C4.72964 18.0124 5.04599 17.8866 5.285 17.6608L6.38333 16.5633C6.86924 16.8318 7.38352 17.0453 7.91667 17.2V18.75C7.91667 19.0815 8.04836 19.3995 8.28278 19.6339C8.5172 19.8683 8.83515 20 9.16667 20H10.8333C11.1649 20 11.4828 19.8683 11.7172 19.6339C11.9516 19.3995 12.0833 19.0815 12.0833 18.75V17.2C12.6162 17.0456 13.1302 16.8324 13.6158 16.5642L14.7142 17.6617C14.9486 17.896 15.2665 18.0277 15.5979 18.0277C15.9294 18.0277 16.2473 17.896 16.4817 17.6617L17.66 16.4833C17.8943 16.2489 18.026 15.931 18.026 15.5996C18.026 15.2681 17.8943 14.9502 17.66 14.7158L16.5625 13.6183C16.8311 13.1326 17.0444 12.6183 17.1983 12.085H18.75C18.9143 12.085 19.077 12.0526 19.2287 11.9897C19.3805 11.9268 19.5184 11.8345 19.6345 11.7183C19.7506 11.602 19.8426 11.464 19.9053 11.3122C19.968 11.1603 20.0002 10.9976 20 10.8333V9.16667C20 8.83515 19.8683 8.5172 19.6339 8.28278C19.3995 8.04836 19.0815 7.91667 18.75 7.91667ZM10 14.1667C9.17591 14.1667 8.37033 13.9223 7.68512 13.4645C6.99992 13.0066 6.46587 12.3559 6.1505 11.5945C5.83514 10.8332 5.75262 9.99538 5.91339 9.18712C6.07417 8.37887 6.471 7.63644 7.05372 7.05372C7.63644 6.471 8.37887 6.07417 9.18712 5.91339C9.99538 5.75262 10.8332 5.83514 11.5945 6.1505C12.3559 6.46587 13.0066 6.99992 13.4645 7.68512C13.9223 8.37033 14.1667 9.17591 14.1667 10C14.1653 11.1047 13.7259 12.1637 12.9448 12.9448C12.1637 13.7259 11.1047 14.1653 10 14.1667V14.1667Z" fill="white"/>
</g>
<defs>
<clipPath id="clip0_354_3008">
<rect width="20" height="20" fill="white"/>
</clipPath>
</defs>
</svg>
