<svg width="420" height="357" viewBox="0 0 420 357" fill="none" xmlns="http://www.w3.org/2000/svg">
<circle cx="141" cy="182.716" r="141" transform="rotate(-180 141 182.716)" fill="#02BBA8"/>
<circle cx="141" cy="182.716" r="141" transform="rotate(-180 141 182.716)" stroke="white"/>
<circle cx="231.315" cy="116" r="116" transform="rotate(-180 231.315 116)" fill="#FF5B81"/>
<circle cx="231.315" cy="116" r="116" transform="rotate(-180 231.315 116)" stroke="white"/>
<circle cx="303.389" cy="176.336" r="116" transform="rotate(-180 303.389 176.336)" fill="#FFAB00"/>
<circle cx="303.389" cy="176.336" r="116" transform="rotate(-180 303.389 176.336)" stroke="white"/>
<g filter="url(#filter0_di_1_67)">
<circle cx="198.093" cy="165.229" r="135" fill="url(#paint0_linear_1_67)"/>
</g>
<path fill-rule="evenodd" clip-rule="evenodd" d="M141.414 82.7416L142.226 80.2312C142.392 79.7206 142.795 79.3233 143.307 79.1666L145.83 78.3908C146.179 78.2841 146.182 77.7915 145.835 77.6792L143.324 76.8666C142.814 76.7014 142.417 76.2984 142.259 75.7859L141.485 73.2632C141.378 72.915 140.885 72.9112 140.773 73.2585L139.96 75.769C139.795 76.2786 139.392 76.6759 138.88 76.8336L136.357 77.6084C136.008 77.716 136.004 78.2077 136.352 78.32L138.863 79.1326C139.373 79.2978 139.77 79.7017 139.927 80.2142L140.702 82.736C140.809 83.0852 141.302 83.0889 141.414 82.7416Z" fill="#FAFAFA"/>
<path fill-rule="evenodd" clip-rule="evenodd" d="M280.414 113.742L281.226 111.231C281.392 110.721 281.795 110.323 282.307 110.167L284.83 109.391C285.179 109.284 285.182 108.791 284.835 108.679L282.324 107.867C281.814 107.701 281.417 107.298 281.259 106.786L280.485 104.263C280.378 103.915 279.885 103.911 279.773 104.258L278.96 106.769C278.795 107.279 278.392 107.676 277.88 107.834L275.357 108.608C275.008 108.716 275.004 109.208 275.352 109.32L277.863 110.133C278.373 110.298 278.77 110.702 278.927 111.214L279.702 113.736C279.809 114.085 280.302 114.089 280.414 113.742Z" fill="#FAFAFA"/>
<path fill-rule="evenodd" clip-rule="evenodd" d="M302.606 136.587L303.906 132.57C304.171 131.753 304.815 131.117 305.635 130.867L309.671 129.625C310.23 129.455 310.235 128.666 309.68 128.487L305.662 127.187C304.847 126.922 304.211 126.277 303.959 125.457L302.719 121.421C302.549 120.864 301.761 120.858 301.581 121.414L300.281 125.43C300.017 126.246 299.372 126.881 298.552 127.134L294.516 128.373C293.957 128.546 293.951 129.332 294.507 129.512L298.525 130.812C299.34 131.076 299.976 131.723 300.228 132.543L301.468 136.578C301.638 137.136 302.426 137.142 302.606 136.587Z" fill="#FAFAFA"/>
<path fill-rule="evenodd" clip-rule="evenodd" d="M230.35 62.7933L231 60.7849C231.132 60.3765 231.454 60.0586 231.864 59.9333L233.882 59.3126C234.162 59.2273 234.164 58.8332 233.887 58.7433L231.878 58.0933C231.47 57.9611 231.152 57.6387 231.026 57.2287L230.406 55.2106C230.321 54.932 229.927 54.9289 229.837 55.2068L229.187 57.2152C229.055 57.6229 228.733 57.9407 228.323 58.0669L226.304 58.6867C226.025 58.7728 226.022 59.1662 226.3 59.256L228.309 59.9061C228.717 60.0382 229.035 60.3614 229.161 60.7713L229.78 62.7888C229.866 63.0681 230.26 63.0712 230.35 62.7933Z" fill="#FAFAFA"/>
<path fill-rule="evenodd" clip-rule="evenodd" d="M105.542 106.638L106.68 103.124C106.911 102.409 107.475 101.853 108.192 101.633L111.724 100.547C112.213 100.398 112.217 99.7081 111.732 99.5509L108.216 98.4132C107.503 98.182 106.947 97.6178 106.726 96.9003L105.641 93.3685C105.492 92.8809 104.802 92.8756 104.645 93.3619L103.507 96.8766C103.276 97.59 102.712 98.1463 101.995 98.367L98.4629 99.4517C97.9741 99.6024 97.9687 100.291 98.455 100.448L101.971 101.586C102.684 101.817 103.24 102.382 103.461 103.1L104.546 106.63C104.695 107.119 105.385 107.125 105.542 106.638Z" fill="#FAFAFA"/>
<path d="M276.803 169.682L187.457 249.178" stroke="#3D517B" stroke-width="2"/>
<path d="M123.485 148.135L187.457 249.178" stroke="#3D517B" stroke-width="2"/>
<mask id="mask0_1_67" style="mask-type:alpha" maskUnits="userSpaceOnUse" x="122" y="144" width="156" height="30">
<ellipse cx="200.079" cy="159.374" rx="78" ry="9.86747" transform="rotate(8 200.079 159.374)" fill="#0F7295"/>
</mask>
<g mask="url(#mask0_1_67)">
<ellipse cx="200.079" cy="159.374" rx="78" ry="9.86747" transform="rotate(8 200.079 159.374)" fill="#EBE2E7"/>
<path d="M272.582 203.938C272.592 203.869 272.601 203.8 272.611 203.731C278.606 161.072 248.885 121.63 206.226 115.635C163.567 109.64 124.125 139.361 118.129 182.02C118.12 182.089 118.11 182.158 118.1 182.227C118.969 176.858 154.121 177.351 196.711 183.337C239.301 189.323 273.227 198.538 272.582 203.938Z" fill="#C95A4D"/>
<path d="M248.717 193.286C235.177 189.744 216.919 186.177 196.711 183.337C176.502 180.497 157.969 178.893 143.977 178.566C151.907 139.499 178.781 111.778 206.226 115.635C233.67 119.492 251.862 153.547 248.717 193.286Z" fill="#E5E5E5"/>
<path d="M216.072 186.375C209.9 185.301 203.413 184.279 196.711 183.337C190.009 182.395 183.491 181.589 177.262 180.921C183.8 142.774 196.223 114.229 206.226 115.635C216.229 117.041 220.302 147.904 216.072 186.375Z" fill="#C95A4D"/>
<path d="M276.867 168.888C259.136 164.404 234.137 159.653 206.283 155.738C171.681 150.875 140.957 148.467 122.83 148.815C122.822 148.715 122.824 148.616 122.838 148.518C123.596 143.122 158.793 143.607 201.452 149.602C240.756 155.126 272.682 163.4 276.867 168.888Z" fill="black" fill-opacity="0.1"/>
</g>
<path d="M148.745 144.805L187.457 249.178" stroke="#3D517B" stroke-width="2"/>
<path d="M253.439 159.518L187.457 249.178" stroke="#3D517B" stroke-width="2"/>
<path d="M220.878 152.333L187.457 249.178" stroke="#3D517B" stroke-width="2"/>
<path d="M182.025 146.872L187.457 249.178" stroke="#3D517B" stroke-width="2"/>
<path d="M277.323 170.203C277.333 170.134 277.342 170.065 277.352 169.997C283.348 127.338 253.626 87.8955 210.967 81.9002C168.308 75.9049 128.866 105.627 122.87 148.286C122.861 148.354 122.851 148.423 122.842 148.492C123.71 143.123 158.862 143.617 201.452 149.602C244.042 155.588 277.968 164.803 277.323 170.203Z" fill="#EC796B"/>
<path d="M253.458 159.551C239.918 156.01 221.66 152.442 201.452 149.602C181.244 146.762 162.71 145.159 148.718 144.831C156.648 105.765 183.522 78.0431 210.967 81.9002C238.411 85.7572 256.603 119.812 253.458 159.551Z" fill="white"/>
<path d="M220.813 152.64C214.641 151.566 208.154 150.544 201.452 149.602C194.75 148.66 188.232 147.855 182.003 147.186C188.541 109.04 200.964 80.4943 210.967 81.9002C220.97 83.306 225.043 114.17 220.813 152.64Z" fill="#EC796B"/>
<path d="M171.222 235.362C179.153 236.476 186.485 230.951 187.599 223.021C188.714 215.091 183.188 207.759 175.258 206.645C167.328 205.53 159.996 211.055 158.881 218.985C157.767 226.915 163.292 234.247 171.222 235.362Z" fill="#0C0C4C" stroke="white" stroke-width="3"/>
<path fill-rule="evenodd" clip-rule="evenodd" d="M168.531 217.454L168.966 216.559C169.055 216.377 169.226 216.25 169.426 216.218L170.408 216.061C170.544 216.039 170.571 215.855 170.448 215.795L169.553 215.36C169.371 215.272 169.244 215.1 169.212 214.901L169.055 213.918C169.033 213.782 168.85 213.755 168.789 213.879L168.354 214.774C168.266 214.955 168.094 215.083 167.895 215.114L166.912 215.271C166.776 215.293 166.749 215.477 166.872 215.537L167.768 215.972C167.949 216.061 168.077 216.232 168.109 216.432L168.266 217.414C168.287 217.55 168.471 217.578 168.531 217.454Z" fill="#FAFAFA"/>
<path fill-rule="evenodd" clip-rule="evenodd" d="M183.499 219.001C183.171 218.512 182.6 218.182 182.024 217.999C181.444 217.82 180.82 217.741 180.219 217.763C179.004 217.797 177.857 218.136 176.832 218.61C176.302 218.839 175.837 219.125 175.356 219.415C175.124 219.563 174.908 219.725 174.684 219.883L174.069 220.344C173.397 220.874 172.742 221.351 172.118 221.735C171.492 222.116 170.918 222.392 170.367 222.563C169.816 222.736 169.243 222.803 168.519 222.725C167.802 222.649 166.975 222.402 166.101 222.062C165.222 221.723 164.311 221.287 163.281 220.877C163.508 221.961 163.94 222.952 164.542 223.887C165.155 224.809 165.958 225.683 167.057 226.338C168.137 227.002 169.557 227.385 170.947 227.303C172.339 227.233 173.617 226.773 174.68 226.183C175.747 225.585 176.644 224.86 177.424 224.085C177.639 223.87 177.754 223.75 177.911 223.581L178.35 223.094C178.649 222.797 178.932 222.451 179.228 222.156C179.814 221.535 180.394 220.913 181.044 220.357C181.372 220.074 181.713 219.808 182.106 219.561C182.301 219.442 182.51 219.327 182.738 219.229C182.97 219.121 183.21 219.045 183.499 219.001Z" fill="#EC796B"/>
<path fill-rule="evenodd" clip-rule="evenodd" d="M183.499 219.001C183.23 217.889 182.578 216.894 181.629 216.094C180.685 215.302 179.294 214.77 177.83 214.851C177.108 214.888 176.389 215.054 175.742 215.319C175.098 215.583 174.505 215.926 173.98 216.31C173.718 216.503 173.476 216.708 173.235 216.915L172.599 217.526L171.611 218.516C170.35 219.79 168.972 221.297 167.027 221.528C165.118 221.754 164.38 221.212 163.281 220.877C163.412 221.436 163.594 221.987 163.875 222.489C164.149 222.999 164.488 223.489 164.933 223.932C165.159 224.146 165.4 224.359 165.673 224.551C165.946 224.736 166.245 224.908 166.569 225.051C167.215 225.33 167.962 225.501 168.708 225.504C169.454 225.51 170.186 225.376 170.842 225.154C171.501 224.935 172.09 224.638 172.625 224.313C173.69 223.656 174.554 222.885 175.304 222.089C175.682 221.691 176.031 221.281 176.359 220.868L176.745 220.375C176.862 220.232 176.981 220.088 177.099 219.955C177.577 219.42 178.029 219.001 178.547 218.711C179.061 218.412 179.742 218.233 180.61 218.291C181.475 218.348 182.447 218.604 183.499 219.001Z" fill="#FAFAFA"/>
<path fill-rule="evenodd" clip-rule="evenodd" d="M177.637 227.098C177.528 227.871 178.068 228.586 178.841 228.695C179.614 228.804 180.329 228.265 180.437 227.491C180.546 226.718 180.008 226.003 179.235 225.894C178.461 225.785 177.746 226.325 177.637 227.098Z" fill="#EC796B"/>
<path d="M205.587 235.142C211.877 236.026 217.692 231.644 218.576 225.355C219.46 219.066 215.078 213.251 208.788 212.367C202.499 211.483 196.684 215.865 195.8 222.154C194.916 228.444 199.298 234.259 205.587 235.142Z" fill="#0C0C4C" stroke="white" stroke-width="3"/>
<path fill-rule="evenodd" clip-rule="evenodd" d="M203.565 221.024L203.9 220.336C203.968 220.196 204.1 220.098 204.253 220.074L205.009 219.953C205.114 219.936 205.135 219.795 205.04 219.749L204.351 219.414C204.211 219.346 204.114 219.214 204.089 219.06L203.968 218.304C203.952 218.2 203.81 218.179 203.764 218.274L203.429 218.963C203.361 219.102 203.229 219.2 203.076 219.225L202.32 219.346C202.215 219.362 202.194 219.503 202.289 219.55L202.978 219.885C203.118 219.953 203.216 220.085 203.24 220.238L203.361 220.994C203.378 221.099 203.519 221.12 203.565 221.024Z" fill="#FAFAFA"/>
<path fill-rule="evenodd" clip-rule="evenodd" d="M215.079 222.214C214.827 221.838 214.387 221.585 213.945 221.444C213.498 221.306 213.018 221.245 212.556 221.262C211.621 221.288 210.739 221.549 209.95 221.914C209.543 222.09 209.185 222.31 208.815 222.533C208.636 222.647 208.47 222.771 208.298 222.893L207.826 223.248C207.309 223.655 206.804 224.022 206.324 224.317C205.843 224.611 205.402 224.823 204.978 224.955C204.554 225.088 204.113 225.139 203.556 225.079C203.004 225.021 202.368 224.83 201.696 224.569C201.02 224.308 200.319 223.973 199.527 223.657C199.701 224.492 200.034 225.254 200.497 225.973C200.968 226.682 201.586 227.354 202.431 227.858C203.262 228.369 204.354 228.664 205.424 228.601C206.495 228.547 207.477 228.193 208.295 227.739C209.116 227.279 209.806 226.721 210.406 226.125C210.571 225.96 210.66 225.867 210.781 225.737L211.118 225.363C211.348 225.134 211.566 224.868 211.794 224.641C212.245 224.163 212.691 223.685 213.191 223.257C213.443 223.04 213.705 222.835 214.007 222.646C214.158 222.553 214.319 222.465 214.494 222.39C214.672 222.307 214.857 222.248 215.079 222.214Z" fill="#EC796B"/>
<path fill-rule="evenodd" clip-rule="evenodd" d="M215.079 222.214C214.872 221.359 214.371 220.594 213.641 219.978C212.915 219.369 211.845 218.959 210.719 219.022C210.163 219.051 209.61 219.178 209.112 219.382C208.617 219.585 208.161 219.849 207.757 220.144C207.555 220.293 207.369 220.451 207.183 220.61L206.694 221.08L205.934 221.841C204.964 222.821 203.905 223.981 202.409 224.158C200.94 224.332 200.372 223.915 199.527 223.657C199.627 224.088 199.767 224.512 199.984 224.897C200.194 225.29 200.455 225.667 200.797 226.007C200.971 226.172 201.156 226.336 201.367 226.483C201.577 226.626 201.806 226.758 202.056 226.869C202.553 227.083 203.127 227.214 203.701 227.217C204.275 227.221 204.839 227.118 205.343 226.947C205.85 226.779 206.303 226.551 206.715 226.301C207.533 225.795 208.198 225.202 208.776 224.59C209.066 224.284 209.334 223.969 209.586 223.651L209.884 223.272C209.974 223.161 210.065 223.05 210.156 222.948C210.523 222.537 210.871 222.214 211.27 221.992C211.665 221.761 212.189 221.624 212.857 221.669C213.522 221.712 214.27 221.909 215.079 222.214Z" fill="#FAFAFA"/>
<path fill-rule="evenodd" clip-rule="evenodd" d="M210.57 228.443C210.486 229.038 210.901 229.588 211.496 229.671C212.091 229.755 212.64 229.34 212.724 228.745C212.808 228.151 212.394 227.6 211.799 227.517C211.204 227.433 210.654 227.848 210.57 228.443Z" fill="#EC796B"/>
<path d="M185.011 266.584C196.223 268.16 206.589 260.349 208.164 249.137C209.74 237.926 201.929 227.56 190.717 225.984C179.506 224.409 169.139 232.22 167.564 243.431C165.988 254.643 173.8 265.009 185.011 266.584Z" fill="#0C0C4C" stroke="white" stroke-width="3"/>
<path fill-rule="evenodd" clip-rule="evenodd" d="M180.981 241.097L181.617 239.789C181.747 239.523 181.997 239.337 182.289 239.291L183.725 239.061C183.924 239.029 183.963 238.761 183.783 238.673L182.475 238.037C182.209 237.908 182.023 237.657 181.976 237.365L181.747 235.929C181.716 235.731 181.447 235.691 181.359 235.872L180.723 237.18C180.594 237.445 180.343 237.631 180.051 237.678L178.615 237.907C178.416 237.939 178.376 238.207 178.557 238.295L179.866 238.931C180.131 239.061 180.317 239.312 180.364 239.603L180.593 241.039C180.625 241.238 180.893 241.278 180.981 241.097Z" fill="#FAFAFA"/>
<path fill-rule="evenodd" clip-rule="evenodd" d="M202.857 243.358C202.379 242.644 201.543 242.162 200.702 241.894C199.854 241.631 198.942 241.516 198.064 241.548C196.288 241.598 194.612 242.094 193.113 242.787C192.339 243.122 191.659 243.539 190.957 243.963C190.617 244.179 190.301 244.416 189.974 244.648L189.076 245.321C188.094 246.096 187.135 246.792 186.224 247.353C185.309 247.911 184.471 248.314 183.665 248.565C182.86 248.817 182.022 248.914 180.965 248.8C179.916 248.69 178.707 248.328 177.43 247.832C176.146 247.336 174.813 246.698 173.308 246.1C173.64 247.685 174.271 249.133 175.151 250.499C176.047 251.846 177.221 253.124 178.827 254.082C180.405 255.052 182.481 255.612 184.513 255.492C186.547 255.389 188.414 254.717 189.969 253.854C191.528 252.981 192.839 251.921 193.978 250.788C194.293 250.475 194.461 250.299 194.691 250.052L195.332 249.34C195.769 248.906 196.183 248.4 196.615 247.969C197.472 247.061 198.32 246.153 199.27 245.34C199.748 244.927 200.247 244.538 200.821 244.177C201.107 244.002 201.413 243.834 201.745 243.691C202.085 243.534 202.436 243.423 202.857 243.358Z" fill="#EC796B"/>
<path fill-rule="evenodd" clip-rule="evenodd" d="M202.857 243.358C202.464 241.734 201.512 240.279 200.125 239.109C198.745 237.951 196.712 237.174 194.573 237.292C193.517 237.347 192.467 237.59 191.521 237.977C190.579 238.362 189.713 238.864 188.946 239.425C188.562 239.707 188.208 240.007 187.856 240.309L186.927 241.203L185.483 242.649C183.639 244.511 181.626 246.714 178.784 247.051C175.993 247.382 174.914 246.59 173.308 246.1C173.499 246.917 173.766 247.723 174.177 248.456C174.577 249.201 175.072 249.918 175.722 250.564C176.053 250.877 176.405 251.19 176.804 251.469C177.204 251.741 177.64 251.992 178.114 252.201C179.057 252.608 180.149 252.858 181.239 252.863C182.33 252.871 183.401 252.675 184.359 252.351C185.322 252.031 186.184 251.597 186.965 251.122C188.521 250.161 189.784 249.035 190.881 247.872C191.432 247.29 191.943 246.691 192.422 246.087L192.987 245.367C193.158 245.157 193.331 244.946 193.504 244.752C194.202 243.97 194.863 243.358 195.621 242.935C196.371 242.497 197.366 242.236 198.636 242.321C199.9 242.404 201.321 242.778 202.857 243.358Z" fill="#FAFAFA"/>
<path fill-rule="evenodd" clip-rule="evenodd" d="M194.29 255.192C194.132 256.322 194.92 257.368 196.05 257.526C197.18 257.685 198.224 256.897 198.383 255.767C198.542 254.637 197.755 253.592 196.625 253.433C195.495 253.274 194.449 254.062 194.29 255.192Z" fill="#EC796B"/>
<defs>
<filter id="filter0_di_1_67" x="27.0933" y="14.2288" width="342" height="342" filterUnits="userSpaceOnUse" color-interpolation-filters="sRGB">
<feFlood flood-opacity="0" result="BackgroundImageFix"/>
<feColorMatrix in="SourceAlpha" type="matrix" values="0 0 0 0 0 0 0 0 0 0 0 0 0 0 0 0 0 0 127 0" result="hardAlpha"/>
<feOffset dy="20"/>
<feGaussianBlur stdDeviation="18"/>
<feComposite in2="hardAlpha" operator="out"/>
<feColorMatrix type="matrix" values="0 0 0 0 0 0 0 0 0 0 0 0 0 0 0 0 0 0 0.3 0"/>
<feBlend mode="normal" in2="BackgroundImageFix" result="effect1_dropShadow_1_67"/>
<feBlend mode="normal" in="SourceGraphic" in2="effect1_dropShadow_1_67" result="shape"/>
<feColorMatrix in="SourceAlpha" type="matrix" values="0 0 0 0 0 0 0 0 0 0 0 0 0 0 0 0 0 0 127 0" result="hardAlpha"/>
<feOffset dy="-10"/>
<feGaussianBlur stdDeviation="2"/>
<feComposite in2="hardAlpha" operator="arithmetic" k2="-1" k3="1"/>
<feColorMatrix type="matrix" values="0 0 0 0 0 0 0 0 0 0 0 0 0 0 0 0 0 0 0.25 0"/>
<feBlend mode="normal" in2="shape" result="effect2_innerShadow_1_67"/>
</filter>
<linearGradient id="paint0_linear_1_67" x1="198.093" y1="30.2288" x2="198.093" y2="300.229" gradientUnits="userSpaceOnUse">
<stop stop-color="#0C0C4C"/>
<stop offset="1" stop-color="#0A3A64"/>
</linearGradient>
</defs>
</svg>
