<?xml version="1.0" encoding="utf-8"?>
<!-- Generator: Adobe Illustrator 26.3.1, SVG Export Plug-In . SVG Version: 6.00 Build 0)  -->
<svg version="1.1" id="Layer_1" xmlns="http://www.w3.org/2000/svg" xmlns:xlink="http://www.w3.org/1999/xlink" x="0px" y="0px"
	 viewBox="0 0 608 608" style="enable-background:new 0 0 608 608;" xml:space="preserve">
<style type="text/css">
	.st0{fill-rule:evenodd;clip-rule:evenodd;fill:#FFFFFF;}
</style>
<circle cx="304" cy="304" r="304"/>
<path id="XMLID_8_" class="st0" d="M516.6,280.2c-1.8,29.4-13.1,57.6-34,80.4c-14.3,15.6-31.7,26.8-49,38.6
	c-18.7,12.7-37.3,25.6-54.2,40.6c-3.9,3.4-7.6,7-11.2,10.7c-8.2,8.6-15.6,18.2-20.5,29c-2.4,5.4-4.3,11.1-5.3,17
	c-1.2,6.6,0.2,13-0.6,19.5c-0.3,2.4-1.4,5.2-4.4,5.2c-1.1,0-2.1-0.4-2.9-1.1c-5.1-4.2-9.8-10.7-13.5-16.2
	c-23.8-36-20.6-73.2-4.5-110.9c0.8-1.6,1.7-3.3,2.6-5c1.7-3.3-2.4-6.5-5.2-4.1c-28.6,24.1-38.2,53.8-29.3,92
	c0.5,2.2-2.4,3.6-3.8,1.8c-10.7-13.7-18.2-29.6-20.7-46.9c-0.2-1.4-2.1-1.7-2.7-0.4c-0.1,0.1-0.2,0.3-0.3,0.5
	c-4.6,9.5-3.6,18.6-3.6,28.8c0,0.9,0,1.8-0.3,2.7c-0.3,0.8-1,1.6-1.9,1.8c-1.2,0.2-2.3-0.7-3.2-1.6c-2.4-2.5-4.7-5.1-7-7.6
	c-16.8-18.4-32.3-37.8-39.1-62.3c-2.5-8.9-3.5-18-2.7-27c0.2-2.4,2.4-4.3,4.8-4c3.3,0.4,6.6,1.2,9.7,2.5l1.9,0.8
	c0.2,0.6,0.4,1.1,0.6,1.7c1.3,3.4,6.2,2.9,6.8-0.6V366c0.6-3.1,1.2-6.2,2-9.2c0.3-1.1,0.9-2.1,1.6-3c2.5-2.8,4.9-5.5,7.3-8.2
	c3-3.5,6.2-7,9.3-10.6c5.6-6.5,11.2-12.9,16.8-19.4c8.7-10.1,31.4-39.7,42-53.6c0.3-0.3-0.2-0.7-0.5-0.4
	c-14,15.9-48.1,54.7-61.7,70.5c-7.2,8.3-14.7,16.4-21.8,24.8c-1.5,1.7-3.8,2.6-6,2.1c-11.7-2.5-40.7-3.3-49.7-1.8
	c-14,2.3-26.8,7-30.5,23.4c-15.6-10.3-25.8-22.8-21.7-42.6c0.7-3.6,1.1-7.4,1.3-11.1c0.1-1.9-0.1-4.6-1.3-5.6
	c-9.6-8.2-10.8-19-10.1-30.6c0.3-5.8-0.2-11.2-4.3-16.3c-6.3-7.8-6.2-9.3,1.7-15.9c16.3-13.6,32.5-27.4,49.9-39.4
	c11.1-7.6,17.1-15.9,15.1-29.4c-0.9-5.6,1.6-8.9,6.6-11.7c10.1-5.5,19.8-11.7,29.7-17.7c1-0.6,1.4-1.9,0.9-3c-0.3-0.6-0.6-1-0.8-1.5
	c-11-21.1-7-34.5,14.1-44.9c61.1-30.2,123.4-31.6,186.7-7.8c5.8,2.1,11.4,5.1,17.8,8.2c0.4,0.2,0.3,0.9-0.2,0.9
	c-5.4,0.1-10.9,0.1-16.3,0.2c-20.7-0.2-41.7-2-62.2-0.1H328c-0.5,0-0.6-0.8-0.1-0.9c8.1-2.4,16.5-4.1,25.2-4.9
	c0.5,0,0.5-0.7,0.1-0.8c-28.6-8-88.1,10.2-114.2,43.2c-0.6,0.9-1.9,0.8-2.4-0.2c-4.1-8.5-2.1-16.9,7.6-32.4c0.4-0.6-0.2-1.4-0.9-1.2
	c-16.3,4.5-33.5,16-24.6,44.9c0.3,0.9,1,1.6,1.9,1.9l2.6,0.9c0.6,0.2,1.1-0.3,0.9-0.9l-0.6-1.9c-2.5-7.5-3.2-14-2.2-19.6
	c0.2-0.2,0.4-0.3,0.6-0.5c2.3-1.9,4.9-3.8,7.4-5.7c0.7-0.5,1.6,0.1,1.4,0.9c-1.2,6.1-0.4,11.8,3.1,17.8l2.4,4.2
	c0.5,0.8,1.6,0.9,2.2,0.1l2.9-3.9c10.1-13.7,45.9-32.1,53.5-35.9c1-0.5,2-0.7,3-0.7h41.4c14.2-1.3,29.1-0.8,43.4-0.3
	c6,0.2,12.2,0.4,18.3,0.5h3.6c4.9,0,9.8-0.1,14.7-0.1h2.9c5.2,0,16.2,10.2,20.4,13.3c6.8,4.9,13.4,10.3,19.3,16.3
	c8.8,8.8,16.5,18.7,23.3,29.2c12,18.6,21.6,39.1,27.1,60.6C516,250.9,517.4,265.7,516.6,280.2L516.6,280.2z M231.3,205.5
	c0.7-0.4,0.7-1.5,0-1.9c-7.2-4.8-13.2-5.8-23.2-4.1c0-0.1-0.1-0.3-0.1-0.4c-2.2,0.9-4.5,1.6-6.8,1.9c-2.2,3-4.2,6.2-6.9,8.7
	c-6.4,5.9-13.3,11.3-20,17c-0.9,0.8-1.8,1.6-2.3,3c6-3.5,12.1-7.1,18.2-10.6c4.3-2.5,8.5-4.1,14-2.7c3.3,0.8,7.6-0.4,10.9-1.9
	C220.6,211.9,225.7,208.6,231.3,205.5z"/>
</svg>
