<svg width="24" height="25" viewBox="0 0 24 25" fill="none" xmlns="http://www.w3.org/2000/svg">
<path d="M12 24.5C18.6274 24.5 24 19.1274 24 12.5C24 5.87258 18.6274 0.5 12 0.5C5.37258 0.5 0 5.87258 0 12.5C0 19.1274 5.37258 24.5 12 24.5Z" fill="#7303C0"/>
<path d="M16.8241 15.6586L16.2294 16.8099L5.5815 16.8099L4.5 19.0129L15.1239 19.0129L15.1259 19.009L19.5 19.0049L16.8241 15.6586Z" fill="white"/>
<path d="M8.90512 6.5L4.50112 6.50405L7.17704 9.8504L7.76774 8.70507L18.3478 8.70507L19.4951 6.50202L8.90317 6.50202L8.90512 6.5Z" fill="white"/>
<path d="M9.9415 11.6622L8.80412 13.8673L13.9347 13.8673L15.082 11.6643L9.93955 11.6643L9.9415 11.6622Z" fill="white"/>
</svg>
